%TF.GenerationSoftware,KiCad,Pcbnew,9.0.3+dfsg-1*%
%TF.CreationDate,2026-07-29T18:38:00+02:00*%
%TF.ProjectId,phaseA,70686173-6541-42e6-9b69-6361645f7063,rev?*%
%TF.SameCoordinates,Original*%
%TF.FileFunction,Paste,Top*%
%TF.FilePolarity,Positive*%
%FSLAX46Y46*%
G04 Gerber Fmt 4.6, Leading zero omitted, Abs format (unit mm)*
G04 Created by KiCad (PCBNEW 9.0.3+dfsg-1) date 2026-07-29 18:38:00*
%MOMM*%
%LPD*%
G01*
G04 APERTURE LIST*
G04 Aperture macros list*
%AMRoundRect*
0 Rectangle with rounded corners*
0 $1 Rounding radius*
0 $2 $3 $4 $5 $6 $7 $8 $9 X,Y pos of 4 corners*
0 Add a 4 corners polygon primitive as box body*
4,1,4,$2,$3,$4,$5,$6,$7,$8,$9,$2,$3,0*
0 Add four circle primitives for the rounded corners*
1,1,$1+$1,$2,$3*
1,1,$1+$1,$4,$5*
1,1,$1+$1,$6,$7*
1,1,$1+$1,$8,$9*
0 Add four rect primitives between the rounded corners*
20,1,$1+$1,$2,$3,$4,$5,0*
20,1,$1+$1,$4,$5,$6,$7,0*
20,1,$1+$1,$6,$7,$8,$9,0*
20,1,$1+$1,$8,$9,$2,$3,0*%
G04 Aperture macros list end*
%ADD10RoundRect,0.225000X0.250000X-0.225000X0.250000X0.225000X-0.250000X0.225000X-0.250000X-0.225000X0*%
%ADD11RoundRect,0.200000X0.275000X-0.200000X0.275000X0.200000X-0.275000X0.200000X-0.275000X-0.200000X0*%
%ADD12RoundRect,0.100000X-0.637500X-0.100000X0.637500X-0.100000X0.637500X0.100000X-0.637500X0.100000X0*%
%ADD13RoundRect,0.200000X-0.200000X-0.275000X0.200000X-0.275000X0.200000X0.275000X-0.200000X0.275000X0*%
%ADD14RoundRect,0.250000X0.475000X-0.250000X0.475000X0.250000X-0.475000X0.250000X-0.475000X-0.250000X0*%
%ADD15RoundRect,0.225000X-0.225000X-0.250000X0.225000X-0.250000X0.225000X0.250000X-0.225000X0.250000X0*%
%ADD16RoundRect,0.150000X-0.825000X-0.150000X0.825000X-0.150000X0.825000X0.150000X-0.825000X0.150000X0*%
G04 APERTURE END LIST*
D10*
%TO.C,C11*%
X91800000Y-16475000D03*
X91800000Y-14925000D03*
%TD*%
D11*
%TO.C,R_OE*%
X65000000Y-41825000D03*
X65000000Y-40175000D03*
%TD*%
D10*
%TO.C,C3*%
X121800000Y-27475000D03*
X121800000Y-25925000D03*
%TD*%
D12*
%TO.C,U5*%
X94137500Y-14075000D03*
X94137500Y-14725000D03*
X94137500Y-15375000D03*
X94137500Y-16025000D03*
X94137500Y-16675000D03*
X94137500Y-17325000D03*
X94137500Y-17975000D03*
X94137500Y-18625000D03*
X94137500Y-19275000D03*
X94137500Y-19925000D03*
X99862500Y-19925000D03*
X99862500Y-19275000D03*
X99862500Y-18625000D03*
X99862500Y-17975000D03*
X99862500Y-17325000D03*
X99862500Y-16675000D03*
X99862500Y-16025000D03*
X99862500Y-15375000D03*
X99862500Y-14725000D03*
X99862500Y-14075000D03*
%TD*%
D10*
%TO.C,C7*%
X121800000Y-18475000D03*
X121800000Y-16925000D03*
%TD*%
D12*
%TO.C,U2*%
X124137500Y-34075000D03*
X124137500Y-34725000D03*
X124137500Y-35375000D03*
X124137500Y-36025000D03*
X124137500Y-36675000D03*
X124137500Y-37325000D03*
X124137500Y-37975000D03*
X124137500Y-38625000D03*
X124137500Y-39275000D03*
X124137500Y-39925000D03*
X129862500Y-39925000D03*
X129862500Y-39275000D03*
X129862500Y-38625000D03*
X129862500Y-37975000D03*
X129862500Y-37325000D03*
X129862500Y-36675000D03*
X129862500Y-36025000D03*
X129862500Y-35375000D03*
X129862500Y-34725000D03*
X129862500Y-34075000D03*
%TD*%
D10*
%TO.C,C13*%
X104800000Y-16475000D03*
X104800000Y-14925000D03*
%TD*%
%TO.C,C4*%
X132200000Y-27475000D03*
X132200000Y-25925000D03*
%TD*%
%TO.C,C9*%
X121800000Y-9475000D03*
X121800000Y-7925000D03*
%TD*%
D12*
%TO.C,U4*%
X124137500Y-7075000D03*
X124137500Y-7725000D03*
X124137500Y-8375000D03*
X124137500Y-9025000D03*
X124137500Y-9675000D03*
X124137500Y-10325000D03*
X124137500Y-10975000D03*
X124137500Y-11625000D03*
X124137500Y-12275000D03*
X124137500Y-12925000D03*
X129862500Y-12925000D03*
X129862500Y-12275000D03*
X129862500Y-11625000D03*
X129862500Y-10975000D03*
X129862500Y-10325000D03*
X129862500Y-9675000D03*
X129862500Y-9025000D03*
X129862500Y-8375000D03*
X129862500Y-7725000D03*
X129862500Y-7075000D03*
%TD*%
D10*
%TO.C,C2*%
X53000000Y-21775000D03*
X53000000Y-20225000D03*
%TD*%
D13*
%TO.C,R7*%
X20175000Y-27000000D03*
X21825000Y-27000000D03*
%TD*%
D10*
%TO.C,C8*%
X132200000Y-18475000D03*
X132200000Y-16925000D03*
%TD*%
D11*
%TO.C,R8*%
X59000000Y-21825000D03*
X59000000Y-20175000D03*
%TD*%
D10*
%TO.C,C10*%
X132200000Y-9475000D03*
X132200000Y-7925000D03*
%TD*%
D11*
%TO.C,R3*%
X44000000Y-21825000D03*
X44000000Y-20175000D03*
%TD*%
D10*
%TO.C,C6*%
X132200000Y-36475000D03*
X132200000Y-34925000D03*
%TD*%
D12*
%TO.C,U3*%
X124137500Y-16075000D03*
X124137500Y-16725000D03*
X124137500Y-17375000D03*
X124137500Y-18025000D03*
X124137500Y-18675000D03*
X124137500Y-19325000D03*
X124137500Y-19975000D03*
X124137500Y-20625000D03*
X124137500Y-21275000D03*
X124137500Y-21925000D03*
X129862500Y-21925000D03*
X129862500Y-21275000D03*
X129862500Y-20625000D03*
X129862500Y-19975000D03*
X129862500Y-19325000D03*
X129862500Y-18675000D03*
X129862500Y-18025000D03*
X129862500Y-17375000D03*
X129862500Y-16725000D03*
X129862500Y-16075000D03*
%TD*%
%TO.C,U1*%
X124137500Y-25075000D03*
X124137500Y-25725000D03*
X124137500Y-26375000D03*
X124137500Y-27025000D03*
X124137500Y-27675000D03*
X124137500Y-28325000D03*
X124137500Y-28975000D03*
X124137500Y-29625000D03*
X124137500Y-30275000D03*
X124137500Y-30925000D03*
X129862500Y-30925000D03*
X129862500Y-30275000D03*
X129862500Y-29625000D03*
X129862500Y-28975000D03*
X129862500Y-28325000D03*
X129862500Y-27675000D03*
X129862500Y-27025000D03*
X129862500Y-26375000D03*
X129862500Y-25725000D03*
X129862500Y-25075000D03*
%TD*%
D11*
%TO.C,R1*%
X33000000Y-20825000D03*
X33000000Y-19175000D03*
%TD*%
D10*
%TO.C,C14*%
X115200000Y-16475000D03*
X115200000Y-14925000D03*
%TD*%
D14*
%TO.C,C15*%
X21000000Y-13950000D03*
X21000000Y-12050000D03*
%TD*%
D10*
%TO.C,C5*%
X121800000Y-36475000D03*
X121800000Y-34925000D03*
%TD*%
D14*
%TO.C,C16*%
X59000000Y-40950000D03*
X59000000Y-39050000D03*
%TD*%
D11*
%TO.C,R5*%
X50000000Y-21825000D03*
X50000000Y-20175000D03*
%TD*%
D12*
%TO.C,U6*%
X107137500Y-14075000D03*
X107137500Y-14725000D03*
X107137500Y-15375000D03*
X107137500Y-16025000D03*
X107137500Y-16675000D03*
X107137500Y-17325000D03*
X107137500Y-17975000D03*
X107137500Y-18625000D03*
X107137500Y-19275000D03*
X107137500Y-19925000D03*
X112862500Y-19925000D03*
X112862500Y-19275000D03*
X112862500Y-18625000D03*
X112862500Y-17975000D03*
X112862500Y-17325000D03*
X112862500Y-16675000D03*
X112862500Y-16025000D03*
X112862500Y-15375000D03*
X112862500Y-14725000D03*
X112862500Y-14075000D03*
%TD*%
D11*
%TO.C,R4*%
X47000000Y-21825000D03*
X47000000Y-20175000D03*
%TD*%
D10*
%TO.C,C12*%
X102200000Y-16475000D03*
X102200000Y-14925000D03*
%TD*%
D11*
%TO.C,R6*%
X56000000Y-21825000D03*
X56000000Y-20175000D03*
%TD*%
D15*
%TO.C,C1*%
X41225000Y-12000000D03*
X42775000Y-12000000D03*
%TD*%
D16*
%TO.C,U7*%
X49525000Y-13095000D03*
X49525000Y-14365000D03*
X49525000Y-15635000D03*
X49525000Y-16905000D03*
X54475000Y-16905000D03*
X54475000Y-15635000D03*
X54475000Y-14365000D03*
X54475000Y-13095000D03*
%TD*%
D11*
%TO.C,R2*%
X36000000Y-20825000D03*
X36000000Y-19175000D03*
%TD*%
M02*
