M48
; DRILL file {KiCad 9.0.3+dfsg-1} date 2026-07-29T14:58:14+0200
; FORMAT={-:-/ absolute / metric / decimal}
; #@! TF.CreationDate,2026-07-29T14:58:14+02:00
; #@! TF.GenerationSoftware,Kicad,Pcbnew,9.0.3+dfsg-1
; #@! TF.FileFunction,Plated,1,2,PTH
FMAT,2
METRIC
; #@! TA.AperFunction,Plated,PTH,ComponentDrill
T1C0.800
; #@! TA.AperFunction,Plated,PTH,ComponentDrill
T2C1.000
; #@! TA.AperFunction,Plated,PTH,ComponentDrill
T3C1.300
%
G90
G05
T1
X21.0Y-21.0
X21.0Y-23.54
X28.62Y-21.0
X28.62Y-23.54
T2
X14.0Y-44.0
X14.0Y-46.54
X16.54Y-44.0
X16.54Y-46.54
X19.08Y-44.0
X19.08Y-46.54
X21.62Y-44.0
X21.62Y-46.54
X24.16Y-44.0
X24.16Y-46.54
X26.7Y-44.0
X26.7Y-46.54
X29.24Y-44.0
X29.24Y-46.54
X31.78Y-44.0
X31.78Y-46.54
X34.32Y-44.0
X34.32Y-46.54
X36.86Y-44.0
X36.86Y-46.54
X39.4Y-44.0
X39.4Y-46.54
X41.94Y-44.0
X41.94Y-46.54
X44.48Y-44.0
X44.48Y-46.54
X47.02Y-44.0
X47.02Y-46.54
X48.0Y-5.0
X49.56Y-44.0
X49.56Y-46.54
X50.54Y-5.0
X52.1Y-44.0
X52.1Y-46.54
X54.64Y-44.0
X54.64Y-46.54
X57.18Y-44.0
X57.18Y-46.54
X59.72Y-44.0
X59.72Y-46.54
X62.26Y-44.0
X62.26Y-46.54
X72.0Y-44.0
X72.0Y-46.54
X74.54Y-44.0
X74.54Y-46.54
X77.08Y-44.0
X77.08Y-46.54
X79.62Y-44.0
X79.62Y-46.54
X82.16Y-44.0
X82.16Y-46.54
X84.0Y-4.5
X84.0Y-7.04
X84.7Y-44.0
X84.7Y-46.54
X86.54Y-4.5
X86.54Y-7.04
X87.24Y-44.0
X87.24Y-46.54
X89.08Y-4.5
X89.08Y-7.04
X89.78Y-44.0
X89.78Y-46.54
X91.62Y-4.5
X91.62Y-7.04
X92.32Y-44.0
X92.32Y-46.54
X94.16Y-4.5
X94.16Y-7.04
X94.86Y-44.0
X94.86Y-46.54
X96.7Y-4.5
X96.7Y-7.04
X99.24Y-4.5
X99.24Y-7.04
X101.78Y-4.5
X101.78Y-7.04
X104.32Y-4.5
X104.32Y-7.04
X106.86Y-4.5
X106.86Y-7.04
T3
X30.5Y-10.0
X31.525Y-7.525
X31.525Y-12.475
X34.0Y-13.5
X36.475Y-7.525
X36.475Y-12.475
X37.5Y-10.0
T2
X9.0Y-2.1G85X11.0Y-2.1
G05
X9.0Y-8.1G85X11.0Y-8.1
G05
X14.7Y-6.1G85X14.7Y-4.1
G05
M30
