%TF.GenerationSoftware,KiCad,Pcbnew,9.0.3+dfsg-1*%
%TF.CreationDate,2026-07-29T18:38:00+02:00*%
%TF.ProjectId,phaseA,70686173-6541-42e6-9b69-6361645f7063,rev?*%
%TF.SameCoordinates,Original*%
%TF.FileFunction,Copper,L2,Bot*%
%TF.FilePolarity,Positive*%
%FSLAX46Y46*%
G04 Gerber Fmt 4.6, Leading zero omitted, Abs format (unit mm)*
G04 Created by KiCad (PCBNEW 9.0.3+dfsg-1) date 2026-07-29 18:38:00*
%MOMM*%
%LPD*%
G01*
G04 APERTURE LIST*
G04 Aperture macros list*
%AMRoundRect*
0 Rectangle with rounded corners*
0 $1 Rounding radius*
0 $2 $3 $4 $5 $6 $7 $8 $9 X,Y pos of 4 corners*
0 Add a 4 corners polygon primitive as box body*
4,1,4,$2,$3,$4,$5,$6,$7,$8,$9,$2,$3,0*
0 Add four circle primitives for the rounded corners*
1,1,$1+$1,$2,$3*
1,1,$1+$1,$4,$5*
1,1,$1+$1,$6,$7*
1,1,$1+$1,$8,$9*
0 Add four rect primitives between the rounded corners*
20,1,$1+$1,$2,$3,$4,$5,0*
20,1,$1+$1,$4,$5,$6,$7,0*
20,1,$1+$1,$6,$7,$8,$9,0*
20,1,$1+$1,$8,$9,$2,$3,0*%
G04 Aperture macros list end*
%TA.AperFunction,ComponentPad*%
%ADD10R,1.700000X1.700000*%
%TD*%
%TA.AperFunction,ComponentPad*%
%ADD11C,1.700000*%
%TD*%
%TA.AperFunction,ComponentPad*%
%ADD12RoundRect,0.250000X-0.550000X-0.550000X0.550000X-0.550000X0.550000X0.550000X-0.550000X0.550000X0*%
%TD*%
%TA.AperFunction,ComponentPad*%
%ADD13C,1.600000*%
%TD*%
%TA.AperFunction,ComponentPad*%
%ADD14C,2.400000*%
%TD*%
%TA.AperFunction,ComponentPad*%
%ADD15R,3.500000X3.500000*%
%TD*%
%TA.AperFunction,ComponentPad*%
%ADD16RoundRect,0.750000X1.000000X-0.750000X1.000000X0.750000X-1.000000X0.750000X-1.000000X-0.750000X0*%
%TD*%
%TA.AperFunction,ComponentPad*%
%ADD17RoundRect,0.875000X0.875000X-0.875000X0.875000X0.875000X-0.875000X0.875000X-0.875000X-0.875000X0*%
%TD*%
%TA.AperFunction,SMDPad,CuDef*%
%ADD18R,6.000000X1.600000*%
%TD*%
%TA.AperFunction,ViaPad*%
%ADD19C,0.600000*%
%TD*%
%TA.AperFunction,Conductor*%
%ADD20C,0.500000*%
%TD*%
%TA.AperFunction,Conductor*%
%ADD21C,0.200000*%
%TD*%
G04 APERTURE END LIST*
D10*
%TO.P,J_SND,1*%
%TO.N,SOUND*%
X48000000Y-5000000D03*
D11*
%TO.P,J_SND,2*%
%TO.N,GND*%
X50540000Y-5000000D03*
%TD*%
D10*
%TO.P,J_ULX_A,1*%
%TO.N,RW*%
X14000000Y-52540000D03*
D11*
%TO.P,J_ULX_A,2*%
%TO.N,PHI2*%
X14000000Y-50000000D03*
%TO.P,J_ULX_A,3*%
%TO.N,IO_n*%
X16540000Y-52540000D03*
%TO.P,J_ULX_A,4*%
%TO.N,RST_n*%
X16540000Y-50000000D03*
%TO.P,J_ULX_A,5*%
%TO.N,IRQ_n*%
X19080000Y-52540000D03*
%TO.P,J_ULX_A,6*%
%TO.N,ROMDIS_n*%
X19080000Y-50000000D03*
%TO.P,J_ULX_A,7*%
%TO.N,MAP_n*%
X21620000Y-52540000D03*
%TO.P,J_ULX_A,8*%
%TO.N,IOCTL_n*%
X21620000Y-50000000D03*
%TO.P,J_ULX_A,9*%
%TO.N,OE_EN*%
X24160000Y-52540000D03*
%TO.P,J_ULX_A,10*%
%TO.N,D0*%
X24160000Y-50000000D03*
%TO.P,J_ULX_A,11*%
%TO.N,D1*%
X26700000Y-52540000D03*
%TO.P,J_ULX_A,12*%
%TO.N,D2*%
X26700000Y-50000000D03*
%TO.P,J_ULX_A,13*%
%TO.N,D3*%
X29240000Y-52540000D03*
%TO.P,J_ULX_A,14*%
%TO.N,D4*%
X29240000Y-50000000D03*
%TO.P,J_ULX_A,15*%
%TO.N,D5*%
X31780000Y-52540000D03*
%TO.P,J_ULX_A,16*%
%TO.N,D6*%
X31780000Y-50000000D03*
%TO.P,J_ULX_A,17*%
%TO.N,D7*%
X34320000Y-52540000D03*
%TO.P,J_ULX_A,18*%
%TO.N,A0*%
X34320000Y-50000000D03*
%TO.P,J_ULX_A,19*%
%TO.N,A1*%
X36860000Y-52540000D03*
%TO.P,J_ULX_A,20*%
%TO.N,A2*%
X36860000Y-50000000D03*
%TO.P,J_ULX_A,21*%
%TO.N,A3*%
X39400000Y-52540000D03*
%TO.P,J_ULX_A,22*%
%TO.N,A4*%
X39400000Y-50000000D03*
%TO.P,J_ULX_A,23*%
%TO.N,A5*%
X41940000Y-52540000D03*
%TO.P,J_ULX_A,24*%
%TO.N,A6*%
X41940000Y-50000000D03*
%TO.P,J_ULX_A,25*%
%TO.N,A7*%
X44480000Y-52540000D03*
%TO.P,J_ULX_A,26*%
%TO.N,A8*%
X44480000Y-50000000D03*
%TO.P,J_ULX_A,27*%
%TO.N,A9*%
X47020000Y-52540000D03*
%TO.P,J_ULX_A,28*%
%TO.N,A10*%
X47020000Y-50000000D03*
%TO.P,J_ULX_A,29*%
%TO.N,A11*%
X49560000Y-52540000D03*
%TO.P,J_ULX_A,30*%
%TO.N,A12*%
X49560000Y-50000000D03*
%TO.P,J_ULX_A,31*%
%TO.N,A13*%
X52100000Y-52540000D03*
%TO.P,J_ULX_A,32*%
%TO.N,A14*%
X52100000Y-50000000D03*
%TO.P,J_ULX_A,33*%
%TO.N,A15*%
X54640000Y-52540000D03*
%TO.P,J_ULX_A,34*%
%TO.N,GND*%
X54640000Y-50000000D03*
%TO.P,J_ULX_A,35*%
X57180000Y-52540000D03*
%TO.P,J_ULX_A,36*%
X57180000Y-50000000D03*
%TO.P,J_ULX_A,37*%
%TO.N,+3V3*%
X59720000Y-52540000D03*
%TO.P,J_ULX_A,38*%
X59720000Y-50000000D03*
%TO.P,J_ULX_A,39*%
%TO.N,GND*%
X62260000Y-52540000D03*
%TO.P,J_ULX_A,40*%
X62260000Y-50000000D03*
%TD*%
D12*
%TO.P,K1,1*%
%TO.N,K1_LED_A*%
X21000000Y-21000000D03*
D13*
%TO.P,K1,2*%
%TO.N,GND*%
X21000000Y-23540000D03*
%TO.P,K1,3*%
%TO.N,MOTOR_A*%
X28620000Y-23540000D03*
%TO.P,K1,4*%
%TO.N,MOTOR_B*%
X28620000Y-21000000D03*
%TD*%
D14*
%TO.P,J_CAS,1*%
%TO.N,TAPE_OUT_DIN*%
X37500000Y-10000000D03*
%TO.P,J_CAS,2*%
%TO.N,GND*%
X34000000Y-13500000D03*
%TO.P,J_CAS,3*%
%TO.N,TAPE_IN_DIN*%
X30500000Y-10000000D03*
%TO.P,J_CAS,4*%
%TO.N,SOUND*%
X36474873Y-12474873D03*
%TO.P,J_CAS,5*%
%TO.N,N/C*%
X31525126Y-12474873D03*
%TO.P,J_CAS,6*%
%TO.N,MOTOR_A*%
X36474873Y-7525126D03*
%TO.P,J_CAS,7*%
%TO.N,MOTOR_B*%
X31525126Y-7525126D03*
%TD*%
D15*
%TO.P,J_PWR,1*%
%TO.N,+5V*%
X10000000Y-2100000D03*
D16*
%TO.P,J_PWR,2*%
%TO.N,GND*%
X10000000Y-8100000D03*
D17*
%TO.P,J_PWR,3*%
%TO.N,N/C*%
X14700000Y-5100000D03*
%TD*%
D10*
%TO.P,J_ULX_B,1*%
%TO.N,PA0*%
X72000000Y-52540000D03*
D11*
%TO.P,J_ULX_B,2*%
%TO.N,PA1*%
X72000000Y-50000000D03*
%TO.P,J_ULX_B,3*%
%TO.N,PA2*%
X74540000Y-52540000D03*
%TO.P,J_ULX_B,4*%
%TO.N,PA3*%
X74540000Y-50000000D03*
%TO.P,J_ULX_B,5*%
%TO.N,PA4*%
X77080000Y-52540000D03*
%TO.P,J_ULX_B,6*%
%TO.N,PA5*%
X77080000Y-50000000D03*
%TO.P,J_ULX_B,7*%
%TO.N,PA6*%
X79620000Y-52540000D03*
%TO.P,J_ULX_B,8*%
%TO.N,PA7*%
X79620000Y-50000000D03*
%TO.P,J_ULX_B,9*%
%TO.N,STROBE_n*%
X82160000Y-52540000D03*
%TO.P,J_ULX_B,10*%
%TO.N,ACK*%
X82160000Y-50000000D03*
%TO.P,J_ULX_B,11*%
%TO.N,TAPE_OUT_3V3*%
X84700000Y-52540000D03*
%TO.P,J_ULX_B,12*%
%TO.N,MOTOR_3V3*%
X84700000Y-50000000D03*
%TO.P,J_ULX_B,13*%
%TO.N,TAPE_IN_3V3*%
X87240000Y-52540000D03*
%TO.P,J_ULX_B,14*%
%TO.N,GND*%
X87240000Y-50000000D03*
%TO.P,J_ULX_B,15*%
X89780000Y-52540000D03*
%TO.P,J_ULX_B,16*%
X89780000Y-50000000D03*
%TO.P,J_ULX_B,17*%
%TO.N,+3V3*%
X92320000Y-52540000D03*
%TO.P,J_ULX_B,18*%
X92320000Y-50000000D03*
%TO.P,J_ULX_B,19*%
%TO.N,GND*%
X94860000Y-52540000D03*
%TO.P,J_ULX_B,20*%
X94860000Y-50000000D03*
%TD*%
D10*
%TO.P,J_PRN,1*%
%TO.N,PRN_STB_n*%
X84000000Y-7040000D03*
D11*
%TO.P,J_PRN,2*%
%TO.N,GND*%
X84000000Y-4500000D03*
%TO.P,J_PRN,3*%
%TO.N,PRN_D0*%
X86540000Y-7040000D03*
%TO.P,J_PRN,4*%
%TO.N,GND*%
X86540000Y-4500000D03*
%TO.P,J_PRN,5*%
%TO.N,PRN_D1*%
X89080000Y-7040000D03*
%TO.P,J_PRN,6*%
%TO.N,GND*%
X89080000Y-4500000D03*
%TO.P,J_PRN,7*%
%TO.N,PRN_D2*%
X91620000Y-7040000D03*
%TO.P,J_PRN,8*%
%TO.N,GND*%
X91620000Y-4500000D03*
%TO.P,J_PRN,9*%
%TO.N,PRN_D3*%
X94160000Y-7040000D03*
%TO.P,J_PRN,10*%
%TO.N,GND*%
X94160000Y-4500000D03*
%TO.P,J_PRN,11*%
%TO.N,PRN_D4*%
X96700000Y-7040000D03*
%TO.P,J_PRN,12*%
%TO.N,GND*%
X96700000Y-4500000D03*
%TO.P,J_PRN,13*%
%TO.N,PRN_D5*%
X99240000Y-7040000D03*
%TO.P,J_PRN,14*%
%TO.N,GND*%
X99240000Y-4500000D03*
%TO.P,J_PRN,15*%
%TO.N,PRN_D6*%
X101780000Y-7040000D03*
%TO.P,J_PRN,16*%
%TO.N,GND*%
X101780000Y-4500000D03*
%TO.P,J_PRN,17*%
%TO.N,PRN_D7*%
X104320000Y-7040000D03*
%TO.P,J_PRN,18*%
%TO.N,GND*%
X104320000Y-4500000D03*
%TO.P,J_PRN,19*%
%TO.N,PRN_ACK*%
X106860000Y-7040000D03*
%TO.P,J_PRN,20*%
%TO.N,GND*%
X106860000Y-4500000D03*
%TD*%
D18*
%TO.P,J_EXP,1*%
%TO.N,MAP5_n*%
X156950000Y-4680000D03*
%TO.P,J_EXP,3*%
%TO.N,PHI2_5*%
X156950000Y-7220000D03*
%TO.P,J_EXP,5*%
%TO.N,IO5_n*%
X156950000Y-9760000D03*
%TO.P,J_EXP,7*%
%TO.N,RW5*%
X156950000Y-12300000D03*
%TO.P,J_EXP,9*%
%TO.N,D5V2*%
X156950000Y-14840000D03*
%TO.P,J_EXP,11*%
%TO.N,A5V3*%
X156950000Y-17380000D03*
%TO.P,J_EXP,13*%
%TO.N,A5V0*%
X156950000Y-19920000D03*
%TO.P,J_EXP,15*%
%TO.N,A5V1*%
X156950000Y-22460000D03*
%TO.P,J_EXP,17*%
%TO.N,A5V2*%
X156950000Y-25000000D03*
%TO.P,J_EXP,19*%
%TO.N,D5V5*%
X156950000Y-27540000D03*
%TO.P,J_EXP,21*%
%TO.N,A5V5*%
X156950000Y-30080000D03*
%TO.P,J_EXP,23*%
%TO.N,A5V6*%
X156950000Y-32620000D03*
%TO.P,J_EXP,25*%
%TO.N,A5V7*%
X156950000Y-35160000D03*
%TO.P,J_EXP,27*%
%TO.N,A5V8*%
X156950000Y-37700000D03*
%TO.P,J_EXP,29*%
%TO.N,A5V9*%
X156950000Y-40240000D03*
%TO.P,J_EXP,31*%
%TO.N,A5V10*%
X156950000Y-42780000D03*
%TO.P,J_EXP,33*%
%TO.N,+5V*%
X156950000Y-45320000D03*
%TD*%
D19*
%TO.N,GND*%
X70000000Y-4000000D03*
X21000000Y-39000000D03*
X63000000Y-18000000D03*
X133000000Y-4000000D03*
X63000000Y-11000000D03*
X14000000Y-11000000D03*
X35000000Y-39000000D03*
X140000000Y-25000000D03*
X119000000Y-46000000D03*
X140000000Y-46000000D03*
X105000000Y-4000000D03*
X21000000Y-32000000D03*
X21000000Y-32000000D03*
X140000000Y-39000000D03*
X140000000Y-46000000D03*
X28000000Y-18000000D03*
X98162000Y-19825000D03*
X14000000Y-39000000D03*
X133000000Y-4000000D03*
X21000000Y-18000000D03*
X63000000Y-18000000D03*
X98000000Y-4000000D03*
X91000000Y-11000000D03*
X77000000Y-18000000D03*
X84000000Y-18000000D03*
X147000000Y-11000000D03*
X119000000Y-4000000D03*
X140000000Y-39000000D03*
X147000000Y-39000000D03*
X14000000Y-32000000D03*
X28000000Y-11000000D03*
X98161999Y-19825000D03*
X63000000Y-11000000D03*
X28000000Y-11000000D03*
X35000000Y-4000000D03*
X91000000Y-11000000D03*
X14000000Y-25000000D03*
X114762000Y-19825000D03*
X133000000Y-46000000D03*
X70000000Y-11000000D03*
X35000000Y-4000000D03*
X140000000Y-25000000D03*
X28000000Y-4000000D03*
X21000000Y-39000000D03*
X21000000Y-4000000D03*
X147000000Y-46000000D03*
X14000000Y-18000000D03*
X140000000Y-4000000D03*
X140000000Y-4000000D03*
X21000000Y-18000000D03*
X63000000Y-4000000D03*
X147000000Y-39000000D03*
X14000000Y-32000000D03*
X49000000Y-11000000D03*
X91000000Y-32000000D03*
X77000000Y-11000000D03*
X63000000Y-4000000D03*
X126000000Y-4000000D03*
X112000000Y-32000000D03*
X56000000Y-11000000D03*
X21000000Y-11000000D03*
X70000000Y-4000000D03*
X147000000Y-11000000D03*
X56000000Y-18000000D03*
X56000000Y-4000000D03*
X84000000Y-11000000D03*
X42000000Y-4000000D03*
X42000000Y-39000000D03*
X77000000Y-18000000D03*
X133000000Y-46000000D03*
X98000000Y-4000000D03*
X91000000Y-4000000D03*
X70000000Y-18000000D03*
X84000000Y-18000000D03*
X56000000Y-39000000D03*
X77000000Y-4000000D03*
X77000000Y-11000000D03*
X21000000Y-4000000D03*
X84000000Y-4000000D03*
X105000000Y-4000000D03*
X147000000Y-18000000D03*
X77000000Y-4000000D03*
X14000000Y-39000000D03*
X84000000Y-4000000D03*
X91000000Y-4000000D03*
X112000000Y-11000000D03*
X42000000Y-39000000D03*
X56000000Y-4000000D03*
X14000000Y-46000000D03*
X21000000Y-25000000D03*
X112000000Y-32000000D03*
X126000000Y-4000000D03*
X98000000Y-32000000D03*
X147000000Y-18000000D03*
X70000000Y-11000000D03*
X14000000Y-25000000D03*
X91000000Y-32000000D03*
X28000000Y-18000000D03*
X42000000Y-18000000D03*
X21000000Y-25000000D03*
X84000000Y-11000000D03*
X42000000Y-18000000D03*
X14000000Y-11000000D03*
X42000000Y-4000000D03*
X114762000Y-19825000D03*
X21000000Y-11000000D03*
X14000000Y-46000000D03*
X70000000Y-18000000D03*
X56000000Y-39000000D03*
X35000000Y-39000000D03*
X35000000Y-25000000D03*
X112000000Y-4000000D03*
X98000000Y-32000000D03*
X49000000Y-11000000D03*
X28000000Y-4000000D03*
X112000000Y-4000000D03*
X35000000Y-25000000D03*
X119000000Y-4000000D03*
X112000000Y-11000000D03*
X14000000Y-18000000D03*
X147000000Y-46000000D03*
X119000000Y-46000000D03*
X56000000Y-11000000D03*
X147000000Y-25000000D03*
X56000000Y-18000000D03*
X147000000Y-25000000D03*
%TO.N,+5V*%
X151974000Y-39829900D03*
X134257000Y-18385600D03*
X131162299Y-25619400D03*
X133726299Y-9522800D03*
X133726000Y-9522800D03*
X134257000Y-18385600D03*
X151974400Y-39829900D03*
X127619500Y-34558000D03*
X127620000Y-34558000D03*
X131162000Y-25619400D03*
%TO.N,+3V3*%
X52461200Y-16366799D03*
X90761300Y-16530099D03*
X103774400Y-16168299D03*
X119492000Y-21568400D03*
X103774000Y-16168299D03*
X95727899Y-14648000D03*
X52461200Y-16366799D03*
X120577000Y-11014500D03*
X119492500Y-21568400D03*
X46835300Y-18710700D03*
X95727899Y-14648000D03*
X46835300Y-18710700D03*
X98823300Y-39839000D03*
X118983000Y-33859800D03*
X119492500Y-25848000D03*
X119492000Y-25848000D03*
X90761300Y-16530099D03*
X120577000Y-11014500D03*
X98823300Y-39839000D03*
X118982600Y-33859800D03*
%TO.N,OE_EN*%
X118380000Y-30463300D03*
X115960400Y-21775700D03*
X118291699Y-13717900D03*
X115960000Y-21775700D03*
X118379700Y-30463300D03*
X118292000Y-13717900D03*
%TO.N,A0*%
X37820900Y-27618900D03*
X37820900Y-27618900D03*
%TO.N,A1*%
X38471599Y-26704900D03*
X38471599Y-26704900D03*
%TO.N,A2*%
X43532700Y-28393099D03*
X43532700Y-28393099D03*
%TO.N,A3*%
X60530800Y-24285000D03*
X60530800Y-24285000D03*
%TO.N,A4*%
X60534500Y-28860500D03*
X60534500Y-28860500D03*
%TO.N,A5*%
X59505600Y-31206400D03*
X59505600Y-31206400D03*
%TO.N,A7*%
X122486000Y-30415200D03*
X117603800Y-41087600D03*
X60610500Y-51369099D03*
X60610500Y-51369099D03*
X65070700Y-43764600D03*
X117604000Y-41087600D03*
X122486100Y-30415200D03*
X65070700Y-43764600D03*
%TO.N,A8*%
X69959300Y-37542300D03*
X69959300Y-37542300D03*
%TO.N,A9*%
X120838000Y-35844600D03*
X113586700Y-44624900D03*
X120838000Y-35844600D03*
X113587000Y-44624900D03*
X63094400Y-42593900D03*
X63094400Y-42593900D03*
%TO.N,A10*%
X116598900Y-33975100D03*
X116599000Y-33975100D03*
X115336000Y-38625600D03*
X70492399Y-38688900D03*
X115336100Y-38625600D03*
X70492399Y-38688900D03*
%TO.N,A11*%
X60706500Y-46079500D03*
X110773000Y-46391100D03*
X122869199Y-36797400D03*
X110772600Y-46391100D03*
X122869000Y-36797400D03*
X60706500Y-46079500D03*
%TO.N,A12*%
X122763500Y-37583400D03*
X113733000Y-42633600D03*
X122764000Y-37583400D03*
X63974199Y-42165400D03*
X113732700Y-42633600D03*
X63974199Y-42165400D03*
%TO.N,A13*%
X68404400Y-40620400D03*
X68404400Y-40620400D03*
%TO.N,A14*%
X61994900Y-45083000D03*
X61994900Y-45083000D03*
%TO.N,D0*%
X116957600Y-16710500D03*
X116958000Y-16710500D03*
%TO.N,D1*%
X107680900Y-54650700D03*
X125875100Y-16666100D03*
X107681000Y-54650700D03*
X125875000Y-16666100D03*
%TO.N,D2*%
X42787400Y-23800600D03*
X42787400Y-23800600D03*
%TO.N,D3*%
X119492000Y-51664100D03*
X125875100Y-18710900D03*
X125875000Y-18710900D03*
X119491500Y-51664100D03*
%TO.N,D4*%
X121472600Y-19508800D03*
X117256000Y-39128500D03*
X69380300Y-39918699D03*
X121473000Y-19508800D03*
X69380300Y-39918699D03*
X117255699Y-39128500D03*
%TO.N,D5*%
X120676200Y-20150500D03*
X101775100Y-53858800D03*
X120676000Y-20150500D03*
X101775000Y-53858800D03*
%TO.N,D6*%
X39990199Y-24562200D03*
X39990199Y-24562200D03*
%TO.N,D7*%
X39165800Y-24750900D03*
X39165800Y-24750900D03*
%TO.N,RW*%
X16140999Y-33915699D03*
X122184000Y-6644900D03*
X106022300Y-32539000D03*
X122184300Y-6644900D03*
X106022000Y-32539000D03*
X16140999Y-33915699D03*
%TO.N,PHI2*%
X125875100Y-8503500D03*
X98822200Y-55462800D03*
X98822200Y-55462800D03*
X125875000Y-8503500D03*
%TO.N,IO_n*%
X33858400Y-3072699D03*
X33858400Y-3072699D03*
%TO.N,RST_n*%
X122910100Y-9647900D03*
X108834000Y-32741300D03*
X108834100Y-32741300D03*
X122910000Y-9647900D03*
%TO.N,IRQ_n*%
X121508200Y-10407100D03*
X121508000Y-10407100D03*
%TO.N,ROMDIS_n*%
X127660000Y-10252500D03*
X37622800Y-45746199D03*
X127660300Y-10252500D03*
X37622800Y-45746199D03*
%TO.N,MAP_n*%
X50512900Y-6775800D03*
X50512900Y-6775800D03*
%TO.N,IOCTL_n*%
X125875000Y-13210400D03*
X125875100Y-13210400D03*
%TO.N,PA0*%
X78237900Y-13296500D03*
X78237900Y-13296500D03*
%TO.N,PA1*%
X80938100Y-15594299D03*
X80938100Y-15594299D03*
%TO.N,PA2*%
X81311000Y-17058600D03*
X81311000Y-17058600D03*
%TO.N,PA3*%
X92837800Y-16675000D03*
X92837800Y-16675000D03*
%TO.N,PA4*%
X89326500Y-18488000D03*
X89326500Y-18488000D03*
%TO.N,PA5*%
X90064800Y-19227600D03*
X90064800Y-19227600D03*
%TO.N,PA6*%
X91856800Y-20260000D03*
X91856800Y-20260000D03*
%TO.N,PA7*%
X90108500Y-46536800D03*
X90108500Y-46536800D03*
X92850600Y-19859800D03*
X92850600Y-19859800D03*
%TO.N,STROBE_n*%
X108639000Y-14116900D03*
X108639100Y-14116900D03*
%TO.N,ACK*%
X96548400Y-46770600D03*
X105740200Y-15807400D03*
X96548400Y-46770600D03*
X105740000Y-15807400D03*
%TO.N,TAPE_OUT_3V3*%
X83132600Y-31885400D03*
X36907800Y-22491000D03*
X51009400Y-32076099D03*
X51009400Y-32076099D03*
X83132600Y-31885400D03*
X36907800Y-22491000D03*
%TO.N,MOTOR_3V3*%
X82152300Y-30394500D03*
X82152300Y-30394500D03*
%TO.N,TAPE_IN_3V3*%
X90564500Y-21948600D03*
X90564500Y-21948600D03*
%TO.N,A5V0*%
X137843500Y-25425800D03*
X137844000Y-25425800D03*
%TO.N,A5V1*%
X136323000Y-24670400D03*
X136323300Y-24670400D03*
%TO.N,A5V2*%
X153164000Y-24103099D03*
X153163700Y-24103099D03*
%TO.N,A5V3*%
X131162299Y-27461700D03*
X131162000Y-27461700D03*
%TO.N,A5V5*%
X133903799Y-29036800D03*
X133904000Y-29036800D03*
%TO.N,A5V6*%
X150822500Y-29850500D03*
X150822000Y-29850500D03*
%TO.N,A5V7*%
X152856000Y-32386400D03*
X152855900Y-32386400D03*
%TO.N,A5V8*%
X152312600Y-36535400D03*
X152313000Y-36535400D03*
%TO.N,A5V9*%
X131163899Y-35000600D03*
X131163999Y-35000600D03*
%TO.N,A5V10*%
X131402300Y-35760600D03*
X131401999Y-35760600D03*
%TO.N,A5V12*%
X135160900Y-40584300D03*
X135161000Y-40584300D03*
X131461999Y-38611300D03*
X131461899Y-38611300D03*
%TO.N,A5V13*%
X127270000Y-32903200D03*
X128447300Y-37060300D03*
X151527000Y-32650799D03*
X153475000Y-37120300D03*
X127270000Y-32903200D03*
X151526899Y-32650799D03*
X153475200Y-37120300D03*
X128447000Y-37060300D03*
%TO.N,D5V2*%
X127999699Y-17936300D03*
X128000000Y-17936300D03*
%TO.N,D5V5*%
X151505299Y-22714200D03*
X151505000Y-22714200D03*
%TO.N,D5V6*%
X137571100Y-23096100D03*
X140162799Y-20956700D03*
X140163000Y-20956700D03*
X137571000Y-23096100D03*
%TO.N,D5V7*%
X153709000Y-28838900D03*
X135246200Y-23838099D03*
X153708900Y-28838900D03*
X135246000Y-23838099D03*
%TO.N,RW5*%
X134693200Y-7516200D03*
%TO.N,PHI2_5*%
X152405500Y-7147300D03*
%TO.N,IO5_n*%
X131144399Y-9243200D03*
%TO.N,ROMDIS5_n*%
X136287900Y-5080000D03*
X131752899Y-12575000D03*
%TO.N,MAP5_n*%
X131198299Y-12061700D03*
%TO.N,IOCTL5_n*%
X151977100Y-13543600D03*
X154064000Y-11030000D03*
%TO.N,PRN_D0*%
X96627400Y-12451400D03*
X96627400Y-12451400D03*
%TO.N,PRN_D1*%
X93192000Y-12040600D03*
X93192000Y-12040600D03*
%TO.N,PRN_D2*%
X98192100Y-16305299D03*
X98192100Y-16305299D03*
%TO.N,PRN_D3*%
X101118000Y-16203299D03*
X99819300Y-8851200D03*
X99819300Y-8851200D03*
X101118200Y-16203299D03*
%TO.N,PRN_D4*%
X97723700Y-17250700D03*
X97723700Y-17250700D03*
%TO.N,PRN_D5*%
X98235199Y-17909700D03*
X98235199Y-17909700D03*
%TO.N,PRN_D6*%
X101924000Y-18336700D03*
X101924399Y-18336700D03*
%TO.N,PRN_D7*%
X104728000Y-19126200D03*
X104728000Y-19126200D03*
%TO.N,PRN_STB_n*%
X110980000Y-13279100D03*
X110980000Y-13279100D03*
%TO.N,PRN_ACK*%
X110884000Y-16013900D03*
X110884500Y-16013900D03*
%TD*%
D20*
%TO.N,+5V*%
X130455999Y-35815800D02*
X130455999Y-34558000D01*
X130455999Y-34558000D02*
X130455999Y-26325599D01*
X130456099Y-35815800D02*
X130456099Y-34558000D01*
X133726000Y-18385600D02*
X131162000Y-20949600D01*
X131162299Y-20949600D02*
X131162299Y-25619400D01*
X133726299Y-18385600D02*
X133726299Y-9522800D01*
X130456099Y-26325599D02*
X131162299Y-25619400D01*
X134470000Y-39829900D02*
X130455999Y-35815800D01*
X151974400Y-39829900D02*
X134470200Y-39829900D01*
X130456099Y-34558000D02*
X130456099Y-26325599D01*
X133726299Y-18385600D02*
X134257000Y-18385600D01*
X154950000Y-45320000D02*
X154950000Y-44118300D01*
X151974400Y-42194199D02*
X151974400Y-39829900D01*
X154950000Y-44118300D02*
X153898500Y-44118300D01*
X130455999Y-34558000D02*
X127620000Y-34558000D01*
X154950000Y-45320000D02*
X154950000Y-44118300D01*
X151974000Y-39829900D02*
X134470000Y-39829900D01*
X130456099Y-34558000D02*
X127619500Y-34558000D01*
X133726000Y-18385600D02*
X134257000Y-18385600D01*
X154950000Y-44118300D02*
X153898000Y-44118300D01*
X153898500Y-44118300D02*
X151974400Y-42194199D01*
X151974000Y-42194199D02*
X151974000Y-39829900D01*
X134470200Y-39829900D02*
X130456099Y-35815800D01*
X130455999Y-26325599D02*
X131162000Y-25619400D01*
X133726000Y-18385600D02*
X133726000Y-9522800D01*
X153898000Y-44118300D02*
X151974000Y-42194199D01*
X131162000Y-20949600D02*
X131162000Y-25619400D01*
X133726299Y-18385600D02*
X131162299Y-20949600D01*
%TO.N,+3V3*%
X98822200Y-39839000D02*
X98823300Y-39839000D01*
X98822200Y-43497800D02*
X98822200Y-39839000D01*
X92643400Y-14648000D02*
X90761300Y-16530099D01*
X95727899Y-14648000D02*
X92643400Y-14648000D01*
X59720000Y-50000000D02*
X59720000Y-52540000D01*
X92320000Y-50000000D02*
X92320000Y-52540000D01*
X92320000Y-50000000D02*
X98822200Y-43497800D01*
X119492500Y-33349899D02*
X118982600Y-33859800D01*
X90761300Y-16530099D02*
X97747899Y-23516599D01*
X59720000Y-50000000D02*
X59720000Y-52540000D01*
X46835300Y-18710700D02*
X50117300Y-18710700D01*
X119492000Y-12099000D02*
X120577000Y-11014500D01*
X98822200Y-39839000D02*
X98822200Y-24591000D01*
X119492000Y-25848000D02*
X119492000Y-33349899D01*
X90761300Y-16530099D02*
X97747899Y-23516599D01*
X119492500Y-12099000D02*
X120577000Y-11014500D01*
X97747899Y-23516599D02*
X103774000Y-17490100D01*
X50117300Y-18710700D02*
X52461200Y-16366799D01*
X98822200Y-24591000D02*
X97747899Y-23516599D01*
X98822200Y-39839000D02*
X98823300Y-39839000D01*
X119492500Y-21568400D02*
X119492500Y-25848000D01*
X50117300Y-18710700D02*
X52461200Y-16366799D01*
X92643400Y-14648000D02*
X90761300Y-16530099D01*
X46835300Y-18710700D02*
X50117300Y-18710700D01*
X92320000Y-50000000D02*
X92320000Y-52540000D01*
X103774000Y-17490100D02*
X103774000Y-16168299D01*
X98822200Y-39839000D02*
X98822200Y-24591000D01*
X95727899Y-14648000D02*
X92643400Y-14648000D01*
X119492000Y-33349899D02*
X118983000Y-33859800D01*
X97747899Y-23516599D02*
X103774400Y-17490100D01*
X119492500Y-25848000D02*
X119492500Y-33349899D01*
X119492000Y-21568400D02*
X119492000Y-12099000D01*
X98822200Y-43497800D02*
X98822200Y-39839000D01*
X119492000Y-21568400D02*
X119492000Y-25848000D01*
X98822200Y-24591000D02*
X97747899Y-23516599D01*
X92320000Y-50000000D02*
X98822200Y-43497800D01*
X103774400Y-17490100D02*
X103774400Y-16168299D01*
X119492500Y-21568400D02*
X119492500Y-12099000D01*
D21*
%TO.N,OE_EN*%
X118291699Y-13717900D02*
X116930399Y-15079200D01*
X116930000Y-15890799D02*
X118380000Y-17340100D01*
X116930000Y-15079200D02*
X116930000Y-15890799D01*
X118379700Y-17340100D02*
X118379700Y-30463300D01*
X118380000Y-17340100D02*
X118380000Y-30463300D01*
X116930399Y-15079200D02*
X116930399Y-15890799D01*
X115960000Y-21775700D02*
X115960000Y-16860799D01*
X115960000Y-16860799D02*
X116930000Y-15890799D01*
X115960400Y-16860799D02*
X116930399Y-15890799D01*
X118292000Y-13717900D02*
X116930000Y-15079200D01*
X116930399Y-15890799D02*
X118379700Y-17340100D01*
X115960400Y-21775700D02*
X115960400Y-16860799D01*
%TO.N,A0*%
X34320000Y-50000000D02*
X34320000Y-31119799D01*
X34320000Y-50000000D02*
X34320000Y-31119799D01*
X34320000Y-31119799D02*
X37820900Y-27618900D01*
X34320000Y-31119799D02*
X37820900Y-27618900D01*
%TO.N,A1*%
X38471599Y-27748400D02*
X38471599Y-26704900D01*
X35750099Y-51430099D02*
X35750099Y-30469900D01*
X35750099Y-51430099D02*
X35750099Y-30469900D01*
X38471599Y-27748400D02*
X38471599Y-26704900D01*
X36860000Y-52540000D02*
X35750099Y-51430099D01*
X35750099Y-30469900D02*
X38471599Y-27748400D01*
X36860000Y-52540000D02*
X35750099Y-51430099D01*
X35750099Y-30469900D02*
X38471599Y-27748400D01*
%TO.N,A2*%
X36860000Y-35065800D02*
X36860000Y-50000000D01*
X36860000Y-35065800D02*
X36860000Y-50000000D01*
X43532700Y-28393099D02*
X36860000Y-35065800D01*
X43532700Y-28393099D02*
X36860000Y-35065800D01*
%TO.N,A3*%
X38288700Y-51428700D02*
X38288700Y-46527100D01*
X38288700Y-46527100D02*
X60530800Y-24285000D01*
X38288700Y-51428700D02*
X38288700Y-46527100D01*
X39400000Y-52540000D02*
X38288700Y-51428700D01*
X38288700Y-46527100D02*
X60530800Y-24285000D01*
X39400000Y-52540000D02*
X38288700Y-51428700D01*
%TO.N,A4*%
X60534500Y-28860500D02*
X61262900Y-28860500D01*
X64641200Y-31135500D02*
X64641200Y-30678500D01*
X60534500Y-28860500D02*
X61262900Y-28860500D01*
X60201200Y-27860500D02*
X39400000Y-48661699D01*
X64641200Y-30678500D02*
X61823200Y-27860500D01*
X61262900Y-28860500D02*
X63861100Y-31458700D01*
X64318000Y-31458700D02*
X64641200Y-31135500D01*
X64318000Y-31458700D02*
X64641200Y-31135500D01*
X61262900Y-28860500D02*
X63861100Y-31458700D01*
X39400000Y-48661699D02*
X39400000Y-50000000D01*
X39400000Y-48661699D02*
X39400000Y-50000000D01*
X63861100Y-31458700D02*
X64318000Y-31458700D01*
X64641200Y-31135500D02*
X64641200Y-30678500D01*
X64641200Y-30678500D02*
X61823200Y-27860500D01*
X61823200Y-27860500D02*
X60201200Y-27860500D01*
X60201200Y-27860500D02*
X39400000Y-48661699D01*
X63861100Y-31458700D02*
X64318000Y-31458700D01*
X61823200Y-27860500D02*
X60201200Y-27860500D01*
%TO.N,A5*%
X45750000Y-50329699D02*
X45750000Y-44962000D01*
X41940000Y-52540000D02*
X43210000Y-51270000D01*
X45750000Y-50329699D02*
X45750000Y-44962000D01*
X45750000Y-44962000D02*
X59505600Y-31206400D01*
X45750000Y-44962000D02*
X59505600Y-31206400D01*
X44809700Y-51270000D02*
X45750000Y-50329699D01*
X41940000Y-52540000D02*
X43210000Y-51270000D01*
X44809700Y-51270000D02*
X45750000Y-50329699D01*
X43210000Y-51270000D02*
X44809700Y-51270000D01*
X43210000Y-51270000D02*
X44809700Y-51270000D01*
%TO.N,A7*%
X65070700Y-43764600D02*
X60879400Y-47955900D01*
X122486100Y-30415200D02*
X122486100Y-36205300D01*
X60879400Y-47955900D02*
X60879400Y-51100199D01*
X60879400Y-51100199D02*
X60610500Y-51369099D01*
X60879400Y-51100199D02*
X60610500Y-51369099D01*
X122486000Y-36205300D02*
X117604000Y-41087600D01*
X60879400Y-47955900D02*
X60879400Y-51100199D01*
X122486100Y-36205300D02*
X117603800Y-41087600D01*
X65070700Y-43764600D02*
X60879400Y-47955900D01*
X122486000Y-30415200D02*
X122486000Y-36205300D01*
%TO.N,A8*%
X44480000Y-50000000D02*
X44480000Y-45451900D01*
X69447399Y-37542300D02*
X69959300Y-37542300D01*
X59295400Y-30636500D02*
X62541599Y-30636500D01*
X62541599Y-30636500D02*
X69447399Y-37542300D01*
X59295400Y-30636500D02*
X62541599Y-30636500D01*
X44480000Y-50000000D02*
X44480000Y-45451900D01*
X44480000Y-45451900D02*
X59295400Y-30636500D01*
X69447399Y-37542300D02*
X69959300Y-37542300D01*
X62541599Y-30636500D02*
X69447399Y-37542300D01*
X44480000Y-45451900D02*
X59295400Y-30636500D01*
%TO.N,A9*%
X50661699Y-50477000D02*
X50661699Y-49813199D01*
X47020000Y-52540000D02*
X48290000Y-51270000D01*
X48290000Y-51270000D02*
X49868700Y-51270000D01*
X113587000Y-44324600D02*
X113587000Y-44624900D01*
X49868700Y-51270000D02*
X50661699Y-50477000D01*
X48290000Y-51270000D02*
X49868700Y-51270000D01*
X120838000Y-35844600D02*
X120838000Y-37073300D01*
X120838000Y-37073300D02*
X113587000Y-44324600D01*
X113586700Y-44324600D02*
X113586700Y-44624900D01*
X50661699Y-49813199D02*
X57881000Y-42593900D01*
X49868700Y-51270000D02*
X50661699Y-50477000D01*
X50661699Y-49813199D02*
X57881000Y-42593900D01*
X50661699Y-50477000D02*
X50661699Y-49813199D01*
X47020000Y-52540000D02*
X48290000Y-51270000D01*
X57881000Y-42593900D02*
X63094400Y-42593900D01*
X120838000Y-37073300D02*
X113586700Y-44324600D01*
X120838000Y-35844600D02*
X120838000Y-37073300D01*
X57881000Y-42593900D02*
X63094400Y-42593900D01*
%TO.N,A10*%
X115336000Y-35237900D02*
X115336000Y-38625600D01*
X70492399Y-38689000D02*
X70492399Y-38688900D01*
X58331000Y-38689000D02*
X70492399Y-38689000D01*
X116599000Y-33975100D02*
X115336000Y-35237900D01*
X47020000Y-50000000D02*
X58331000Y-38689000D01*
X70492399Y-38689000D02*
X70492399Y-38688900D01*
X115336100Y-35237900D02*
X115336100Y-38625600D01*
X116598900Y-33975100D02*
X115336100Y-35237900D01*
X47020000Y-50000000D02*
X58331000Y-38689000D01*
X58331000Y-38689000D02*
X70492399Y-38689000D01*
%TO.N,A11*%
X122869199Y-36797400D02*
X122769399Y-36797400D01*
X60706500Y-46079500D02*
X56960900Y-46079500D01*
X113175699Y-46391100D02*
X110772600Y-46391100D01*
X53370000Y-50314400D02*
X52414400Y-51270000D01*
X122769399Y-36797400D02*
X113175699Y-46391100D01*
X50830000Y-51270000D02*
X49560000Y-52540000D01*
X53370000Y-49670400D02*
X53370000Y-50314400D01*
X52414400Y-51270000D02*
X50830000Y-51270000D01*
X53370000Y-50314400D02*
X52414400Y-51270000D01*
X56960900Y-46079500D02*
X53370000Y-49670400D01*
X122769000Y-36797400D02*
X113176000Y-46391100D01*
X52414400Y-51270000D02*
X50830000Y-51270000D01*
X60706500Y-46079500D02*
X56960900Y-46079500D01*
X113176000Y-46391100D02*
X110773000Y-46391100D01*
X122869000Y-36797400D02*
X122769000Y-36797400D01*
X53370000Y-49670400D02*
X53370000Y-50314400D01*
X56960900Y-46079500D02*
X53370000Y-49670400D01*
X50830000Y-51270000D02*
X49560000Y-52540000D01*
%TO.N,A12*%
X113732700Y-42633600D02*
X110203600Y-46162699D01*
X57517900Y-42042100D02*
X63850900Y-42042100D01*
X110203600Y-46162699D02*
X110203600Y-46614800D01*
X110546000Y-46957600D02*
X113389000Y-46957600D01*
X113389300Y-46957600D02*
X122763500Y-37583400D01*
X57517900Y-42042100D02*
X63850900Y-42042100D01*
X110204000Y-46614800D02*
X110546000Y-46957600D01*
X110204000Y-46162699D02*
X110204000Y-46614800D01*
X49560000Y-50000000D02*
X57517900Y-42042100D01*
X113389000Y-46957600D02*
X122764000Y-37583400D01*
X113733000Y-42633600D02*
X110204000Y-46162699D01*
X63850900Y-42042100D02*
X63974199Y-42165400D01*
X110203600Y-46614800D02*
X110546399Y-46957600D01*
X49560000Y-50000000D02*
X57517900Y-42042100D01*
X110546399Y-46957600D02*
X113389300Y-46957600D01*
X63850900Y-42042100D02*
X63974199Y-42165400D01*
%TO.N,A13*%
X67434800Y-40620400D02*
X58450000Y-49605200D01*
X58450000Y-50318700D02*
X57498700Y-51270000D01*
X55172400Y-53641700D02*
X53201699Y-53641700D01*
X55172400Y-53641700D02*
X53201699Y-53641700D01*
X53201699Y-53641700D02*
X52100000Y-52540000D01*
X55965000Y-52177000D02*
X55965000Y-52849100D01*
X68404400Y-40620400D02*
X67434800Y-40620400D01*
X55965000Y-52849100D02*
X55172400Y-53641700D01*
X57498700Y-51270000D02*
X56872000Y-51270000D01*
X58450000Y-49605200D02*
X58450000Y-50318700D01*
X58450000Y-49605200D02*
X58450000Y-50318700D01*
X56872000Y-51270000D02*
X55965000Y-52177000D01*
X53201699Y-53641700D02*
X52100000Y-52540000D01*
X58450000Y-50318700D02*
X57498700Y-51270000D01*
X67434800Y-40620400D02*
X58450000Y-49605200D01*
X68404400Y-40620400D02*
X67434800Y-40620400D01*
X56872000Y-51270000D02*
X55965000Y-52177000D01*
X57498700Y-51270000D02*
X56872000Y-51270000D01*
X55965000Y-52849100D02*
X55172400Y-53641700D01*
X55965000Y-52177000D02*
X55965000Y-52849100D01*
%TO.N,A14*%
X52100000Y-50000000D02*
X57017000Y-45083000D01*
X57017000Y-45083000D02*
X61994900Y-45083000D01*
X57017000Y-45083000D02*
X61994900Y-45083000D01*
X52100000Y-50000000D02*
X57017000Y-45083000D01*
%TO.N,D0*%
X29185100Y-54078199D02*
X94907400Y-54078199D01*
X25430000Y-51270000D02*
X27014300Y-51270000D01*
X27970000Y-52225699D02*
X27970000Y-52863099D01*
X29185100Y-54078199D02*
X94907400Y-54078199D01*
X116957600Y-32028000D02*
X116957600Y-16710500D01*
X94907400Y-54078199D02*
X116958000Y-32028000D01*
X24160000Y-50000000D02*
X25430000Y-51270000D01*
X116958000Y-32028000D02*
X116958000Y-16710500D01*
X27014300Y-51270000D02*
X27970000Y-52225699D01*
X94907400Y-54078199D02*
X116957600Y-32028000D01*
X27970000Y-52863099D02*
X29185100Y-54078199D01*
X27970000Y-52225699D02*
X27970000Y-52863099D01*
X25430000Y-51270000D02*
X27014300Y-51270000D01*
X27970000Y-52863099D02*
X29185100Y-54078199D01*
X24160000Y-50000000D02*
X25430000Y-51270000D01*
X27014300Y-51270000D02*
X27970000Y-52225699D01*
%TO.N,D1*%
X124322000Y-18219700D02*
X124322000Y-38010100D01*
X124322000Y-38010100D02*
X107681000Y-54650700D01*
X124321500Y-18219700D02*
X124321500Y-38010100D01*
X125875100Y-16666100D02*
X124321500Y-18219700D01*
X125875000Y-16666100D02*
X124322000Y-18219700D01*
X124321500Y-38010100D02*
X107680900Y-54650700D01*
%TO.N,D2*%
X26700000Y-35865300D02*
X26700000Y-50000000D01*
X42787400Y-23800600D02*
X38764700Y-23800600D01*
X26700000Y-35865300D02*
X26700000Y-50000000D01*
X38764700Y-23800600D02*
X26700000Y-35865300D01*
X38764700Y-23800600D02*
X26700000Y-35865300D01*
X42787400Y-23800600D02*
X38764700Y-23800600D01*
%TO.N,D3*%
X125875100Y-45280500D02*
X125875100Y-18710900D01*
X119491500Y-51664100D02*
X125875100Y-45280500D01*
X125875000Y-45280500D02*
X125875000Y-18710900D01*
X119492000Y-51664100D02*
X125875000Y-45280500D01*
%TO.N,D4*%
X47334300Y-51270000D02*
X46660400Y-51270000D01*
X32109700Y-51270000D02*
X30510000Y-51270000D01*
X46660400Y-51270000D02*
X45626100Y-52304300D01*
X33897500Y-53683300D02*
X33050100Y-52835900D01*
X69380300Y-39918699D02*
X58064800Y-39918699D01*
X44964100Y-53683300D02*
X33897500Y-53683300D01*
X30510000Y-51270000D02*
X29240000Y-50000000D01*
X121472600Y-34429900D02*
X117255699Y-38646800D01*
X47334300Y-51270000D02*
X46660400Y-51270000D01*
X30510000Y-51270000D02*
X29240000Y-50000000D01*
X45626100Y-53021300D02*
X44964100Y-53683300D01*
X45626100Y-52304300D02*
X45626100Y-53021300D01*
X48290099Y-50314200D02*
X47334300Y-51270000D01*
X33050100Y-52835900D02*
X33050100Y-52210400D01*
X48290099Y-50314200D02*
X47334300Y-51270000D01*
X48290099Y-49693400D02*
X48290099Y-50314200D01*
X121473000Y-19508800D02*
X121473000Y-34429900D01*
X121473000Y-34429900D02*
X117256000Y-38646800D01*
X33050100Y-52210400D02*
X32109700Y-51270000D01*
X46660400Y-51270000D02*
X45626100Y-52304300D01*
X32109700Y-51270000D02*
X30510000Y-51270000D01*
X33897500Y-53683300D02*
X33050100Y-52835900D01*
X48290099Y-49693400D02*
X48290099Y-50314200D01*
X45626100Y-53021300D02*
X44964100Y-53683300D01*
X58064800Y-39918699D02*
X48290099Y-49693400D01*
X33050100Y-52835900D02*
X33050100Y-52210400D01*
X69380300Y-39918699D02*
X58064800Y-39918699D01*
X44964100Y-53683300D02*
X33897500Y-53683300D01*
X121472600Y-19508800D02*
X121472600Y-34429900D01*
X33050100Y-52210400D02*
X32109700Y-51270000D01*
X58064800Y-39918699D02*
X48290099Y-49693400D01*
X117256000Y-38646800D02*
X117256000Y-39128500D01*
X117255699Y-38646800D02*
X117255699Y-39128500D01*
X45626100Y-52304300D02*
X45626100Y-53021300D01*
%TO.N,D5*%
X120676000Y-20150500D02*
X120676000Y-34729000D01*
X120676200Y-20150500D02*
X120676200Y-34729000D01*
X101775000Y-53630100D02*
X101775000Y-53858800D01*
X120676200Y-34729000D02*
X101775100Y-53630100D01*
X101775100Y-53630100D02*
X101775100Y-53858800D01*
X120676000Y-34729000D02*
X101775000Y-53630100D01*
%TO.N,D6*%
X38880400Y-24199099D02*
X39627100Y-24199099D01*
X31780000Y-50000000D02*
X31780000Y-31299500D01*
X31780000Y-31299500D02*
X38880400Y-24199099D01*
X38880400Y-24199099D02*
X39627100Y-24199099D01*
X31780000Y-31299500D02*
X38880400Y-24199099D01*
X39627100Y-24199099D02*
X39990199Y-24562200D01*
X39627100Y-24199099D02*
X39990199Y-24562200D01*
X31780000Y-50000000D02*
X31780000Y-31299500D01*
%TO.N,D7*%
X33208700Y-51428700D02*
X33208700Y-30708000D01*
X33208700Y-51428700D02*
X33208700Y-30708000D01*
X33208700Y-30708000D02*
X39165800Y-24750900D01*
X34320000Y-52540000D02*
X33208700Y-51428700D01*
X34320000Y-52540000D02*
X33208700Y-51428700D01*
X33208700Y-30708000D02*
X39165800Y-24750900D01*
%TO.N,RW*%
X122184300Y-6811900D02*
X122184300Y-6644900D01*
X14000000Y-51438300D02*
X13862300Y-51438300D01*
X106022300Y-22973900D02*
X122184300Y-6811900D01*
X13862300Y-51438300D02*
X12882500Y-50458500D01*
X13862300Y-51438300D02*
X12882500Y-50458500D01*
X12882500Y-50458500D02*
X12882500Y-37174200D01*
X122184000Y-6811900D02*
X122184000Y-6644900D01*
X12882500Y-37174200D02*
X16140999Y-33915699D01*
X12882500Y-37174200D02*
X16140999Y-33915699D01*
X106022300Y-32539000D02*
X106022300Y-22973900D01*
X14000000Y-51438300D02*
X13862300Y-51438300D01*
X106022000Y-22973900D02*
X122184000Y-6811900D01*
X12882500Y-50458500D02*
X12882500Y-37174200D01*
X14000000Y-52540000D02*
X14000000Y-51438300D01*
X106022000Y-32539000D02*
X106022000Y-22973900D01*
X14000000Y-52540000D02*
X14000000Y-51438300D01*
%TO.N,PHI2*%
X98822200Y-55462800D02*
X99279100Y-55462800D01*
X120049200Y-34692699D02*
X120049200Y-14329400D01*
X120049200Y-14329400D02*
X125875100Y-8503500D01*
X99279100Y-55462800D02*
X120049000Y-34692699D01*
X120049000Y-34692699D02*
X120049000Y-14329400D01*
X120049000Y-14329400D02*
X125875000Y-8503500D01*
X99279100Y-55462800D02*
X120049200Y-34692699D01*
X98822200Y-55462800D02*
X99279100Y-55462800D01*
%TO.N,IO_n*%
X33858400Y-3072699D02*
X25339200Y-11591899D01*
X19394400Y-51270000D02*
X17810000Y-51270000D01*
X20350000Y-28073500D02*
X20350000Y-50314400D01*
X20350000Y-28073500D02*
X20350000Y-50314400D01*
X25339200Y-23084300D02*
X20350000Y-28073500D01*
X25339200Y-11591899D02*
X25339200Y-23084300D01*
X25339200Y-23084300D02*
X20350000Y-28073500D01*
X19394400Y-51270000D02*
X17810000Y-51270000D01*
X33858400Y-3072699D02*
X25339200Y-11591899D01*
X20350000Y-50314400D02*
X19394400Y-51270000D01*
X25339200Y-11591899D02*
X25339200Y-23084300D01*
X20350000Y-50314400D02*
X19394400Y-51270000D01*
X17810000Y-51270000D02*
X16540000Y-52540000D01*
X17810000Y-51270000D02*
X16540000Y-52540000D01*
%TO.N,RST_n*%
X108834100Y-21480000D02*
X108834100Y-32741300D01*
X120666000Y-9647900D02*
X108834000Y-21480000D01*
X122910100Y-9647900D02*
X120666200Y-9647900D01*
X108834000Y-21480000D02*
X108834000Y-32741300D01*
X120666200Y-9647900D02*
X108834100Y-21480000D01*
X122910000Y-9647900D02*
X120666000Y-9647900D01*
%TO.N,IRQ_n*%
X120404300Y-10407100D02*
X121508200Y-10407100D01*
X118931000Y-30691800D02*
X118931000Y-11880000D01*
X95171200Y-54452000D02*
X118931400Y-30691800D01*
X20992000Y-54452000D02*
X95171200Y-54452000D01*
X118931400Y-11880000D02*
X120404300Y-10407100D01*
X120404000Y-10407100D02*
X121508000Y-10407100D01*
X19080000Y-52540000D02*
X20992000Y-54452000D01*
X19080000Y-52540000D02*
X20992000Y-54452000D01*
X118931000Y-11880000D02*
X120404000Y-10407100D01*
X118931400Y-30691800D02*
X118931400Y-11880000D01*
X20992000Y-54452000D02*
X95171200Y-54452000D01*
X95171200Y-54452000D02*
X118931000Y-30691800D01*
%TO.N,ROMDIS_n*%
X127660000Y-9459600D02*
X127660000Y-10252500D01*
X55606900Y-3011800D02*
X121212500Y-3011800D01*
X42827300Y-23042700D02*
X36679400Y-23042700D01*
X42827300Y-23042700D02*
X36679400Y-23042700D01*
X36356100Y-22719400D02*
X36356100Y-22262600D01*
X36356100Y-22719400D02*
X36356100Y-22262600D01*
X121212500Y-3011800D02*
X127660300Y-9459600D01*
X44111300Y-39257700D02*
X44111300Y-24326700D01*
X44111300Y-24326700D02*
X42827300Y-23042700D01*
X44111300Y-24326700D02*
X42827300Y-23042700D01*
X121212000Y-3011800D02*
X127660000Y-9459600D01*
X44111300Y-39257700D02*
X44111300Y-24326700D01*
X36356100Y-22262600D02*
X55606900Y-3011800D01*
X37622800Y-45746199D02*
X44111300Y-39257700D01*
X37622800Y-45746199D02*
X44111300Y-39257700D01*
X36679400Y-23042700D02*
X36356100Y-22719400D01*
X127660300Y-9459600D02*
X127660300Y-10252500D01*
X36679400Y-23042700D02*
X36356100Y-22719400D01*
X55606900Y-3011800D02*
X121212000Y-3011800D01*
X36356100Y-22262600D02*
X55606900Y-3011800D01*
%TO.N,MAP_n*%
X22890000Y-51270000D02*
X22890000Y-34398700D01*
X22890000Y-34398700D02*
X50512900Y-6775800D01*
X22890000Y-51270000D02*
X22890000Y-34398700D01*
X21620000Y-52540000D02*
X22890000Y-51270000D01*
X21620000Y-52540000D02*
X22890000Y-51270000D01*
X22890000Y-34398700D02*
X50512900Y-6775800D01*
%TO.N,IOCTL_n*%
X50256900Y-6224000D02*
X50923600Y-6224000D01*
X128215100Y-10870400D02*
X125875100Y-13210400D01*
X21620000Y-34860900D02*
X50256900Y-6224000D01*
X128215000Y-9517100D02*
X128215000Y-10870400D01*
X121347100Y-2649100D02*
X128215100Y-9517100D01*
X50923600Y-6224000D02*
X54498500Y-2649100D01*
X54498500Y-2649100D02*
X121347000Y-2649100D01*
X21620000Y-50000000D02*
X21620000Y-34860900D01*
X128215100Y-9517100D02*
X128215100Y-10870400D01*
X21620000Y-34860900D02*
X50256900Y-6224000D01*
X21620000Y-50000000D02*
X21620000Y-34860900D01*
X121347000Y-2649100D02*
X128215000Y-9517100D01*
X50256900Y-6224000D02*
X50923600Y-6224000D01*
X128215000Y-10870400D02*
X125875000Y-13210400D01*
X54498500Y-2649100D02*
X121347100Y-2649100D01*
X50923600Y-6224000D02*
X54498500Y-2649100D01*
%TO.N,PA0*%
X70898300Y-39063199D02*
X71044100Y-38917400D01*
X72000000Y-52540000D02*
X72000000Y-51438300D01*
X71044100Y-20490299D02*
X78237900Y-13296500D01*
X70898300Y-39063199D02*
X71044100Y-38917400D01*
X71862200Y-51438300D02*
X70898300Y-50474400D01*
X71044100Y-20490299D02*
X78237900Y-13296500D01*
X70898300Y-50474400D02*
X70898300Y-39063199D01*
X71044100Y-38917400D02*
X71044100Y-20490299D01*
X72000000Y-52540000D02*
X72000000Y-51438300D01*
X72000000Y-51438300D02*
X71862200Y-51438300D01*
X70898300Y-50474400D02*
X70898300Y-39063199D01*
X72000000Y-51438300D02*
X71862200Y-51438300D01*
X71044100Y-38917400D02*
X71044100Y-20490299D01*
X71862200Y-51438300D02*
X70898300Y-50474400D01*
%TO.N,PA1*%
X80938100Y-15594299D02*
X72000000Y-24532400D01*
X80938100Y-15594299D02*
X72000000Y-24532400D01*
X72000000Y-24532400D02*
X72000000Y-50000000D01*
X72000000Y-24532400D02*
X72000000Y-50000000D01*
%TO.N,PA2*%
X74540000Y-52540000D02*
X73428699Y-51428700D01*
X73428699Y-51428700D02*
X73428699Y-24940900D01*
X73428699Y-24940900D02*
X81311000Y-17058600D01*
X73428699Y-24940900D02*
X81311000Y-17058600D01*
X73428699Y-51428700D02*
X73428699Y-24940900D01*
X74540000Y-52540000D02*
X73428699Y-51428700D01*
%TO.N,PA3*%
X96299600Y-14935799D02*
X94560399Y-16675000D01*
X95965800Y-14082799D02*
X96299600Y-14416600D01*
X74540000Y-50000000D02*
X74540000Y-31927900D01*
X74540000Y-50000000D02*
X74540000Y-31927900D01*
X96299600Y-14416600D02*
X96299600Y-14935799D01*
X74540000Y-31927900D02*
X92385100Y-14082799D01*
X94560399Y-16675000D02*
X92837800Y-16675000D01*
X92385100Y-14082799D02*
X95965800Y-14082799D01*
X74540000Y-31927900D02*
X92385100Y-14082799D01*
X95965800Y-14082799D02*
X96299600Y-14416600D01*
X96299600Y-14935799D02*
X94560399Y-16675000D01*
X92385100Y-14082799D02*
X95965800Y-14082799D01*
X94560399Y-16675000D02*
X92837800Y-16675000D01*
X96299600Y-14416600D02*
X96299600Y-14935799D01*
%TO.N,PA4*%
X77080000Y-52540000D02*
X75933900Y-51393900D01*
X75933900Y-51393900D02*
X75933900Y-31880599D01*
X75933900Y-31880599D02*
X89326500Y-18488000D01*
X75933900Y-51393900D02*
X75933900Y-31880599D01*
X75933900Y-31880599D02*
X89326500Y-18488000D01*
X77080000Y-52540000D02*
X75933900Y-51393900D01*
%TO.N,PA5*%
X77080000Y-50000000D02*
X77080000Y-32212400D01*
X77080000Y-50000000D02*
X77080000Y-32212400D01*
X77080000Y-32212400D02*
X90064800Y-19227600D01*
X77080000Y-32212400D02*
X90064800Y-19227600D01*
%TO.N,PA6*%
X91473000Y-20260000D02*
X78508699Y-33224300D01*
X91473000Y-20260000D02*
X78508699Y-33224300D01*
X78508699Y-51428700D02*
X79620000Y-52540000D01*
X78508699Y-51428700D02*
X79620000Y-52540000D01*
X91856800Y-20260000D02*
X91473000Y-20260000D01*
X78508699Y-33224300D02*
X78508699Y-51428700D01*
X78508699Y-33224300D02*
X78508699Y-51428700D01*
X91856800Y-20260000D02*
X91473000Y-20260000D01*
%TO.N,PA7*%
X90108500Y-46536800D02*
X92850600Y-43794700D01*
X92850600Y-43794700D02*
X92850600Y-19859800D01*
X90108500Y-46536800D02*
X92850600Y-43794700D01*
X92850600Y-43794700D02*
X92850600Y-19859800D01*
%TO.N,STROBE_n*%
X83343500Y-53723500D02*
X92723900Y-53723500D01*
X105278200Y-41216900D02*
X105278200Y-23055700D01*
X83343500Y-53723500D02*
X92723900Y-53723500D01*
X92723900Y-53723500D02*
X93421700Y-53025700D01*
X93421700Y-53025700D02*
X93421700Y-52352599D01*
X108639100Y-19694800D02*
X108639100Y-14116900D01*
X108639000Y-19694800D02*
X108639000Y-14116900D01*
X95225100Y-51270000D02*
X105278000Y-41216900D01*
X93421700Y-52352599D02*
X94504300Y-51270000D01*
X82160000Y-52540000D02*
X83343500Y-53723500D01*
X105278000Y-23055700D02*
X108639000Y-19694800D01*
X105278200Y-23055700D02*
X108639100Y-19694800D01*
X93421700Y-53025700D02*
X93421700Y-52352599D01*
X82160000Y-52540000D02*
X83343500Y-53723500D01*
X95225100Y-51270000D02*
X105278200Y-41216900D01*
X94504300Y-51270000D02*
X95225100Y-51270000D01*
X94504300Y-51270000D02*
X95225100Y-51270000D01*
X105278000Y-41216900D02*
X105278000Y-23055700D01*
X93421700Y-52352599D02*
X94504300Y-51270000D01*
X92723900Y-53723500D02*
X93421700Y-53025700D01*
%TO.N,ACK*%
X105740200Y-19360100D02*
X105740200Y-15807400D01*
X104528200Y-20572100D02*
X105740200Y-19360100D01*
X104528200Y-38790800D02*
X104528200Y-20572100D01*
X104528000Y-38790800D02*
X104528000Y-20572100D01*
X96548400Y-46770600D02*
X104528000Y-38790800D01*
X105740000Y-19360100D02*
X105740000Y-15807400D01*
X104528000Y-20572100D02*
X105740000Y-19360100D01*
X96548400Y-46770600D02*
X104528200Y-38790800D01*
%TO.N,TAPE_OUT_3V3*%
X83553500Y-51393500D02*
X83553500Y-32306300D01*
X42795000Y-22491000D02*
X36907800Y-22491000D01*
X51009400Y-30705400D02*
X42795000Y-22491000D01*
X84700000Y-52540000D02*
X83553500Y-51393500D01*
X51009400Y-32076099D02*
X51009400Y-30705400D01*
X42795000Y-22491000D02*
X36907800Y-22491000D01*
X83553500Y-51393500D02*
X83553500Y-32306300D01*
X51009400Y-30705400D02*
X42795000Y-22491000D01*
X84700000Y-52540000D02*
X83553500Y-51393500D01*
X83553500Y-32306300D02*
X83132600Y-31885400D01*
X83553500Y-32306300D02*
X83132600Y-31885400D01*
X51009400Y-32076099D02*
X51009400Y-30705400D01*
%TO.N,MOTOR_3V3*%
X82421900Y-30394500D02*
X82152300Y-30394500D01*
X84700000Y-32672599D02*
X82421900Y-30394500D01*
X84700000Y-50000000D02*
X84700000Y-32672599D01*
X82421900Y-30394500D02*
X82152300Y-30394500D01*
X84700000Y-32672599D02*
X82421900Y-30394500D01*
X84700000Y-50000000D02*
X84700000Y-32672599D01*
%TO.N,TAPE_IN_3V3*%
X88677100Y-51102900D02*
X87240000Y-52540000D01*
X88677100Y-51102900D02*
X87240000Y-52540000D01*
X90564500Y-21948600D02*
X88677100Y-23836000D01*
X90564500Y-21948600D02*
X88677100Y-23836000D01*
X88677100Y-23836000D02*
X88677100Y-51102900D01*
X88677100Y-23836000D02*
X88677100Y-51102900D01*
%TO.N,A5V0*%
X135771500Y-24111000D02*
X135771500Y-24959400D01*
X135772000Y-24111000D02*
X135772000Y-24959400D01*
X135772000Y-24959400D02*
X136238000Y-25425800D01*
X136237900Y-25425800D02*
X137843500Y-25425800D01*
X139962500Y-19920000D02*
X135771500Y-24111000D01*
X135771500Y-24959400D02*
X136237900Y-25425800D01*
X136238000Y-25425800D02*
X137844000Y-25425800D01*
X154950000Y-19920000D02*
X139962000Y-19920000D01*
X154950000Y-19920000D02*
X139962500Y-19920000D01*
X139962000Y-19920000D02*
X135772000Y-24111000D01*
%TO.N,A5V1*%
X139285000Y-22162400D02*
X136777000Y-24670400D01*
X151763300Y-22162400D02*
X139285000Y-22162400D01*
X154950000Y-22460000D02*
X154950000Y-23511700D01*
X153112600Y-23511700D02*
X151763300Y-22162400D01*
X154950000Y-23511700D02*
X153113000Y-23511700D01*
X136777000Y-24670400D02*
X136323000Y-24670400D01*
X154950000Y-22460000D02*
X154950000Y-23511700D01*
X139285000Y-22162400D02*
X136777000Y-24670400D01*
X151763000Y-22162400D02*
X139285000Y-22162400D01*
X153113000Y-23511700D02*
X151763000Y-22162400D01*
X154950000Y-23511700D02*
X153112600Y-23511700D01*
X136777000Y-24670400D02*
X136323300Y-24670400D01*
%TO.N,A5V2*%
X153698300Y-25000000D02*
X153698300Y-24637700D01*
X154950000Y-25000000D02*
X153698000Y-25000000D01*
X153698300Y-24637700D02*
X153163700Y-24103099D01*
X153698000Y-25000000D02*
X153698000Y-24637700D01*
X153698000Y-24637700D02*
X153164000Y-24103099D01*
X154950000Y-25000000D02*
X153698300Y-25000000D01*
%TO.N,A5V3*%
X140924200Y-17380000D02*
X131162299Y-27141900D01*
X154950000Y-17380000D02*
X140924000Y-17380000D01*
X140924000Y-17380000D02*
X131162000Y-27141900D01*
X154950000Y-17380000D02*
X140924200Y-17380000D01*
X131162000Y-27141900D02*
X131162000Y-27461700D01*
X131162299Y-27141900D02*
X131162299Y-27461700D01*
%TO.N,A5V5*%
X154950000Y-30080000D02*
X153698000Y-30080000D01*
X152655100Y-29036800D02*
X133903799Y-29036800D01*
X153698300Y-30080000D02*
X152655100Y-29036800D01*
X152655000Y-29036800D02*
X133904000Y-29036800D01*
X154950000Y-30080000D02*
X153698300Y-30080000D01*
X153698000Y-30080000D02*
X152655000Y-29036800D01*
%TO.N,A5V6*%
X152540000Y-31568300D02*
X150822000Y-29850500D01*
X154950000Y-31568300D02*
X152540000Y-31568300D01*
X154950000Y-32619999D02*
X154950000Y-31568300D01*
X152540300Y-31568300D02*
X150822500Y-29850500D01*
X154950000Y-32619999D02*
X154950000Y-31568300D01*
X154950000Y-31568300D02*
X152540300Y-31568300D01*
%TO.N,A5V7*%
X154239000Y-34108300D02*
X152856000Y-32725299D01*
X152856000Y-32725299D02*
X152856000Y-32386400D01*
X154238900Y-34108300D02*
X152855900Y-32725299D01*
X154950000Y-34108300D02*
X154238900Y-34108300D01*
X154950000Y-35160000D02*
X154950000Y-34108300D01*
X152855900Y-32725299D02*
X152855900Y-32386400D01*
X154950000Y-35160000D02*
X154950000Y-34108300D01*
X154950000Y-34108300D02*
X154239000Y-34108300D01*
%TO.N,A5V8*%
X153275000Y-37700000D02*
X154950000Y-37700000D01*
X152312600Y-36535400D02*
X152312600Y-36737800D01*
X152312600Y-36737800D02*
X153274800Y-37700000D01*
X152313000Y-36737800D02*
X153275000Y-37700000D01*
X152313000Y-36535400D02*
X152313000Y-36737800D01*
X153274800Y-37700000D02*
X154950000Y-37700000D01*
%TO.N,A5V9*%
X154950000Y-40240000D02*
X154950000Y-39188300D01*
X153898299Y-39188300D02*
X149710600Y-35000600D01*
X149710600Y-35000600D02*
X131163899Y-35000600D01*
X149711000Y-35000600D02*
X131163999Y-35000600D01*
X154950000Y-39188300D02*
X153898000Y-39188300D01*
X154950000Y-39188300D02*
X153898299Y-39188300D01*
X153898000Y-39188300D02*
X149711000Y-35000600D01*
X154950000Y-40240000D02*
X154950000Y-39188300D01*
%TO.N,A5V10*%
X148732000Y-35760600D02*
X131401999Y-35760600D01*
X154950000Y-42780000D02*
X154950000Y-41728300D01*
X153698000Y-40726600D02*
X148732000Y-35760600D01*
X153698300Y-40726600D02*
X148732299Y-35760600D01*
X154950000Y-41728300D02*
X154199000Y-41728300D01*
X153698300Y-41227700D02*
X153698300Y-40726600D01*
X154198899Y-41728300D02*
X153698300Y-41227700D01*
X154950000Y-41728300D02*
X154198899Y-41728300D01*
X153698000Y-41227700D02*
X153698000Y-40726600D01*
X154199000Y-41728300D02*
X153698000Y-41227700D01*
X154950000Y-42780000D02*
X154950000Y-41728300D01*
X148732299Y-35760600D02*
X131402300Y-35760600D01*
%TO.N,A5V12*%
X133435000Y-40584300D02*
X135161000Y-40584300D01*
X131461899Y-38611300D02*
X133434900Y-40584300D01*
X131461999Y-38611300D02*
X133435000Y-40584300D01*
X133434900Y-40584300D02*
X135160900Y-40584300D01*
%TO.N,A5V13*%
X153475000Y-34599100D02*
X153475000Y-37120300D01*
X127067700Y-35680699D02*
X128447300Y-37060300D01*
X151527000Y-32650799D02*
X153475000Y-34599100D01*
X127068000Y-33105500D02*
X127068000Y-35680699D01*
X127067700Y-33105500D02*
X127067700Y-35680699D01*
X151526899Y-32650799D02*
X153475200Y-34599100D01*
X153475200Y-34599100D02*
X153475200Y-37120300D01*
X127270000Y-32903200D02*
X127068000Y-33105500D01*
X127068000Y-35680699D02*
X128447000Y-37060300D01*
X127270000Y-32903200D02*
X127067700Y-33105500D01*
%TO.N,D5V2*%
X133497899Y-8971100D02*
X132972299Y-9496700D01*
X132972299Y-12963700D02*
X127999699Y-17936300D01*
X133497999Y-8971100D02*
X132972000Y-9496700D01*
X139823700Y-14840000D02*
X133954799Y-8971100D01*
X132972000Y-9496700D02*
X132972000Y-12963700D01*
X132972299Y-9496700D02*
X132972299Y-12963700D01*
X154950000Y-14840000D02*
X139824000Y-14840000D01*
X139824000Y-14840000D02*
X133955000Y-8971100D01*
X133955000Y-8971100D02*
X133497999Y-8971100D01*
X154950000Y-14840000D02*
X139823700Y-14840000D01*
X132972000Y-12963700D02*
X128000000Y-17936300D01*
X133954799Y-8971100D02*
X133497899Y-8971100D01*
%TO.N,D5V5*%
X151505299Y-22714200D02*
X151505299Y-23714500D01*
X154279100Y-26488300D02*
X154950000Y-26488300D01*
X151505299Y-23714500D02*
X154279100Y-26488300D01*
X154950000Y-27540000D02*
X154950000Y-26488300D01*
X154279000Y-26488300D02*
X151505000Y-23714500D01*
X154950000Y-26488300D02*
X154279000Y-26488300D01*
X151505000Y-23714500D02*
X151505000Y-22714200D01*
X154950000Y-27540000D02*
X154950000Y-26488300D01*
%TO.N,D5V6*%
X139710000Y-20956700D02*
X137571000Y-23096100D01*
X140163000Y-20956700D02*
X139710000Y-20956700D01*
X139710500Y-20956700D02*
X137571100Y-23096100D01*
X140162799Y-20956700D02*
X139710500Y-20956700D01*
%TO.N,D5V7*%
X135246200Y-24954300D02*
X138778500Y-28486600D01*
X135246200Y-23838099D02*
X135246200Y-24954300D01*
X153356600Y-28486600D02*
X153708900Y-28838900D01*
X135246000Y-23838099D02*
X135246000Y-24954300D01*
X138778000Y-28486600D02*
X153357000Y-28486600D01*
X138778500Y-28486600D02*
X153356600Y-28486600D01*
X153357000Y-28486600D02*
X153709000Y-28838900D01*
X135246000Y-24954300D02*
X138778000Y-28486600D01*
%TO.N,RW5*%
X153124700Y-14125300D02*
X153898299Y-13351700D01*
X154950000Y-12300000D02*
X154950000Y-13351700D01*
X134693200Y-7516200D02*
X141302300Y-14125300D01*
X153898299Y-13351700D02*
X154950000Y-13351700D01*
X141302300Y-14125300D02*
X153124700Y-14125300D01*
%TO.N,PHI2_5*%
X154950000Y-7220000D02*
X152478200Y-7220000D01*
X152478200Y-7220000D02*
X152405500Y-7147300D01*
%TO.N,IO5_n*%
X154950000Y-9760000D02*
X141873400Y-9760000D01*
X136637000Y-4523600D02*
X135864000Y-4523600D01*
X135864000Y-4523600D02*
X131144399Y-9243200D01*
X141873400Y-9760000D02*
X136637000Y-4523600D01*
%TO.N,ROMDIS5_n*%
X131752899Y-9615000D02*
X131752899Y-12575000D01*
X136287900Y-5080000D02*
X131752899Y-9615000D01*
%TO.N,MAP5_n*%
X154950000Y-4680000D02*
X139781200Y-4680000D01*
X130592600Y-8969600D02*
X130592600Y-11456000D01*
X135406799Y-4155399D02*
X130592600Y-8969600D01*
X130592600Y-11456000D02*
X131198299Y-12061700D01*
X139781200Y-4680000D02*
X139256600Y-4155399D01*
X139256600Y-4155399D02*
X135406799Y-4155399D01*
%TO.N,IOCTL5_n*%
X151977100Y-13116900D02*
X151977100Y-13543600D01*
X154064000Y-11030000D02*
X151977100Y-13116900D01*
%TO.N,PRN_D0*%
X89536400Y-5938300D02*
X90181699Y-6583600D01*
X95424600Y-12451400D02*
X96627400Y-12451400D01*
X89536400Y-5938300D02*
X90181699Y-6583600D01*
X90181699Y-7208500D02*
X95424600Y-12451400D01*
X87641700Y-5938300D02*
X89536400Y-5938300D01*
X87641700Y-5938300D02*
X89536400Y-5938300D01*
X86540000Y-7040000D02*
X87641700Y-5938300D01*
X90181699Y-7208500D02*
X95424600Y-12451400D01*
X90181699Y-6583600D02*
X90181699Y-7208500D01*
X86540000Y-7040000D02*
X87641700Y-5938300D01*
X90181699Y-6583600D02*
X90181699Y-7208500D01*
X95424600Y-12451400D02*
X96627400Y-12451400D01*
%TO.N,PRN_D1*%
X89080000Y-7928600D02*
X89080000Y-7040000D01*
X89080000Y-7928600D02*
X89080000Y-7040000D01*
X93192000Y-12040600D02*
X89080000Y-7928600D01*
X93192000Y-12040600D02*
X89080000Y-7928600D01*
%TO.N,PRN_D2*%
X92060500Y-7040000D02*
X98192100Y-13171600D01*
X91620000Y-7040000D02*
X92060500Y-7040000D01*
X91620000Y-7040000D02*
X92060500Y-7040000D01*
X98192100Y-13171600D02*
X98192100Y-16305299D01*
X92060500Y-7040000D02*
X98192100Y-13171600D01*
X98192100Y-13171600D02*
X98192100Y-16305299D01*
%TO.N,PRN_D3*%
X99819300Y-14904399D02*
X101118200Y-16203299D01*
X99819300Y-14904399D02*
X101118000Y-16203299D01*
X99819300Y-8851200D02*
X99819300Y-14904399D01*
X99819300Y-8851200D02*
X99819300Y-14904399D01*
%TO.N,PRN_D4*%
X98033300Y-17250600D02*
X97723700Y-17250600D01*
X97723700Y-17250600D02*
X97723700Y-17250700D01*
X97723700Y-17250600D02*
X97723700Y-17250700D01*
X98792500Y-16491400D02*
X98033300Y-17250600D01*
X98792500Y-9132500D02*
X98792500Y-16491400D01*
X98792500Y-16491400D02*
X98033300Y-17250600D01*
X96700000Y-7040000D02*
X98792500Y-9132500D01*
X96700000Y-7040000D02*
X98792500Y-9132500D01*
X98033300Y-17250600D02*
X97723700Y-17250600D01*
X98792500Y-9132500D02*
X98792500Y-16491400D01*
%TO.N,PRN_D5*%
X99240000Y-16904900D02*
X99240000Y-7040000D01*
X98235199Y-17909700D02*
X99240000Y-16904900D01*
X98235199Y-17909700D02*
X99240000Y-16904900D01*
X99240000Y-16904900D02*
X99240000Y-7040000D01*
%TO.N,PRN_D6*%
X101924000Y-18336700D02*
X101780000Y-18192300D01*
X101780000Y-18192300D02*
X101780000Y-7040000D01*
X101924399Y-18336700D02*
X101780000Y-18192300D01*
X101780000Y-18192300D02*
X101780000Y-7040000D01*
%TO.N,PRN_D7*%
X104728000Y-19126200D02*
X104728000Y-7448000D01*
X104728000Y-7448000D02*
X104320000Y-7040000D01*
X104728000Y-7448000D02*
X104320000Y-7040000D01*
X104728000Y-19126200D02*
X104728000Y-7448000D01*
%TO.N,PRN_STB_n*%
X90181699Y-4043599D02*
X90181699Y-4695800D01*
X85101700Y-7040000D02*
X85101700Y-6902300D01*
X105590000Y-7889100D02*
X110980000Y-13279100D01*
X90181699Y-4695800D02*
X91395200Y-5909300D01*
X90181699Y-4695800D02*
X91395200Y-5909300D01*
X105590000Y-6725700D02*
X105590000Y-7889100D01*
X85101700Y-7040000D02*
X85101700Y-6902300D01*
X87978300Y-4677000D02*
X87978300Y-4043699D01*
X85101700Y-6902300D02*
X86271800Y-5732200D01*
X104773600Y-5909300D02*
X105590000Y-6725700D01*
X89536400Y-3398300D02*
X90181699Y-4043599D01*
X86923100Y-5732200D02*
X87978300Y-4677000D01*
X88623700Y-3398300D02*
X89536400Y-3398300D01*
X91395200Y-5909300D02*
X104773600Y-5909300D01*
X104774000Y-5909300D02*
X105590000Y-6725700D01*
X87978300Y-4043699D02*
X88623700Y-3398300D01*
X84000000Y-7040000D02*
X85101700Y-7040000D01*
X86271800Y-5732200D02*
X86923100Y-5732200D01*
X86271800Y-5732200D02*
X86923100Y-5732200D01*
X91395200Y-5909300D02*
X104774000Y-5909300D01*
X85101700Y-6902300D02*
X86271800Y-5732200D01*
X86923100Y-5732200D02*
X87978300Y-4677000D01*
X87978300Y-4043699D02*
X88623700Y-3398300D01*
X105590000Y-6725700D02*
X105590000Y-7889100D01*
X89536400Y-3398300D02*
X90181699Y-4043599D01*
X88623700Y-3398300D02*
X89536400Y-3398300D01*
X105590000Y-7889100D02*
X110980000Y-13279100D01*
X87978300Y-4677000D02*
X87978300Y-4043699D01*
X90181699Y-4043599D02*
X90181699Y-4695800D01*
X84000000Y-7040000D02*
X85101700Y-7040000D01*
%TO.N,PRN_ACK*%
X111546000Y-15352500D02*
X111546000Y-11725900D01*
X111546000Y-11725900D02*
X106860000Y-7040000D01*
X111545899Y-15352500D02*
X111545899Y-11725900D01*
X110884000Y-16013900D02*
X111546000Y-15352500D01*
X110884500Y-16013900D02*
X111545899Y-15352500D01*
X111545899Y-11725900D02*
X106860000Y-7040000D01*
%TO.N,SOUND*%
X36931700Y-5000000D02*
X48000000Y-5000000D01*
X35010100Y-6921600D02*
X36931700Y-5000000D01*
X36474900Y-12474900D02*
X35010100Y-11010100D01*
X36931700Y-5000000D02*
X48000000Y-5000000D01*
X35010100Y-11010100D02*
X35010100Y-6921600D01*
X36474900Y-12474900D02*
X35010100Y-11010100D01*
X35010100Y-6921600D02*
X36931700Y-5000000D01*
X35010100Y-11010100D02*
X35010100Y-6921600D01*
%TO.N,MOTOR_A*%
X36474900Y-7525100D02*
X37115100Y-7525100D01*
X37115100Y-7525100D02*
X38996700Y-9406700D01*
X38996700Y-9406700D02*
X38996700Y-13163300D01*
X38996700Y-9406700D02*
X38996700Y-13163300D01*
X36474900Y-7525100D02*
X37115100Y-7525100D01*
X37115100Y-7525100D02*
X38996700Y-9406700D01*
X38996700Y-13163300D02*
X28620000Y-23540000D01*
X38996700Y-13163300D02*
X28620000Y-23540000D01*
%TO.N,MOTOR_B*%
X28620000Y-9758899D02*
X28620000Y-21000000D01*
X31525100Y-7525100D02*
X30853800Y-7525100D01*
X28620000Y-9758899D02*
X28620000Y-21000000D01*
X30853800Y-7525100D02*
X28620000Y-9758899D01*
X30853800Y-7525100D02*
X28620000Y-9758899D01*
X31525100Y-7525100D02*
X30853800Y-7525100D01*
%TD*%
%TA.AperFunction,Conductor*%
%TO.N,GND*%
G36*
X7892539Y-419685D02*
G01*
X7938294Y-472489D01*
X7949500Y-524000D01*
X7949500Y-3894856D01*
X7949502Y-3894882D01*
X7952413Y-3919987D01*
X7952415Y-3919991D01*
X7997793Y-4022764D01*
X7997794Y-4022765D01*
X8077235Y-4102206D01*
X8180009Y-4147585D01*
X8205135Y-4150500D01*
X11794864Y-4150499D01*
X11794879Y-4150497D01*
X11794882Y-4150497D01*
X11819987Y-4147586D01*
X11819988Y-4147585D01*
X11819991Y-4147585D01*
X11922765Y-4102206D01*
X12002206Y-4022765D01*
X12047585Y-3919991D01*
X12050500Y-3894865D01*
X12050499Y-523999D01*
X12070184Y-456961D01*
X12122988Y-411206D01*
X12174499Y-400000D01*
X152376000Y-400000D01*
X152443039Y-419685D01*
X152488794Y-472489D01*
X152500000Y-524000D01*
X152500000Y-4155500D01*
X152480315Y-4222539D01*
X152427511Y-4268294D01*
X152376000Y-4279500D01*
X139998455Y-4279500D01*
X139931416Y-4259815D01*
X139910774Y-4243181D01*
X139502515Y-3834921D01*
X139502514Y-3834920D01*
X139502513Y-3834919D01*
X139438203Y-3797789D01*
X139411189Y-3782192D01*
X139360257Y-3768545D01*
X139309327Y-3754899D01*
X135459526Y-3754899D01*
X135354072Y-3754899D01*
X135252209Y-3782192D01*
X135160886Y-3834919D01*
X135160883Y-3834921D01*
X130272122Y-8723684D01*
X130272120Y-8723687D01*
X130219393Y-8815011D01*
X130200215Y-8886587D01*
X130192100Y-8916871D01*
X130192100Y-8916873D01*
X130192100Y-11508727D01*
X130219393Y-11610587D01*
X130264341Y-11688440D01*
X130272121Y-11701914D01*
X130353752Y-11783545D01*
X130353758Y-11783550D01*
X130561480Y-11991272D01*
X130594965Y-12052595D01*
X130597799Y-12078953D01*
X130597799Y-12140757D01*
X130633069Y-12272384D01*
X130638722Y-12293483D01*
X130638725Y-12293490D01*
X130717774Y-12430409D01*
X130717778Y-12430414D01*
X130717779Y-12430416D01*
X130829583Y-12542220D01*
X130829585Y-12542221D01*
X130829589Y-12542224D01*
X130966508Y-12621273D01*
X130966515Y-12621277D01*
X131088163Y-12653872D01*
X131147822Y-12690236D01*
X131175842Y-12741550D01*
X131190920Y-12797821D01*
X131193323Y-12806786D01*
X131193325Y-12806790D01*
X131272374Y-12943709D01*
X131272378Y-12943714D01*
X131272379Y-12943716D01*
X131384183Y-13055520D01*
X131384185Y-13055521D01*
X131384189Y-13055524D01*
X131479538Y-13110573D01*
X131521115Y-13134577D01*
X131673842Y-13175500D01*
X131673844Y-13175500D01*
X131831953Y-13175500D01*
X131831956Y-13175500D01*
X131879364Y-13162797D01*
X131949211Y-13164460D01*
X132007074Y-13203622D01*
X132034578Y-13267850D01*
X132022992Y-13336753D01*
X131999142Y-13370248D01*
X130219319Y-15150287D01*
X130219313Y-15150292D01*
X128070125Y-17299481D01*
X128008802Y-17332966D01*
X127982444Y-17335800D01*
X127920642Y-17335800D01*
X127767915Y-17376723D01*
X127767908Y-17376726D01*
X127630989Y-17455775D01*
X127630981Y-17455781D01*
X127519180Y-17567582D01*
X127519174Y-17567590D01*
X127440125Y-17704509D01*
X127440122Y-17704516D01*
X127399199Y-17857243D01*
X127399199Y-18015357D01*
X127439825Y-18166973D01*
X127440122Y-18168083D01*
X127440125Y-18168090D01*
X127519174Y-18305009D01*
X127519178Y-18305014D01*
X127519179Y-18305016D01*
X127630983Y-18416820D01*
X127630985Y-18416821D01*
X127630989Y-18416824D01*
X127738884Y-18479116D01*
X127767915Y-18495877D01*
X127920642Y-18536800D01*
X127920644Y-18536800D01*
X128079055Y-18536800D01*
X128079057Y-18536800D01*
X128231784Y-18495877D01*
X128368716Y-18416820D01*
X128480520Y-18305016D01*
X128559577Y-18168084D01*
X128600500Y-18015357D01*
X128600500Y-17953512D01*
X128620185Y-17886473D01*
X128636810Y-17865839D01*
X130776685Y-15725707D01*
X132963819Y-13538573D01*
X133025142Y-13505088D01*
X133094834Y-13510072D01*
X133150767Y-13551944D01*
X133175184Y-13617408D01*
X133175500Y-13626254D01*
X133175500Y-18106213D01*
X133155815Y-18173252D01*
X133139181Y-18193894D01*
X130721491Y-20611583D01*
X130721489Y-20611585D01*
X130664217Y-20710787D01*
X130664215Y-20710790D01*
X130649017Y-20737112D01*
X130649016Y-20737114D01*
X130649016Y-20737115D01*
X130611500Y-20877125D01*
X130611500Y-20877127D01*
X130611500Y-25340066D01*
X130591815Y-25407105D01*
X130575194Y-25427735D01*
X130253355Y-25749665D01*
X130065304Y-25937769D01*
X130015490Y-25987584D01*
X130015470Y-25987617D01*
X130015442Y-25987646D01*
X130015219Y-25988031D01*
X130015218Y-25988033D01*
X129994209Y-26024435D01*
X129978246Y-26052092D01*
X129943015Y-26113114D01*
X129943004Y-26113151D01*
X129942985Y-26113186D01*
X129942816Y-26113816D01*
X129942814Y-26113820D01*
X129924408Y-26182553D01*
X129924404Y-26182569D01*
X129905498Y-26253127D01*
X129905489Y-26253197D01*
X129905499Y-26322224D01*
X129905499Y-33883500D01*
X129885814Y-33950539D01*
X129833010Y-33996294D01*
X129781499Y-34007500D01*
X127898363Y-34007500D01*
X127859820Y-33999834D01*
X127859635Y-34000527D01*
X127851785Y-33998423D01*
X127851784Y-33998423D01*
X127699057Y-33957500D01*
X127698557Y-33957500D01*
X127592500Y-33957500D01*
X127525461Y-33937815D01*
X127479706Y-33885011D01*
X127468500Y-33833500D01*
X127468500Y-33553585D01*
X127488185Y-33486546D01*
X127530499Y-33446197D01*
X127638716Y-33383720D01*
X127750520Y-33271916D01*
X127829577Y-33134984D01*
X127870500Y-32982257D01*
X127870500Y-32824143D01*
X127829577Y-32671416D01*
X127808942Y-32635674D01*
X127750524Y-32534490D01*
X127750518Y-32534482D01*
X127638717Y-32422681D01*
X127638709Y-32422675D01*
X127501790Y-32343626D01*
X127501786Y-32343624D01*
X127501784Y-32343623D01*
X127349057Y-32302700D01*
X127190943Y-32302700D01*
X127038216Y-32343623D01*
X127038209Y-32343626D01*
X126901290Y-32422675D01*
X126901282Y-32422681D01*
X126789481Y-32534482D01*
X126789475Y-32534490D01*
X126710426Y-32671409D01*
X126710423Y-32671416D01*
X126669500Y-32824143D01*
X126669500Y-32982255D01*
X126670561Y-32990313D01*
X126669197Y-32990492D01*
X126669198Y-33045312D01*
X126667201Y-33052765D01*
X126667200Y-33052773D01*
X126667200Y-35733425D01*
X126694493Y-35835288D01*
X126719118Y-35877939D01*
X126747220Y-35926612D01*
X127475372Y-36654765D01*
X127475384Y-36654788D01*
X127475390Y-36654783D01*
X127801710Y-36981245D01*
X127810200Y-36989738D01*
X127843672Y-37051068D01*
X127846500Y-37077400D01*
X127846500Y-37139357D01*
X127880190Y-37265088D01*
X127887423Y-37292083D01*
X127887426Y-37292090D01*
X127966475Y-37429009D01*
X127966479Y-37429014D01*
X127966480Y-37429016D01*
X128078284Y-37540820D01*
X128078286Y-37540821D01*
X128078290Y-37540824D01*
X128215209Y-37619873D01*
X128215216Y-37619877D01*
X128367943Y-37660800D01*
X128367945Y-37660800D01*
X128526355Y-37660800D01*
X128526357Y-37660800D01*
X128679084Y-37619877D01*
X128816016Y-37540820D01*
X128927820Y-37429016D01*
X129006877Y-37292084D01*
X129047800Y-37139357D01*
X129047800Y-36981243D01*
X129006877Y-36828516D01*
X128955011Y-36738680D01*
X128927824Y-36691590D01*
X128927818Y-36691582D01*
X128816017Y-36579781D01*
X128816009Y-36579775D01*
X128679090Y-36500726D01*
X128679086Y-36500724D01*
X128679084Y-36500723D01*
X128526357Y-36459800D01*
X128526356Y-36459800D01*
X128464554Y-36459800D01*
X128397515Y-36440115D01*
X128376873Y-36423481D01*
X128210409Y-36257017D01*
X128039606Y-36086213D01*
X127877119Y-35923655D01*
X127504800Y-35551173D01*
X127490107Y-35524251D01*
X127473523Y-35498446D01*
X127472628Y-35492226D01*
X127471328Y-35489843D01*
X127468500Y-35463511D01*
X127468500Y-35282500D01*
X127488185Y-35215461D01*
X127540989Y-35169706D01*
X127592500Y-35158500D01*
X127699055Y-35158500D01*
X127699057Y-35158500D01*
X127851784Y-35117577D01*
X127851785Y-35117576D01*
X127859635Y-35115473D01*
X127859820Y-35116165D01*
X127898363Y-35108500D01*
X129781499Y-35108500D01*
X129848538Y-35128185D01*
X129894293Y-35180989D01*
X129905499Y-35232500D01*
X129905499Y-35888274D01*
X129924551Y-35959378D01*
X129943011Y-36028278D01*
X130015486Y-36153811D01*
X130015489Y-36153814D01*
X130015490Y-36153815D01*
X130036586Y-36174911D01*
X131482996Y-37621357D01*
X131666499Y-37804864D01*
X131699984Y-37866187D01*
X131694998Y-37935879D01*
X131653126Y-37991812D01*
X131587662Y-38016228D01*
X131546725Y-38012319D01*
X131541057Y-38010800D01*
X131541056Y-38010800D01*
X131540956Y-38010800D01*
X131382842Y-38010800D01*
X131230115Y-38051723D01*
X131230108Y-38051726D01*
X131093189Y-38130775D01*
X131093181Y-38130781D01*
X130981380Y-38242582D01*
X130981374Y-38242590D01*
X130902325Y-38379509D01*
X130902322Y-38379516D01*
X130861399Y-38532243D01*
X130861399Y-38690357D01*
X130897477Y-38825000D01*
X130902322Y-38843083D01*
X130902325Y-38843090D01*
X130981374Y-38980009D01*
X130981378Y-38980014D01*
X130981379Y-38980016D01*
X131093183Y-39091820D01*
X131093185Y-39091821D01*
X131093189Y-39091824D01*
X131227588Y-39169418D01*
X131230115Y-39170877D01*
X131382842Y-39211800D01*
X131382942Y-39211800D01*
X131444644Y-39211800D01*
X131511683Y-39231485D01*
X131532325Y-39248119D01*
X132361654Y-40077447D01*
X133188987Y-40904780D01*
X133280312Y-40957507D01*
X133382173Y-40984800D01*
X133382273Y-40984800D01*
X133487727Y-40984800D01*
X134660802Y-40984800D01*
X134727841Y-41004485D01*
X134748483Y-41021119D01*
X134792184Y-41064820D01*
X134792186Y-41064821D01*
X134792190Y-41064824D01*
X134900057Y-41127100D01*
X134929116Y-41143877D01*
X135081843Y-41184800D01*
X135081845Y-41184800D01*
X135240055Y-41184800D01*
X135240057Y-41184800D01*
X135392784Y-41143877D01*
X135529716Y-41064820D01*
X135641520Y-40953016D01*
X135720577Y-40816084D01*
X135761500Y-40663357D01*
X135761500Y-40505243D01*
X135761500Y-40504400D01*
X135781185Y-40437361D01*
X135833989Y-40391606D01*
X135885500Y-40380400D01*
X151299500Y-40380400D01*
X151366539Y-40400085D01*
X151412294Y-40452889D01*
X151423500Y-40504400D01*
X151423500Y-42183100D01*
X151423498Y-42266659D01*
X151423500Y-42266666D01*
X151423500Y-42266674D01*
X151424484Y-42270349D01*
X151424485Y-42270352D01*
X151437061Y-42317283D01*
X151437062Y-42317290D01*
X151461007Y-42406662D01*
X151461016Y-42406685D01*
X151490292Y-42457391D01*
X151490293Y-42457395D01*
X151490294Y-42457395D01*
X151533483Y-42532205D01*
X151533488Y-42532212D01*
X151567173Y-42565896D01*
X151567175Y-42565901D01*
X151567177Y-42565900D01*
X152376981Y-43375747D01*
X152463684Y-43462454D01*
X152497167Y-43523778D01*
X152500000Y-43550133D01*
X152500000Y-55476000D01*
X152480315Y-55543039D01*
X152427511Y-55588794D01*
X152376000Y-55600000D01*
X100007655Y-55600000D01*
X99940616Y-55580315D01*
X99894861Y-55527511D01*
X99884917Y-55458353D01*
X99913942Y-55394797D01*
X99919974Y-55388319D01*
X100736649Y-54571643D01*
X107080400Y-54571643D01*
X107080400Y-54729757D01*
X107105976Y-54825206D01*
X107121323Y-54882483D01*
X107121326Y-54882490D01*
X107200375Y-55019409D01*
X107200379Y-55019414D01*
X107200380Y-55019416D01*
X107312184Y-55131220D01*
X107312186Y-55131221D01*
X107312190Y-55131224D01*
X107449109Y-55210273D01*
X107449116Y-55210277D01*
X107601843Y-55251200D01*
X107601845Y-55251200D01*
X107760055Y-55251200D01*
X107760057Y-55251200D01*
X107912784Y-55210277D01*
X108049716Y-55131220D01*
X108161520Y-55019416D01*
X108240577Y-54882484D01*
X108281500Y-54729757D01*
X108281500Y-54667962D01*
X108301185Y-54600923D01*
X108317816Y-54580284D01*
X111313129Y-51585043D01*
X118891000Y-51585043D01*
X118891000Y-51743157D01*
X118919528Y-51849623D01*
X118931923Y-51895883D01*
X118931926Y-51895890D01*
X119010975Y-52032809D01*
X119010979Y-52032814D01*
X119010980Y-52032816D01*
X119122784Y-52144620D01*
X119122786Y-52144621D01*
X119122790Y-52144624D01*
X119259709Y-52223673D01*
X119259716Y-52223677D01*
X119412443Y-52264600D01*
X119412445Y-52264600D01*
X119571055Y-52264600D01*
X119571057Y-52264600D01*
X119723784Y-52223677D01*
X119860716Y-52144620D01*
X119972520Y-52032816D01*
X120051577Y-51895884D01*
X120092500Y-51743157D01*
X120092500Y-51681320D01*
X120112185Y-51614281D01*
X120128812Y-51593646D01*
X125099108Y-46622884D01*
X126110803Y-45611187D01*
X126110808Y-45611184D01*
X126121011Y-45600980D01*
X126121013Y-45600980D01*
X126195580Y-45526413D01*
X126248307Y-45435087D01*
X126257930Y-45399173D01*
X126275601Y-45333227D01*
X126275601Y-45227773D01*
X126275600Y-45227769D01*
X126275600Y-19210998D01*
X126295285Y-19143959D01*
X126311919Y-19123317D01*
X126355620Y-19079616D01*
X126434677Y-18942684D01*
X126475600Y-18789957D01*
X126475600Y-18631843D01*
X126434677Y-18479116D01*
X126434562Y-18478916D01*
X126355624Y-18342190D01*
X126355618Y-18342182D01*
X126243817Y-18230381D01*
X126243809Y-18230375D01*
X126106890Y-18151326D01*
X126106886Y-18151324D01*
X126106884Y-18151323D01*
X125954157Y-18110400D01*
X125954057Y-18110400D01*
X125795943Y-18110400D01*
X125643216Y-18151323D01*
X125643209Y-18151326D01*
X125506290Y-18230375D01*
X125506282Y-18230381D01*
X125394481Y-18342182D01*
X125394475Y-18342190D01*
X125315426Y-18479109D01*
X125315423Y-18479116D01*
X125274500Y-18631843D01*
X125274500Y-18789957D01*
X125315370Y-18942484D01*
X125315423Y-18942683D01*
X125315426Y-18942690D01*
X125394475Y-19079609D01*
X125394481Y-19079617D01*
X125438181Y-19123317D01*
X125471666Y-19184640D01*
X125474500Y-19210998D01*
X125474500Y-45063259D01*
X125454815Y-45130298D01*
X125438185Y-45150936D01*
X124524492Y-46064714D01*
X124524488Y-46064718D01*
X119561926Y-51027281D01*
X119500603Y-51060766D01*
X119474245Y-51063600D01*
X119412443Y-51063600D01*
X119259716Y-51104523D01*
X119259709Y-51104526D01*
X119122790Y-51183575D01*
X119122782Y-51183581D01*
X119010981Y-51295382D01*
X119010975Y-51295390D01*
X118931926Y-51432309D01*
X118931923Y-51432316D01*
X118891000Y-51585043D01*
X111313129Y-51585043D01*
X124567911Y-38330581D01*
X124567913Y-38330580D01*
X124610093Y-38288400D01*
X124641243Y-38257250D01*
X124642426Y-38256102D01*
X124642472Y-38256021D01*
X124642477Y-38256017D01*
X124642478Y-38256014D01*
X124642480Y-38256013D01*
X124679126Y-38192541D01*
X124679726Y-38191502D01*
X124679727Y-38191500D01*
X124688510Y-38176287D01*
X124695205Y-38164692D01*
X124695206Y-38164688D01*
X124695207Y-38164687D01*
X124695211Y-38164671D01*
X124695230Y-38164626D01*
X124695440Y-38163814D01*
X124712037Y-38101877D01*
X124722500Y-38062832D01*
X124722501Y-37957378D01*
X124722500Y-37957373D01*
X124722500Y-18436894D01*
X124742185Y-18369855D01*
X124758797Y-18349235D01*
X125804693Y-17302935D01*
X125866010Y-17269439D01*
X125892391Y-17266600D01*
X125954155Y-17266600D01*
X125954157Y-17266600D01*
X126106884Y-17225677D01*
X126243816Y-17146620D01*
X126355620Y-17034816D01*
X126434677Y-16897884D01*
X126475600Y-16745157D01*
X126475600Y-16587043D01*
X126434677Y-16434316D01*
X126423989Y-16415804D01*
X126355624Y-16297390D01*
X126355618Y-16297382D01*
X126243817Y-16185581D01*
X126243809Y-16185575D01*
X126106890Y-16106526D01*
X126106886Y-16106524D01*
X126106884Y-16106523D01*
X125954157Y-16065600D01*
X125954057Y-16065600D01*
X125795943Y-16065600D01*
X125643216Y-16106523D01*
X125643209Y-16106526D01*
X125506290Y-16185575D01*
X125506282Y-16185581D01*
X125394481Y-16297382D01*
X125394475Y-16297390D01*
X125315426Y-16434309D01*
X125315423Y-16434316D01*
X125274500Y-16587043D01*
X125274500Y-16648945D01*
X125254815Y-16715984D01*
X125238181Y-16736626D01*
X124001022Y-17973784D01*
X124001020Y-17973787D01*
X123948293Y-18065110D01*
X123944625Y-18078801D01*
X123934981Y-18114793D01*
X123934981Y-18114794D01*
X123934980Y-18114793D01*
X123921000Y-18166969D01*
X123921000Y-37792845D01*
X123901315Y-37859884D01*
X123884681Y-37880526D01*
X107751326Y-54013881D01*
X107690003Y-54047366D01*
X107663645Y-54050200D01*
X107601843Y-54050200D01*
X107449116Y-54091123D01*
X107449109Y-54091126D01*
X107312190Y-54170175D01*
X107312182Y-54170181D01*
X107200381Y-54281982D01*
X107200375Y-54281990D01*
X107121326Y-54418909D01*
X107121323Y-54418916D01*
X107080400Y-54571643D01*
X100736649Y-54571643D01*
X101101991Y-54206301D01*
X101163314Y-54172816D01*
X101233006Y-54177800D01*
X101288939Y-54219672D01*
X101291866Y-54224109D01*
X101294479Y-54227515D01*
X101294480Y-54227516D01*
X101406284Y-54339320D01*
X101406286Y-54339321D01*
X101406290Y-54339324D01*
X101543209Y-54418373D01*
X101543216Y-54418377D01*
X101695943Y-54459300D01*
X101695945Y-54459300D01*
X101854155Y-54459300D01*
X101854157Y-54459300D01*
X102006884Y-54418377D01*
X102143816Y-54339320D01*
X102255620Y-54227516D01*
X102334677Y-54090584D01*
X102375600Y-53937857D01*
X102375600Y-53779743D01*
X102355297Y-53703971D01*
X102356960Y-53634125D01*
X102387389Y-53584202D01*
X109591421Y-46380171D01*
X109652742Y-46346688D01*
X109722434Y-46351672D01*
X109778367Y-46393544D01*
X109802784Y-46459008D01*
X109803100Y-46467854D01*
X109803100Y-46667527D01*
X109830393Y-46769387D01*
X109876736Y-46849656D01*
X109883121Y-46860714D01*
X110024797Y-47002390D01*
X110091900Y-47069493D01*
X110219537Y-47197428D01*
X110219538Y-47197431D01*
X110220247Y-47198240D01*
X110262836Y-47240829D01*
X110262908Y-47240961D01*
X110262938Y-47240932D01*
X110299711Y-47277791D01*
X110300084Y-47278077D01*
X110300087Y-47278080D01*
X110300089Y-47278081D01*
X110345589Y-47304350D01*
X110345593Y-47304353D01*
X110346035Y-47304608D01*
X110390976Y-47330626D01*
X110391201Y-47330686D01*
X110391403Y-47330803D01*
X110391409Y-47330805D01*
X110391410Y-47330805D01*
X110391413Y-47330807D01*
X110441951Y-47344348D01*
X110442081Y-47344427D01*
X110442093Y-47344386D01*
X110492805Y-47358038D01*
X110492810Y-47358038D01*
X110493268Y-47358098D01*
X110493273Y-47358100D01*
X110493278Y-47358100D01*
X110545953Y-47358100D01*
X110598259Y-47358162D01*
X110598487Y-47358100D01*
X110599125Y-47358101D01*
X110599129Y-47358100D01*
X113336573Y-47358100D01*
X113378437Y-47358100D01*
X113378439Y-47358100D01*
X113441710Y-47358103D01*
X113441713Y-47358101D01*
X113442004Y-47358102D01*
X113442019Y-47358100D01*
X113442027Y-47358100D01*
X113543888Y-47330807D01*
X113635213Y-47278080D01*
X117190182Y-43723109D01*
X117537574Y-43375747D01*
X122693548Y-38220215D01*
X122754872Y-38186733D01*
X122781225Y-38183900D01*
X122843055Y-38183900D01*
X122843057Y-38183900D01*
X122995784Y-38142977D01*
X123132716Y-38063920D01*
X123244520Y-37952116D01*
X123323577Y-37815184D01*
X123364500Y-37662457D01*
X123364500Y-37504343D01*
X123323577Y-37351616D01*
X123312821Y-37332987D01*
X123296349Y-37265088D01*
X123319201Y-37199061D01*
X123332530Y-37183305D01*
X123349717Y-37166118D01*
X123349717Y-37166117D01*
X123349719Y-37166116D01*
X123428776Y-37029184D01*
X123469699Y-36876457D01*
X123469699Y-36718343D01*
X123428776Y-36565616D01*
X123391312Y-36500726D01*
X123349723Y-36428690D01*
X123349717Y-36428682D01*
X123237916Y-36316881D01*
X123237908Y-36316875D01*
X123100989Y-36237826D01*
X123100986Y-36237824D01*
X123100983Y-36237823D01*
X122978504Y-36205005D01*
X122918846Y-36168641D01*
X122888317Y-36105794D01*
X122886600Y-36085231D01*
X122886600Y-30915298D01*
X122906285Y-30848259D01*
X122922919Y-30827617D01*
X122944446Y-30806090D01*
X122966620Y-30783916D01*
X123045677Y-30646984D01*
X123086600Y-30494257D01*
X123086600Y-30336143D01*
X123045677Y-30183416D01*
X122994394Y-30094590D01*
X122966624Y-30046490D01*
X122966618Y-30046482D01*
X122854817Y-29934681D01*
X122854809Y-29934675D01*
X122717890Y-29855626D01*
X122717886Y-29855624D01*
X122717884Y-29855623D01*
X122565157Y-29814700D01*
X122565057Y-29814700D01*
X122406943Y-29814700D01*
X122254216Y-29855623D01*
X122254209Y-29855626D01*
X122117290Y-29934675D01*
X122117282Y-29934681D01*
X122085181Y-29966783D01*
X122023858Y-30000268D01*
X121954166Y-29995284D01*
X121898233Y-29953412D01*
X121873816Y-29887948D01*
X121873500Y-29879102D01*
X121873500Y-20008898D01*
X121893185Y-19941859D01*
X121909819Y-19921217D01*
X121931536Y-19899500D01*
X121953520Y-19877516D01*
X122032577Y-19740584D01*
X122073500Y-19587857D01*
X122073500Y-19429743D01*
X122032577Y-19277016D01*
X122027302Y-19267879D01*
X121953524Y-19140090D01*
X121953518Y-19140082D01*
X121841717Y-19028281D01*
X121841709Y-19028275D01*
X121704790Y-18949226D01*
X121704786Y-18949224D01*
X121704784Y-18949223D01*
X121552057Y-18908300D01*
X121551657Y-18908300D01*
X121393543Y-18908300D01*
X121240816Y-18949223D01*
X121240809Y-18949226D01*
X121103890Y-19028275D01*
X121103882Y-19028281D01*
X120992081Y-19140082D01*
X120992075Y-19140090D01*
X120913026Y-19277009D01*
X120913023Y-19277016D01*
X120872100Y-19429743D01*
X120871039Y-19437803D01*
X120870325Y-19437709D01*
X120871031Y-19442245D01*
X120860052Y-19467029D01*
X120852415Y-19493039D01*
X120846111Y-19498501D01*
X120842733Y-19506128D01*
X120820094Y-19521044D01*
X120799611Y-19538794D01*
X120789844Y-19540977D01*
X120784390Y-19544571D01*
X120752270Y-19549376D01*
X120749515Y-19549992D01*
X120748814Y-19550000D01*
X120596943Y-19550000D01*
X120590187Y-19551810D01*
X120575115Y-19551982D01*
X120548331Y-19544448D01*
X120520850Y-19540163D01*
X120515169Y-19535121D01*
X120507855Y-19533064D01*
X120489397Y-19512247D01*
X120468594Y-19493783D01*
X120466471Y-19486390D01*
X120461501Y-19480785D01*
X120457535Y-19455275D01*
X120449700Y-19427990D01*
X120449700Y-14546655D01*
X120469385Y-14479616D01*
X120486019Y-14458974D01*
X125804674Y-9140319D01*
X125865997Y-9106834D01*
X125892355Y-9104000D01*
X125954155Y-9104000D01*
X125954157Y-9104000D01*
X126106884Y-9063077D01*
X126243816Y-8984020D01*
X126343230Y-8884605D01*
X126404549Y-8851123D01*
X126474241Y-8856107D01*
X126518586Y-8884604D01*
X127213820Y-9579816D01*
X127223180Y-9589176D01*
X127237887Y-9616110D01*
X127254477Y-9641924D01*
X127255368Y-9648122D01*
X127256666Y-9650499D01*
X127259500Y-9676859D01*
X127259500Y-9752402D01*
X127239815Y-9819441D01*
X127223181Y-9840083D01*
X127179481Y-9883782D01*
X127179475Y-9883790D01*
X127100426Y-10020709D01*
X127100423Y-10020716D01*
X127059500Y-10173443D01*
X127059500Y-10331557D01*
X127064809Y-10351368D01*
X127100423Y-10484283D01*
X127100426Y-10484290D01*
X127179475Y-10621209D01*
X127179479Y-10621214D01*
X127179480Y-10621216D01*
X127291284Y-10733020D01*
X127291286Y-10733021D01*
X127291290Y-10733024D01*
X127383799Y-10786433D01*
X127428216Y-10812077D01*
X127440574Y-10815388D01*
X127500235Y-10851752D01*
X127530765Y-10914599D01*
X127522471Y-10983974D01*
X127496163Y-11022844D01*
X125945426Y-12573581D01*
X125884103Y-12607066D01*
X125857745Y-12609900D01*
X125795943Y-12609900D01*
X125643216Y-12650823D01*
X125643209Y-12650826D01*
X125506290Y-12729875D01*
X125506282Y-12729881D01*
X125394481Y-12841682D01*
X125394475Y-12841690D01*
X125315426Y-12978609D01*
X125315423Y-12978616D01*
X125274500Y-13131343D01*
X125274500Y-13289457D01*
X125306589Y-13409213D01*
X125315423Y-13442183D01*
X125315426Y-13442190D01*
X125394475Y-13579109D01*
X125394479Y-13579114D01*
X125394480Y-13579116D01*
X125506284Y-13690920D01*
X125506286Y-13690921D01*
X125506290Y-13690924D01*
X125643209Y-13769973D01*
X125643216Y-13769977D01*
X125795943Y-13810900D01*
X125795945Y-13810900D01*
X125954155Y-13810900D01*
X125954157Y-13810900D01*
X126106884Y-13769977D01*
X126243816Y-13690920D01*
X126355620Y-13579116D01*
X126434677Y-13442184D01*
X126475600Y-13289457D01*
X126475600Y-13227653D01*
X126495285Y-13160614D01*
X126511914Y-13139977D01*
X128450803Y-11201087D01*
X128450808Y-11201084D01*
X128461011Y-11190880D01*
X128461013Y-11190880D01*
X128535580Y-11116313D01*
X128588307Y-11024987D01*
X128592966Y-11007600D01*
X128592967Y-11007598D01*
X128603933Y-10966673D01*
X128615601Y-10923127D01*
X128615601Y-10817673D01*
X128615601Y-10810078D01*
X128615600Y-10810060D01*
X128615600Y-9579829D01*
X128615601Y-9579816D01*
X128615601Y-9464375D01*
X128615601Y-9464373D01*
X128588307Y-9362512D01*
X128561943Y-9316850D01*
X128535580Y-9271187D01*
X128461013Y-9196620D01*
X128461010Y-9196618D01*
X121593013Y-2328620D01*
X121547350Y-2302256D01*
X121501689Y-2275893D01*
X121450757Y-2262246D01*
X121399827Y-2248600D01*
X54551227Y-2248600D01*
X54445773Y-2248600D01*
X54343910Y-2275893D01*
X54252587Y-2328620D01*
X54252584Y-2328622D01*
X50794026Y-5787181D01*
X50732703Y-5820666D01*
X50706345Y-5823500D01*
X50204173Y-5823500D01*
X50102313Y-5850793D01*
X50102312Y-5850793D01*
X50102310Y-5850794D01*
X50102309Y-5850794D01*
X50025981Y-5894863D01*
X50025980Y-5894864D01*
X50010988Y-5903519D01*
X50010985Y-5903521D01*
X21299522Y-34614984D01*
X21299520Y-34614987D01*
X21246793Y-34706312D01*
X21232333Y-34760278D01*
X21229598Y-34770486D01*
X21219500Y-34808170D01*
X21219500Y-48836840D01*
X21199815Y-48903879D01*
X21151795Y-48947325D01*
X21017006Y-49016003D01*
X20947385Y-49066586D01*
X20881578Y-49090065D01*
X20813524Y-49074239D01*
X20764830Y-49024133D01*
X20750500Y-48966267D01*
X20750500Y-28290755D01*
X20770185Y-28223716D01*
X20786819Y-28203074D01*
X25536504Y-23453389D01*
X27519500Y-23453389D01*
X27519500Y-23626611D01*
X27525769Y-23666191D01*
X27541773Y-23767241D01*
X27546598Y-23797701D01*
X27600127Y-23962445D01*
X27678768Y-24116788D01*
X27780586Y-24256928D01*
X27903072Y-24379414D01*
X28043212Y-24481232D01*
X28197555Y-24559873D01*
X28362299Y-24613402D01*
X28533389Y-24640500D01*
X28533390Y-24640500D01*
X28706610Y-24640500D01*
X28706611Y-24640500D01*
X28877701Y-24613402D01*
X29042445Y-24559873D01*
X29196788Y-24481232D01*
X29336928Y-24379414D01*
X29459414Y-24256928D01*
X29561232Y-24116788D01*
X29639873Y-23962445D01*
X29693402Y-23797701D01*
X29720500Y-23626611D01*
X29720500Y-23453389D01*
X29693402Y-23282299D01*
X29655741Y-23166393D01*
X29653747Y-23096558D01*
X29685990Y-23040401D01*
X39317180Y-13409213D01*
X39369907Y-13317888D01*
X39397200Y-13216027D01*
X39397200Y-13110573D01*
X39397200Y-9353973D01*
X39391237Y-9331720D01*
X39387253Y-9316850D01*
X39369908Y-9252114D01*
X39369907Y-9252112D01*
X39317180Y-9160787D01*
X37996016Y-7839623D01*
X37962531Y-7778300D01*
X37961224Y-7732548D01*
X37975373Y-7643218D01*
X37975373Y-7407034D01*
X37975373Y-7407028D01*
X37938426Y-7173757D01*
X37897972Y-7049255D01*
X37865441Y-6949134D01*
X37865439Y-6949131D01*
X37865439Y-6949129D01*
X37800110Y-6820914D01*
X37758216Y-6738693D01*
X37619390Y-6547616D01*
X37452383Y-6380609D01*
X37261306Y-6241783D01*
X37050869Y-6134559D01*
X36826242Y-6061573D01*
X36730171Y-6046356D01*
X36667036Y-6016426D01*
X36630106Y-5957114D01*
X36631104Y-5887252D01*
X36661887Y-5836204D01*
X37061273Y-5436819D01*
X37122596Y-5403334D01*
X37148954Y-5400500D01*
X46725501Y-5400500D01*
X46792540Y-5420185D01*
X46838295Y-5472989D01*
X46849501Y-5524500D01*
X46849501Y-5894856D01*
X46849502Y-5894882D01*
X46852413Y-5919987D01*
X46852415Y-5919991D01*
X46897793Y-6022764D01*
X46897794Y-6022765D01*
X46977235Y-6102206D01*
X47080009Y-6147585D01*
X47105135Y-6150500D01*
X48894864Y-6150499D01*
X48894879Y-6150497D01*
X48894882Y-6150497D01*
X48919987Y-6147586D01*
X48919988Y-6147585D01*
X48919991Y-6147585D01*
X49022765Y-6102206D01*
X49102206Y-6022765D01*
X49147585Y-5919991D01*
X49150500Y-5894865D01*
X49150499Y-4105136D01*
X49149478Y-4096329D01*
X49147586Y-4080012D01*
X49147585Y-4080010D01*
X49147585Y-4080009D01*
X49102206Y-3977235D01*
X49022765Y-3897794D01*
X49002876Y-3889012D01*
X48919992Y-3852415D01*
X48894865Y-3849500D01*
X47105143Y-3849500D01*
X47105117Y-3849502D01*
X47080012Y-3852413D01*
X47080008Y-3852415D01*
X46977235Y-3897793D01*
X46897794Y-3977234D01*
X46852415Y-4080006D01*
X46852415Y-4080008D01*
X46849500Y-4105131D01*
X46849500Y-4475500D01*
X46829815Y-4542539D01*
X46777011Y-4588294D01*
X46725500Y-4599500D01*
X36878973Y-4599500D01*
X36777112Y-4626793D01*
X36748915Y-4643073D01*
X36685790Y-4679518D01*
X36685784Y-4679522D01*
X34689622Y-6675684D01*
X34689620Y-6675687D01*
X34636891Y-6767014D01*
X34610740Y-6864618D01*
X34610738Y-6864627D01*
X34609600Y-6868873D01*
X34609600Y-10957373D01*
X34609600Y-11062827D01*
X34620732Y-11104372D01*
X34636893Y-11164689D01*
X34652390Y-11191530D01*
X34689620Y-11256013D01*
X34689622Y-11256015D01*
X35104372Y-11670765D01*
X35137857Y-11732088D01*
X35132873Y-11801780D01*
X35127176Y-11814740D01*
X35084303Y-11898883D01*
X35084303Y-11898884D01*
X35011320Y-12123500D01*
X35011320Y-12123503D01*
X34974373Y-12356775D01*
X34974373Y-12592970D01*
X35011319Y-12826241D01*
X35084306Y-13050869D01*
X35174383Y-13227653D01*
X35191530Y-13261306D01*
X35330356Y-13452383D01*
X35497363Y-13619390D01*
X35688440Y-13758216D01*
X35779906Y-13804820D01*
X35898876Y-13865439D01*
X35898878Y-13865439D01*
X35898881Y-13865441D01*
X36019285Y-13904562D01*
X36123504Y-13938426D01*
X36356776Y-13975373D01*
X36356781Y-13975373D01*
X36592970Y-13975373D01*
X36826241Y-13938426D01*
X36841959Y-13933319D01*
X37050865Y-13865441D01*
X37261306Y-13758216D01*
X37452383Y-13619390D01*
X37619390Y-13452383D01*
X37758216Y-13261306D01*
X37863070Y-13055518D01*
X37865439Y-13050869D01*
X37865439Y-13050868D01*
X37865441Y-13050865D01*
X37938426Y-12826241D01*
X37947036Y-12771879D01*
X37975373Y-12592970D01*
X37975373Y-12356775D01*
X37938426Y-12123504D01*
X37888835Y-11970880D01*
X37865441Y-11898881D01*
X37865439Y-11898878D01*
X37865439Y-11898876D01*
X37804168Y-11778626D01*
X37758216Y-11688440D01*
X37758214Y-11688437D01*
X37758213Y-11688435D01*
X37740239Y-11663696D01*
X37716758Y-11597890D01*
X37732583Y-11529836D01*
X37782688Y-11481141D01*
X37821154Y-11468338D01*
X37851368Y-11463553D01*
X38075992Y-11390568D01*
X38286433Y-11283343D01*
X38399316Y-11201328D01*
X38465120Y-11177849D01*
X38533174Y-11193674D01*
X38581869Y-11243780D01*
X38596200Y-11301647D01*
X38596200Y-12946044D01*
X38576515Y-13013083D01*
X38559881Y-13033725D01*
X29119599Y-22474006D01*
X29058276Y-22507491D01*
X28993600Y-22504256D01*
X28877698Y-22466597D01*
X28746271Y-22445781D01*
X28706611Y-22439500D01*
X28533389Y-22439500D01*
X28493728Y-22445781D01*
X28362302Y-22466597D01*
X28197552Y-22520128D01*
X28043211Y-22598768D01*
X27972173Y-22650381D01*
X27903072Y-22700586D01*
X27903070Y-22700588D01*
X27903069Y-22700588D01*
X27780588Y-22823069D01*
X27780588Y-22823070D01*
X27780586Y-22823072D01*
X27753971Y-22859704D01*
X27678768Y-22963211D01*
X27600128Y-23117552D01*
X27600127Y-23117554D01*
X27600127Y-23117555D01*
X27578257Y-23184863D01*
X27546597Y-23282302D01*
X27523372Y-23428940D01*
X27519500Y-23453389D01*
X25536504Y-23453389D01*
X25629057Y-23360836D01*
X25632878Y-23357015D01*
X25659680Y-23330213D01*
X25712407Y-23238888D01*
X25739700Y-23137027D01*
X25739700Y-23031573D01*
X25739700Y-11809154D01*
X25759385Y-11742115D01*
X25776019Y-11721473D01*
X26876283Y-10621209D01*
X28063833Y-9433658D01*
X28125154Y-9400175D01*
X28194846Y-9405159D01*
X28250779Y-9447031D01*
X28275196Y-9512495D01*
X28267460Y-9565297D01*
X28263906Y-9574669D01*
X28246793Y-9604311D01*
X28234244Y-9651146D01*
X28232629Y-9657170D01*
X28232628Y-9657175D01*
X28219500Y-9706172D01*
X28219500Y-19892958D01*
X28199815Y-19959997D01*
X28151794Y-20003443D01*
X28043213Y-20058766D01*
X27957809Y-20120817D01*
X27903072Y-20160586D01*
X27903070Y-20160588D01*
X27903069Y-20160588D01*
X27780588Y-20283069D01*
X27780588Y-20283070D01*
X27780586Y-20283072D01*
X27754891Y-20318438D01*
X27678768Y-20423211D01*
X27600128Y-20577552D01*
X27546597Y-20742302D01*
X27534358Y-20819577D01*
X27519500Y-20913389D01*
X27519500Y-21086611D01*
X27546598Y-21257701D01*
X27600127Y-21422445D01*
X27678768Y-21576788D01*
X27780586Y-21716928D01*
X27903072Y-21839414D01*
X28043212Y-21941232D01*
X28197555Y-22019873D01*
X28362299Y-22073402D01*
X28533389Y-22100500D01*
X28533390Y-22100500D01*
X28706610Y-22100500D01*
X28706611Y-22100500D01*
X28877701Y-22073402D01*
X29042445Y-22019873D01*
X29196788Y-21941232D01*
X29336928Y-21839414D01*
X29459414Y-21716928D01*
X29561232Y-21576788D01*
X29639873Y-21422445D01*
X29693402Y-21257701D01*
X29720500Y-21086611D01*
X29720500Y-20913389D01*
X29693402Y-20742299D01*
X29639873Y-20577555D01*
X29561232Y-20423212D01*
X29459414Y-20283072D01*
X29336928Y-20160586D01*
X29249385Y-20096982D01*
X29196786Y-20058766D01*
X29088206Y-20003443D01*
X29037409Y-19955469D01*
X29020500Y-19892958D01*
X29020500Y-10898078D01*
X29040185Y-10831039D01*
X29092989Y-10785284D01*
X29162147Y-10775340D01*
X29225703Y-10804365D01*
X29244817Y-10825192D01*
X29355483Y-10977510D01*
X29522490Y-11144517D01*
X29713567Y-11283343D01*
X29749491Y-11301647D01*
X29924003Y-11390566D01*
X29924005Y-11390566D01*
X29924008Y-11390568D01*
X30029612Y-11424881D01*
X30148625Y-11463551D01*
X30148626Y-11463551D01*
X30148632Y-11463553D01*
X30178841Y-11468337D01*
X30241973Y-11498265D01*
X30278905Y-11557576D01*
X30277909Y-11627439D01*
X30259761Y-11663694D01*
X30241784Y-11688437D01*
X30134559Y-11898876D01*
X30061572Y-12123504D01*
X30024626Y-12356775D01*
X30024626Y-12592970D01*
X30061572Y-12826241D01*
X30134559Y-13050869D01*
X30224636Y-13227653D01*
X30241783Y-13261306D01*
X30380609Y-13452383D01*
X30547616Y-13619390D01*
X30738693Y-13758216D01*
X30830159Y-13804820D01*
X30949129Y-13865439D01*
X30949131Y-13865439D01*
X30949134Y-13865441D01*
X31069538Y-13904562D01*
X31173757Y-13938426D01*
X31407029Y-13975373D01*
X31407034Y-13975373D01*
X31643223Y-13975373D01*
X31876494Y-13938426D01*
X31892212Y-13933319D01*
X32101118Y-13865441D01*
X32311559Y-13758216D01*
X32502636Y-13619390D01*
X32669643Y-13452383D01*
X32808469Y-13261306D01*
X32913323Y-13055518D01*
X32915692Y-13050869D01*
X32915692Y-13050868D01*
X32915694Y-13050865D01*
X32988679Y-12826241D01*
X32997289Y-12771879D01*
X33025626Y-12592970D01*
X33025626Y-12356775D01*
X32988679Y-12123504D01*
X32939088Y-11970880D01*
X32915694Y-11898881D01*
X32915692Y-11898878D01*
X32915692Y-11898876D01*
X32854421Y-11778626D01*
X32808469Y-11688440D01*
X32669643Y-11497363D01*
X32502636Y-11330356D01*
X32311559Y-11191530D01*
X32258879Y-11164688D01*
X32101122Y-11084306D01*
X31876495Y-11011320D01*
X31846284Y-11006535D01*
X31783150Y-10976605D01*
X31746219Y-10917294D01*
X31747217Y-10847431D01*
X31765367Y-10811174D01*
X31783343Y-10786433D01*
X31890568Y-10575992D01*
X31963553Y-10351368D01*
X31979500Y-10250681D01*
X32000500Y-10118097D01*
X32000500Y-9881902D01*
X31963553Y-9648631D01*
X31928577Y-9540987D01*
X31890568Y-9424008D01*
X31890566Y-9424005D01*
X31890566Y-9424003D01*
X31783342Y-9213565D01*
X31765365Y-9188823D01*
X31741884Y-9123017D01*
X31757709Y-9054963D01*
X31807814Y-9006267D01*
X31846280Y-8993464D01*
X31876494Y-8988679D01*
X32101118Y-8915694D01*
X32311559Y-8808469D01*
X32502636Y-8669643D01*
X32669643Y-8502636D01*
X32808469Y-8311559D01*
X32915694Y-8101118D01*
X32988679Y-7876494D01*
X32994519Y-7839623D01*
X33025626Y-7643223D01*
X33025626Y-7407028D01*
X32988679Y-7173757D01*
X32948225Y-7049255D01*
X32915694Y-6949134D01*
X32915692Y-6949131D01*
X32915692Y-6949129D01*
X32850363Y-6820914D01*
X32808469Y-6738693D01*
X32669643Y-6547616D01*
X32502636Y-6380609D01*
X32311559Y-6241783D01*
X32101122Y-6134559D01*
X31876495Y-6061573D01*
X31736524Y-6039403D01*
X31673390Y-6009473D01*
X31636459Y-5950162D01*
X31637457Y-5880299D01*
X31668240Y-5829251D01*
X33787974Y-3709518D01*
X33849297Y-3676033D01*
X33875655Y-3673199D01*
X33937455Y-3673199D01*
X33937457Y-3673199D01*
X34090184Y-3632276D01*
X34227116Y-3553219D01*
X34338920Y-3441415D01*
X34417977Y-3304483D01*
X34458900Y-3151756D01*
X34458900Y-2993642D01*
X34417977Y-2840915D01*
X34417973Y-2840908D01*
X34338924Y-2703989D01*
X34338918Y-2703981D01*
X34227117Y-2592180D01*
X34227109Y-2592174D01*
X34090190Y-2513125D01*
X34090186Y-2513123D01*
X34090184Y-2513122D01*
X33937457Y-2472199D01*
X33779343Y-2472199D01*
X33626616Y-2513122D01*
X33626609Y-2513125D01*
X33489690Y-2592174D01*
X33489682Y-2592180D01*
X33377881Y-2703981D01*
X33377875Y-2703989D01*
X33298826Y-2840908D01*
X33298823Y-2840915D01*
X33257900Y-2993642D01*
X33257900Y-3055444D01*
X33238215Y-3122483D01*
X33221581Y-3143125D01*
X25018722Y-11345983D01*
X25018720Y-11345986D01*
X24965993Y-11437310D01*
X24949062Y-11500500D01*
X24938700Y-11539170D01*
X24938700Y-22867045D01*
X24919015Y-22934084D01*
X24902381Y-22954726D01*
X20029522Y-27827584D01*
X20029518Y-27827590D01*
X19976792Y-27918912D01*
X19976793Y-27918913D01*
X19949500Y-28020773D01*
X19949500Y-48966267D01*
X19929815Y-49033306D01*
X19877011Y-49079061D01*
X19807853Y-49089005D01*
X19752615Y-49066586D01*
X19682993Y-49016003D01*
X19521639Y-48933788D01*
X19521636Y-48933787D01*
X19349410Y-48877829D01*
X19170551Y-48849500D01*
X19170546Y-48849500D01*
X18989454Y-48849500D01*
X18989449Y-48849500D01*
X18810589Y-48877829D01*
X18638363Y-48933787D01*
X18638360Y-48933788D01*
X18477002Y-49016006D01*
X18330505Y-49122441D01*
X18330500Y-49122445D01*
X18202445Y-49250500D01*
X18202441Y-49250505D01*
X18096006Y-49397002D01*
X18013788Y-49558360D01*
X18013787Y-49558363D01*
X17957829Y-49730589D01*
X17932473Y-49890678D01*
X17902544Y-49953813D01*
X17843232Y-49990744D01*
X17773369Y-49989746D01*
X17715137Y-49951136D01*
X17687527Y-49890678D01*
X17673160Y-49799974D01*
X17662171Y-49730591D01*
X17606211Y-49558361D01*
X17606211Y-49558360D01*
X17569599Y-49486506D01*
X17523996Y-49397006D01*
X17496590Y-49359284D01*
X17417558Y-49250505D01*
X17417554Y-49250500D01*
X17289499Y-49122445D01*
X17289494Y-49122441D01*
X17142997Y-49016006D01*
X17142996Y-49016005D01*
X17142994Y-49016004D01*
X17079045Y-48983420D01*
X16981639Y-48933788D01*
X16981636Y-48933787D01*
X16809410Y-48877829D01*
X16630551Y-48849500D01*
X16630546Y-48849500D01*
X16449454Y-48849500D01*
X16449449Y-48849500D01*
X16270589Y-48877829D01*
X16098363Y-48933787D01*
X16098360Y-48933788D01*
X15937002Y-49016006D01*
X15790505Y-49122441D01*
X15790500Y-49122445D01*
X15662445Y-49250500D01*
X15662441Y-49250505D01*
X15556006Y-49397002D01*
X15473788Y-49558360D01*
X15473787Y-49558363D01*
X15417829Y-49730589D01*
X15392473Y-49890678D01*
X15362544Y-49953813D01*
X15303232Y-49990744D01*
X15233369Y-49989746D01*
X15175137Y-49951136D01*
X15147527Y-49890678D01*
X15133160Y-49799974D01*
X15122171Y-49730591D01*
X15066211Y-49558361D01*
X15066211Y-49558360D01*
X15029599Y-49486506D01*
X14983996Y-49397006D01*
X14956590Y-49359284D01*
X14877558Y-49250505D01*
X14877554Y-49250500D01*
X14749499Y-49122445D01*
X14749494Y-49122441D01*
X14602997Y-49016006D01*
X14602996Y-49016005D01*
X14602994Y-49016004D01*
X14539045Y-48983420D01*
X14441639Y-48933788D01*
X14441636Y-48933787D01*
X14269410Y-48877829D01*
X14090551Y-48849500D01*
X14090546Y-48849500D01*
X13909454Y-48849500D01*
X13909449Y-48849500D01*
X13730589Y-48877829D01*
X13558363Y-48933787D01*
X13558355Y-48933791D01*
X13463294Y-48982227D01*
X13394625Y-48995123D01*
X13329885Y-48968846D01*
X13289628Y-48911740D01*
X13283000Y-48871742D01*
X13283000Y-37391453D01*
X13302685Y-37324414D01*
X13319314Y-37303777D01*
X16070572Y-34552517D01*
X16131895Y-34519033D01*
X16158253Y-34516199D01*
X16220054Y-34516199D01*
X16220056Y-34516199D01*
X16372783Y-34475276D01*
X16509715Y-34396219D01*
X16621519Y-34284415D01*
X16700576Y-34147483D01*
X16741499Y-33994756D01*
X16741499Y-33836642D01*
X16700576Y-33683915D01*
X16668299Y-33628009D01*
X16621523Y-33546989D01*
X16621517Y-33546981D01*
X16509716Y-33435180D01*
X16509708Y-33435174D01*
X16372789Y-33356125D01*
X16372785Y-33356123D01*
X16372783Y-33356122D01*
X16220056Y-33315199D01*
X16061942Y-33315199D01*
X15909215Y-33356122D01*
X15909208Y-33356125D01*
X15772289Y-33435174D01*
X15772281Y-33435180D01*
X15660480Y-33546981D01*
X15660474Y-33546989D01*
X15581425Y-33683908D01*
X15581422Y-33683915D01*
X15540499Y-33836642D01*
X15540499Y-33898444D01*
X15520814Y-33965483D01*
X15504180Y-33986125D01*
X12562022Y-36928284D01*
X12562020Y-36928287D01*
X12531446Y-36981243D01*
X12509293Y-37019612D01*
X12506727Y-37029190D01*
X12486982Y-37102876D01*
X12486982Y-37102880D01*
X12482000Y-37121473D01*
X12482000Y-50405773D01*
X12482000Y-50511227D01*
X12486260Y-50527126D01*
X12509293Y-50613089D01*
X12521759Y-50634680D01*
X12562020Y-50704413D01*
X12562022Y-50704415D01*
X13069948Y-51212341D01*
X13103433Y-51273664D01*
X13098449Y-51343356D01*
X13056577Y-51399289D01*
X13032355Y-51413456D01*
X12977233Y-51437795D01*
X12897794Y-51517234D01*
X12852415Y-51620006D01*
X12852415Y-51620008D01*
X12849500Y-51645131D01*
X12849500Y-53434856D01*
X12849502Y-53434882D01*
X12852413Y-53459987D01*
X12852415Y-53459991D01*
X12897793Y-53562764D01*
X12897794Y-53562765D01*
X12977235Y-53642206D01*
X13080009Y-53687585D01*
X13105135Y-53690500D01*
X14894864Y-53690499D01*
X14894879Y-53690497D01*
X14894882Y-53690497D01*
X14919987Y-53687586D01*
X14919988Y-53687585D01*
X14919991Y-53687585D01*
X15022765Y-53642206D01*
X15102206Y-53562765D01*
X15147585Y-53459991D01*
X15150500Y-53434865D01*
X15150499Y-52697125D01*
X15170183Y-52630089D01*
X15222987Y-52584334D01*
X15292146Y-52574390D01*
X15355702Y-52603415D01*
X15393476Y-52662193D01*
X15396972Y-52677729D01*
X15417829Y-52809410D01*
X15473787Y-52981636D01*
X15473788Y-52981637D01*
X15473789Y-52981639D01*
X15549166Y-53129574D01*
X15556006Y-53142997D01*
X15662441Y-53289494D01*
X15662445Y-53289499D01*
X15790500Y-53417554D01*
X15790505Y-53417558D01*
X15918287Y-53510396D01*
X15937006Y-53523996D01*
X16013094Y-53562765D01*
X16098360Y-53606211D01*
X16098363Y-53606212D01*
X16184273Y-53634125D01*
X16270591Y-53662171D01*
X16348282Y-53674476D01*
X16449449Y-53690500D01*
X16449454Y-53690500D01*
X16630551Y-53690500D01*
X16717259Y-53676765D01*
X16809409Y-53662171D01*
X16981639Y-53606211D01*
X17142994Y-53523996D01*
X17289501Y-53417553D01*
X17417553Y-53289501D01*
X17523996Y-53142994D01*
X17606211Y-52981639D01*
X17662171Y-52809409D01*
X17676422Y-52719425D01*
X17687527Y-52649321D01*
X17717456Y-52586186D01*
X17776768Y-52549255D01*
X17846630Y-52550253D01*
X17904863Y-52588863D01*
X17932473Y-52649321D01*
X17957829Y-52809410D01*
X18013787Y-52981636D01*
X18013788Y-52981637D01*
X18013789Y-52981639D01*
X18089166Y-53129574D01*
X18096006Y-53142997D01*
X18202441Y-53289494D01*
X18202445Y-53289499D01*
X18330500Y-53417554D01*
X18330505Y-53417558D01*
X18458287Y-53510396D01*
X18477006Y-53523996D01*
X18553094Y-53562765D01*
X18638360Y-53606211D01*
X18638363Y-53606212D01*
X18724273Y-53634125D01*
X18810591Y-53662171D01*
X18888282Y-53674476D01*
X18989449Y-53690500D01*
X18989454Y-53690500D01*
X19170551Y-53690500D01*
X19349409Y-53662171D01*
X19362203Y-53658014D01*
X19493284Y-53615423D01*
X19563123Y-53613429D01*
X19619281Y-53645674D01*
X20671519Y-54697912D01*
X20671520Y-54697913D01*
X20746087Y-54772480D01*
X20837413Y-54825207D01*
X20939273Y-54852500D01*
X95118473Y-54852500D01*
X95118477Y-54852501D01*
X95223930Y-54852500D01*
X95264869Y-54841529D01*
X95325788Y-54825207D01*
X95417113Y-54772480D01*
X114723819Y-35465772D01*
X114785142Y-35432288D01*
X114854834Y-35437272D01*
X114910767Y-35479144D01*
X114935184Y-35544608D01*
X114935500Y-35553454D01*
X114935500Y-38125502D01*
X114915815Y-38192541D01*
X114899181Y-38213183D01*
X114855481Y-38256882D01*
X114855475Y-38256890D01*
X114776426Y-38393809D01*
X114776423Y-38393816D01*
X114735500Y-38546543D01*
X114735500Y-38704657D01*
X114772592Y-38843084D01*
X114776423Y-38857383D01*
X114776426Y-38857390D01*
X114855475Y-38994309D01*
X114855481Y-38994317D01*
X114930576Y-39069412D01*
X114964061Y-39130735D01*
X114959077Y-39200427D01*
X114930577Y-39244774D01*
X99259659Y-54915844D01*
X99198336Y-54949329D01*
X99128644Y-54944345D01*
X99109978Y-54935551D01*
X99053984Y-54903223D01*
X98976607Y-54882490D01*
X98901257Y-54862300D01*
X98743143Y-54862300D01*
X98590416Y-54903223D01*
X98590409Y-54903226D01*
X98453490Y-54982275D01*
X98453482Y-54982281D01*
X98341681Y-55094082D01*
X98341675Y-55094090D01*
X98262626Y-55231009D01*
X98262623Y-55231016D01*
X98221700Y-55383743D01*
X98221700Y-55476000D01*
X98202015Y-55543039D01*
X98149211Y-55588794D01*
X98097700Y-55600000D01*
X524000Y-55600000D01*
X456961Y-55580315D01*
X411206Y-55527511D01*
X400000Y-55476000D01*
X400000Y-20406898D01*
X19899500Y-20406898D01*
X19899500Y-21593102D01*
X19903957Y-21630216D01*
X19910122Y-21681561D01*
X19910122Y-21681563D01*
X19910123Y-21681564D01*
X19916311Y-21697255D01*
X19965639Y-21822343D01*
X20057077Y-21942922D01*
X20177656Y-22034360D01*
X20177657Y-22034360D01*
X20177658Y-22034361D01*
X20318436Y-22089877D01*
X20406898Y-22100500D01*
X20406903Y-22100500D01*
X21593097Y-22100500D01*
X21593102Y-22100500D01*
X21681564Y-22089877D01*
X21822342Y-22034361D01*
X21942922Y-21942922D01*
X22034361Y-21822342D01*
X22089877Y-21681564D01*
X22100500Y-21593102D01*
X22100500Y-20406898D01*
X22089877Y-20318436D01*
X22034361Y-20177658D01*
X22034360Y-20177657D01*
X22034360Y-20177656D01*
X21942922Y-20057077D01*
X21822343Y-19965639D01*
X21709696Y-19921217D01*
X21681564Y-19910123D01*
X21681563Y-19910122D01*
X21681561Y-19910122D01*
X21635926Y-19904642D01*
X21593102Y-19899500D01*
X20406898Y-19899500D01*
X20367853Y-19904188D01*
X20318438Y-19910122D01*
X20177656Y-19965639D01*
X20057077Y-20057077D01*
X19965639Y-20177656D01*
X19910122Y-20318438D01*
X19907511Y-20340185D01*
X19899500Y-20406898D01*
X400000Y-20406898D01*
X400000Y-4152444D01*
X12649500Y-4152444D01*
X12649500Y-6047555D01*
X12655784Y-6138093D01*
X12655786Y-6138109D01*
X12705659Y-6350156D01*
X12705661Y-6350161D01*
X12705662Y-6350164D01*
X12793657Y-6549454D01*
X12874028Y-6666781D01*
X12916773Y-6729181D01*
X12916778Y-6729187D01*
X13070812Y-6883221D01*
X13070818Y-6883226D01*
X13250546Y-7006343D01*
X13449836Y-7094338D01*
X13449841Y-7094339D01*
X13449843Y-7094340D01*
X13661890Y-7144213D01*
X13661895Y-7144213D01*
X13661901Y-7144215D01*
X13712204Y-7147706D01*
X13752444Y-7150500D01*
X13752448Y-7150500D01*
X15647556Y-7150500D01*
X15683770Y-7147986D01*
X15738099Y-7144215D01*
X15738105Y-7144213D01*
X15738109Y-7144213D01*
X15950156Y-7094340D01*
X15950156Y-7094339D01*
X15950164Y-7094338D01*
X16149454Y-7006343D01*
X16329182Y-6883226D01*
X16483226Y-6729182D01*
X16606343Y-6549454D01*
X16694338Y-6350164D01*
X16696439Y-6341231D01*
X16744213Y-6138109D01*
X16744213Y-6138105D01*
X16744215Y-6138099D01*
X16750500Y-6047552D01*
X16750500Y-4152448D01*
X16750162Y-4147585D01*
X16747013Y-4102206D01*
X16744215Y-4061901D01*
X16744213Y-4061895D01*
X16744213Y-4061890D01*
X16694340Y-3849843D01*
X16694339Y-3849841D01*
X16694338Y-3849836D01*
X16606343Y-3650546D01*
X16483226Y-3470818D01*
X16483221Y-3470812D01*
X16329187Y-3316778D01*
X16329181Y-3316773D01*
X16296646Y-3294486D01*
X16149454Y-3193657D01*
X15950164Y-3105662D01*
X15950161Y-3105661D01*
X15950156Y-3105659D01*
X15738109Y-3055786D01*
X15738093Y-3055784D01*
X15647556Y-3049500D01*
X15647552Y-3049500D01*
X13752448Y-3049500D01*
X13752444Y-3049500D01*
X13661906Y-3055784D01*
X13661890Y-3055786D01*
X13449843Y-3105659D01*
X13449836Y-3105662D01*
X13250550Y-3193655D01*
X13250549Y-3193655D01*
X13250546Y-3193657D01*
X13174107Y-3246018D01*
X13070818Y-3316773D01*
X13070812Y-3316778D01*
X12916778Y-3470812D01*
X12916773Y-3470818D01*
X12860329Y-3553217D01*
X12793657Y-3650546D01*
X12793655Y-3650549D01*
X12793655Y-3650550D01*
X12705662Y-3849836D01*
X12705659Y-3849843D01*
X12655786Y-4061890D01*
X12655784Y-4061906D01*
X12649500Y-4152444D01*
X400000Y-4152444D01*
X400000Y-524000D01*
X419685Y-456961D01*
X472489Y-411206D01*
X524000Y-400000D01*
X7825500Y-400000D01*
X7892539Y-419685D01*
G37*
%TD.AperFunction*%
%TA.AperFunction,Conductor*%
G36*
X58745795Y-50673682D02*
G01*
X58762712Y-50674892D01*
X58777679Y-50686096D01*
X58795100Y-50692879D01*
X58817417Y-50715843D01*
X58818646Y-50716763D01*
X58819698Y-50718190D01*
X58842443Y-50749497D01*
X58842447Y-50749501D01*
X58970499Y-50877553D01*
X59117006Y-50983996D01*
X59117010Y-50983998D01*
X59118385Y-50984997D01*
X59161051Y-51040327D01*
X59169500Y-51085316D01*
X59169500Y-51454683D01*
X59149815Y-51521722D01*
X59118385Y-51555001D01*
X58970505Y-51662441D01*
X58970500Y-51662445D01*
X58842445Y-51790500D01*
X58842441Y-51790505D01*
X58736006Y-51937002D01*
X58653788Y-52098360D01*
X58653787Y-52098363D01*
X58597829Y-52270589D01*
X58569500Y-52449448D01*
X58569500Y-52630551D01*
X58597829Y-52809410D01*
X58653787Y-52981636D01*
X58653788Y-52981637D01*
X58653789Y-52981639D01*
X58729166Y-53129574D01*
X58736006Y-53142997D01*
X58842441Y-53289494D01*
X58842445Y-53289499D01*
X58970500Y-53417554D01*
X58970505Y-53417558D01*
X59019811Y-53453381D01*
X59062477Y-53508710D01*
X59068456Y-53578324D01*
X59035851Y-53640119D01*
X58975012Y-53674476D01*
X58946926Y-53677699D01*
X56002155Y-53677699D01*
X55935116Y-53658014D01*
X55889361Y-53605210D01*
X55879417Y-53536052D01*
X55908442Y-53472496D01*
X55914457Y-53466034D01*
X56200706Y-53179784D01*
X56200711Y-53179781D01*
X56210911Y-53169580D01*
X56210913Y-53169580D01*
X56285480Y-53095013D01*
X56338207Y-53003687D01*
X56344115Y-52981639D01*
X56365501Y-52901827D01*
X56365501Y-52796373D01*
X56365501Y-52788778D01*
X56365500Y-52788760D01*
X56365500Y-52394254D01*
X56385185Y-52327215D01*
X56401819Y-52306573D01*
X57001573Y-51706819D01*
X57062896Y-51673334D01*
X57089254Y-51670500D01*
X57551425Y-51670500D01*
X57551427Y-51670500D01*
X57653288Y-51643207D01*
X57744613Y-51590480D01*
X58631700Y-50703391D01*
X58648105Y-50694433D01*
X58661513Y-50681404D01*
X58678135Y-50678035D01*
X58693021Y-50669908D01*
X58711668Y-50671241D01*
X58729992Y-50667529D01*
X58745795Y-50673682D01*
G37*
%TD.AperFunction*%
%TA.AperFunction,Conductor*%
G36*
X70059440Y-39109185D02*
G01*
X70080082Y-39125819D01*
X70123683Y-39169420D01*
X70123685Y-39169421D01*
X70123689Y-39169424D01*
X70235649Y-39234063D01*
X70260615Y-39248477D01*
X70405896Y-39287404D01*
X70465554Y-39323768D01*
X70496083Y-39386614D01*
X70497800Y-39407178D01*
X70497800Y-50421673D01*
X70497800Y-50527127D01*
X70506638Y-50560112D01*
X70525093Y-50628989D01*
X70537328Y-50650180D01*
X70577820Y-50720313D01*
X70577822Y-50720315D01*
X71069879Y-51212372D01*
X71103364Y-51273695D01*
X71098380Y-51343387D01*
X71056508Y-51399320D01*
X71032285Y-51413487D01*
X70977234Y-51437794D01*
X70897794Y-51517234D01*
X70852415Y-51620006D01*
X70852415Y-51620008D01*
X70849500Y-51645131D01*
X70849500Y-53434856D01*
X70849502Y-53434882D01*
X70852413Y-53459987D01*
X70852414Y-53459988D01*
X70852414Y-53459990D01*
X70852415Y-53459991D01*
X70871676Y-53503613D01*
X70880748Y-53572890D01*
X70850925Y-53636076D01*
X70791676Y-53673107D01*
X70758242Y-53677699D01*
X60493074Y-53677699D01*
X60426035Y-53658014D01*
X60380280Y-53605210D01*
X60370336Y-53536052D01*
X60399361Y-53472496D01*
X60420189Y-53453381D01*
X60469494Y-53417558D01*
X60469492Y-53417558D01*
X60469501Y-53417553D01*
X60597553Y-53289501D01*
X60703996Y-53142994D01*
X60786211Y-52981639D01*
X60842171Y-52809409D01*
X60856765Y-52717259D01*
X60870500Y-52630551D01*
X60870500Y-52449448D01*
X60847870Y-52306573D01*
X60842171Y-52270591D01*
X60786211Y-52098361D01*
X60785494Y-52096955D01*
X60785383Y-52096362D01*
X60784346Y-52093858D01*
X60784871Y-52093640D01*
X60772593Y-52028289D01*
X60798863Y-51963546D01*
X60836607Y-51935098D01*
X60835246Y-51932740D01*
X60979209Y-51849623D01*
X60979208Y-51849623D01*
X60979216Y-51849619D01*
X61091020Y-51737815D01*
X61170077Y-51600883D01*
X61211000Y-51448156D01*
X61211000Y-51360077D01*
X61227614Y-51298075D01*
X61252606Y-51254789D01*
X61256207Y-51241350D01*
X61279900Y-51152926D01*
X61279900Y-51047472D01*
X61279900Y-48173155D01*
X61299585Y-48106116D01*
X61316219Y-48085474D01*
X65000274Y-44401419D01*
X65061597Y-44367934D01*
X65087955Y-44365100D01*
X65149755Y-44365100D01*
X65149757Y-44365100D01*
X65302484Y-44324177D01*
X65439416Y-44245120D01*
X65551220Y-44133316D01*
X65630277Y-43996384D01*
X65671200Y-43843657D01*
X65671200Y-43685543D01*
X65630277Y-43532816D01*
X65576288Y-43439303D01*
X65551224Y-43395890D01*
X65551218Y-43395882D01*
X65476145Y-43320809D01*
X65442660Y-43259486D01*
X65447644Y-43189794D01*
X65476145Y-43145447D01*
X66491374Y-42130219D01*
X67564374Y-41057219D01*
X67625697Y-41023734D01*
X67652055Y-41020900D01*
X67904302Y-41020900D01*
X67971341Y-41040585D01*
X67991983Y-41057219D01*
X68035684Y-41100920D01*
X68035686Y-41100921D01*
X68035690Y-41100924D01*
X68110088Y-41143877D01*
X68172616Y-41179977D01*
X68325343Y-41220900D01*
X68325345Y-41220900D01*
X68483455Y-41220900D01*
X68483457Y-41220900D01*
X68636184Y-41179977D01*
X68773116Y-41100920D01*
X68884920Y-40989116D01*
X68963977Y-40852184D01*
X69004900Y-40699457D01*
X69004900Y-40601393D01*
X69024585Y-40534354D01*
X69077389Y-40488599D01*
X69146547Y-40478655D01*
X69160970Y-40481613D01*
X69301243Y-40519199D01*
X69301246Y-40519199D01*
X69459355Y-40519199D01*
X69459357Y-40519199D01*
X69612084Y-40478276D01*
X69749016Y-40399219D01*
X69860820Y-40287415D01*
X69939877Y-40150483D01*
X69980800Y-39997756D01*
X69980800Y-39839642D01*
X69939877Y-39686915D01*
X69897813Y-39614057D01*
X69860824Y-39549989D01*
X69860818Y-39549981D01*
X69749017Y-39438180D01*
X69749009Y-39438174D01*
X69612090Y-39359125D01*
X69612086Y-39359123D01*
X69612084Y-39359122D01*
X69515618Y-39333274D01*
X69455959Y-39296910D01*
X69425430Y-39234063D01*
X69433725Y-39164687D01*
X69478210Y-39110810D01*
X69544762Y-39089535D01*
X69547713Y-39089500D01*
X69992401Y-39089500D01*
X70059440Y-39109185D01*
G37*
%TD.AperFunction*%
%TA.AperFunction,Conductor*%
G36*
X117636925Y-13320117D02*
G01*
X117661156Y-13321850D01*
X117670174Y-13328601D01*
X117681088Y-13331386D01*
X117697643Y-13349164D01*
X117717089Y-13363722D01*
X117721024Y-13374274D01*
X117728702Y-13382519D01*
X117733016Y-13406425D01*
X117741506Y-13429186D01*
X117739433Y-13441978D01*
X117741112Y-13451278D01*
X117732387Y-13485476D01*
X117732123Y-13486113D01*
X117732122Y-13486115D01*
X117732122Y-13486116D01*
X117696412Y-13619387D01*
X117691199Y-13638843D01*
X117691199Y-13700644D01*
X117671514Y-13767683D01*
X117654880Y-13788325D01*
X117422180Y-14021024D01*
X117422158Y-14021047D01*
X116689536Y-14753291D01*
X116684130Y-14758694D01*
X116684087Y-14758720D01*
X116648580Y-14794225D01*
X116646518Y-14796287D01*
X116646519Y-14796287D01*
X116609555Y-14833232D01*
X116609538Y-14833255D01*
X116583509Y-14878338D01*
X116583495Y-14878362D01*
X116556828Y-14924523D01*
X116556797Y-14924597D01*
X116543462Y-14974365D01*
X116543454Y-14974393D01*
X116529512Y-15026372D01*
X116529500Y-15026459D01*
X116529500Y-15077176D01*
X116529484Y-15139843D01*
X116529500Y-15140086D01*
X116529500Y-15673544D01*
X116509815Y-15740583D01*
X116493181Y-15761225D01*
X115639522Y-16614883D01*
X115639520Y-16614886D01*
X115586794Y-16706208D01*
X115586793Y-16706210D01*
X115586793Y-16706211D01*
X115578243Y-16738120D01*
X115578242Y-16738121D01*
X115559500Y-16808070D01*
X115559500Y-21275602D01*
X115539815Y-21342641D01*
X115523181Y-21363283D01*
X115479481Y-21406982D01*
X115479475Y-21406990D01*
X115400426Y-21543909D01*
X115400423Y-21543916D01*
X115359500Y-21696643D01*
X115359500Y-21854757D01*
X115364080Y-21871847D01*
X115400423Y-22007483D01*
X115400426Y-22007490D01*
X115479475Y-22144409D01*
X115479479Y-22144414D01*
X115479480Y-22144416D01*
X115591284Y-22256220D01*
X115591286Y-22256221D01*
X115591290Y-22256224D01*
X115714915Y-22327598D01*
X115728216Y-22335277D01*
X115880943Y-22376200D01*
X115880945Y-22376200D01*
X116039455Y-22376200D01*
X116039457Y-22376200D01*
X116192184Y-22335277D01*
X116329116Y-22256220D01*
X116345419Y-22239917D01*
X116406742Y-22206432D01*
X116476434Y-22211416D01*
X116532367Y-22253288D01*
X116556784Y-22318752D01*
X116557100Y-22327598D01*
X116557100Y-31810744D01*
X116537415Y-31877783D01*
X116520781Y-31898425D01*
X94777826Y-53641380D01*
X94716503Y-53674865D01*
X94690145Y-53677699D01*
X93635456Y-53677699D01*
X93568417Y-53658014D01*
X93522662Y-53605210D01*
X93512718Y-53536052D01*
X93541743Y-53472496D01*
X93547775Y-53466018D01*
X93596240Y-53417553D01*
X93742180Y-53271613D01*
X93794907Y-53180288D01*
X93822200Y-53078427D01*
X93822200Y-52972973D01*
X93822200Y-52569853D01*
X93841885Y-52502814D01*
X93858519Y-52482172D01*
X94633874Y-51706819D01*
X94695197Y-51673334D01*
X94721555Y-51670500D01*
X95172373Y-51670500D01*
X95172377Y-51670501D01*
X95277831Y-51670500D01*
X95325967Y-51657601D01*
X95354508Y-51649953D01*
X95379686Y-51643208D01*
X95379688Y-51643207D01*
X95471013Y-51590480D01*
X105598680Y-41462813D01*
X105630280Y-41408080D01*
X105651407Y-41371487D01*
X105678700Y-41269627D01*
X105678700Y-33230295D01*
X105698385Y-33163256D01*
X105751189Y-33117501D01*
X105820347Y-33107557D01*
X105834768Y-33110514D01*
X105942943Y-33139500D01*
X105942946Y-33139500D01*
X106101355Y-33139500D01*
X106101357Y-33139500D01*
X106254084Y-33098577D01*
X106391016Y-33019520D01*
X106502820Y-32907716D01*
X106581877Y-32770784D01*
X106622800Y-32618057D01*
X106622800Y-32459943D01*
X106581877Y-32307216D01*
X106567367Y-32282083D01*
X106502824Y-32170290D01*
X106502818Y-32170282D01*
X106459119Y-32126583D01*
X106425634Y-32065260D01*
X106422800Y-32038902D01*
X106422800Y-23191153D01*
X106442485Y-23124114D01*
X106459114Y-23103477D01*
X108221819Y-21340771D01*
X108241249Y-21330162D01*
X108257986Y-21315660D01*
X108271320Y-21313742D01*
X108283141Y-21307288D01*
X108305226Y-21308867D01*
X108327144Y-21305716D01*
X108339395Y-21311311D01*
X108352833Y-21312272D01*
X108370560Y-21325542D01*
X108390700Y-21334740D01*
X108397982Y-21346071D01*
X108408766Y-21354144D01*
X108416503Y-21374888D01*
X108428476Y-21393517D01*
X108431627Y-21415438D01*
X108433183Y-21419608D01*
X108433499Y-21428452D01*
X108433500Y-21489343D01*
X108433500Y-32241202D01*
X108413815Y-32308241D01*
X108397181Y-32328883D01*
X108353481Y-32372582D01*
X108353475Y-32372590D01*
X108274426Y-32509509D01*
X108274423Y-32509516D01*
X108233500Y-32662243D01*
X108233500Y-32820357D01*
X108273922Y-32971212D01*
X108274423Y-32973083D01*
X108274426Y-32973090D01*
X108353475Y-33110009D01*
X108353479Y-33110014D01*
X108353480Y-33110016D01*
X108465284Y-33221820D01*
X108465286Y-33221821D01*
X108465290Y-33221824D01*
X108586018Y-33291525D01*
X108602216Y-33300877D01*
X108754943Y-33341800D01*
X108754945Y-33341800D01*
X108913155Y-33341800D01*
X108913157Y-33341800D01*
X109065884Y-33300877D01*
X109202816Y-33221820D01*
X109314620Y-33110016D01*
X109393677Y-32973084D01*
X109434600Y-32820357D01*
X109434600Y-32662243D01*
X109393677Y-32509516D01*
X109381210Y-32487922D01*
X109314624Y-32372590D01*
X109314618Y-32372582D01*
X109270919Y-32328883D01*
X109237434Y-32267560D01*
X109234600Y-32241202D01*
X109234600Y-21697255D01*
X109254285Y-21630216D01*
X109270919Y-21609574D01*
X113398010Y-17482483D01*
X117530143Y-13350349D01*
X117540027Y-13344952D01*
X117547095Y-13336181D01*
X117570144Y-13328507D01*
X117591464Y-13316866D01*
X117602698Y-13317669D01*
X117613387Y-13314111D01*
X117636925Y-13320117D01*
G37*
%TD.AperFunction*%
%TA.AperFunction,Conductor*%
G36*
X93504028Y-20087616D02*
G01*
X93510882Y-20087050D01*
X93536047Y-20100434D01*
X93562508Y-20111027D01*
X93572293Y-20119711D01*
X93572569Y-20119858D01*
X93572678Y-20120053D01*
X93573538Y-20120816D01*
X97066764Y-23613992D01*
X97302413Y-23849638D01*
X97302412Y-23849638D01*
X97307396Y-23854622D01*
X97307400Y-23854628D01*
X97350183Y-23897408D01*
X97361354Y-23908579D01*
X98235385Y-24782691D01*
X98268867Y-24844014D01*
X98271700Y-24870367D01*
X98271700Y-39563293D01*
X98264591Y-39599033D01*
X98265827Y-39599365D01*
X98263723Y-39607214D01*
X98263723Y-39607216D01*
X98222800Y-39759943D01*
X98222800Y-39918057D01*
X98228862Y-39940681D01*
X98265827Y-40078636D01*
X98264589Y-40078967D01*
X98271700Y-40114707D01*
X98271700Y-43218412D01*
X98252015Y-43285451D01*
X98235381Y-43306093D01*
X92698170Y-48843303D01*
X92636847Y-48876788D01*
X92591091Y-48878095D01*
X92410551Y-48849500D01*
X92410546Y-48849500D01*
X92229454Y-48849500D01*
X92229449Y-48849500D01*
X92050589Y-48877829D01*
X91878363Y-48933787D01*
X91878360Y-48933788D01*
X91717002Y-49016006D01*
X91570505Y-49122441D01*
X91570500Y-49122445D01*
X91442445Y-49250500D01*
X91442441Y-49250505D01*
X91336006Y-49397002D01*
X91253788Y-49558360D01*
X91253787Y-49558363D01*
X91197829Y-49730589D01*
X91169500Y-49909448D01*
X91169500Y-50090551D01*
X91197829Y-50269410D01*
X91253787Y-50441636D01*
X91253788Y-50441639D01*
X91298672Y-50529726D01*
X91336003Y-50602993D01*
X91336006Y-50602997D01*
X91442441Y-50749494D01*
X91442445Y-50749499D01*
X91442447Y-50749501D01*
X91570499Y-50877553D01*
X91717006Y-50983996D01*
X91717010Y-50983998D01*
X91718385Y-50984997D01*
X91761051Y-51040327D01*
X91769500Y-51085316D01*
X91769500Y-51454683D01*
X91749815Y-51521722D01*
X91718385Y-51555001D01*
X91570505Y-51662441D01*
X91570500Y-51662445D01*
X91442445Y-51790500D01*
X91442441Y-51790505D01*
X91336006Y-51937002D01*
X91253788Y-52098360D01*
X91253787Y-52098363D01*
X91197829Y-52270589D01*
X91169500Y-52449448D01*
X91169500Y-52630551D01*
X91197829Y-52809410D01*
X91253787Y-52981636D01*
X91253788Y-52981637D01*
X91253789Y-52981639D01*
X91311557Y-53095015D01*
X91335857Y-53142705D01*
X91348753Y-53211374D01*
X91322477Y-53276114D01*
X91265371Y-53316372D01*
X91225372Y-53323000D01*
X88334628Y-53323000D01*
X88267589Y-53303315D01*
X88221834Y-53250511D01*
X88211890Y-53181353D01*
X88224143Y-53142705D01*
X88248443Y-53095015D01*
X88306211Y-52981639D01*
X88362171Y-52809409D01*
X88376765Y-52717259D01*
X88390500Y-52630551D01*
X88390500Y-52449448D01*
X88367870Y-52306573D01*
X88362171Y-52270591D01*
X88315424Y-52126716D01*
X88313429Y-52056875D01*
X88345672Y-52000719D01*
X88997580Y-51348813D01*
X89039901Y-51275511D01*
X89050307Y-51257487D01*
X89077600Y-51155627D01*
X89077600Y-24053254D01*
X89097285Y-23986215D01*
X89113919Y-23965573D01*
X90494073Y-22585419D01*
X90555396Y-22551934D01*
X90581754Y-22549100D01*
X90643555Y-22549100D01*
X90643557Y-22549100D01*
X90796284Y-22508177D01*
X90933216Y-22429120D01*
X91045020Y-22317316D01*
X91124077Y-22180384D01*
X91165000Y-22027657D01*
X91165000Y-21869543D01*
X91124077Y-21716816D01*
X91104242Y-21682461D01*
X91045024Y-21579890D01*
X91045018Y-21579882D01*
X90969944Y-21504808D01*
X90936459Y-21443485D01*
X90941443Y-21373793D01*
X90969942Y-21329448D01*
X91465683Y-20833707D01*
X91527004Y-20800224D01*
X91596696Y-20805208D01*
X91615363Y-20814004D01*
X91625016Y-20819577D01*
X91777743Y-20860500D01*
X91777745Y-20860500D01*
X91935855Y-20860500D01*
X91935857Y-20860500D01*
X92088584Y-20819577D01*
X92225516Y-20740520D01*
X92238419Y-20727617D01*
X92299742Y-20694132D01*
X92369434Y-20699116D01*
X92425367Y-20740988D01*
X92449784Y-20806452D01*
X92450100Y-20815298D01*
X92450100Y-43577445D01*
X92430415Y-43644484D01*
X92413781Y-43665126D01*
X90178926Y-45899981D01*
X90117603Y-45933466D01*
X90091245Y-45936300D01*
X90029443Y-45936300D01*
X89876716Y-45977223D01*
X89876709Y-45977226D01*
X89739790Y-46056275D01*
X89739782Y-46056281D01*
X89627981Y-46168082D01*
X89627975Y-46168090D01*
X89548926Y-46305009D01*
X89548923Y-46305016D01*
X89508000Y-46457743D01*
X89508000Y-46615857D01*
X89547146Y-46761950D01*
X89548923Y-46768583D01*
X89548926Y-46768590D01*
X89627975Y-46905509D01*
X89627979Y-46905514D01*
X89627980Y-46905516D01*
X89739784Y-47017320D01*
X89739786Y-47017321D01*
X89739790Y-47017324D01*
X89830149Y-47069492D01*
X89876716Y-47096377D01*
X90029443Y-47137300D01*
X90029445Y-47137300D01*
X90187555Y-47137300D01*
X90187557Y-47137300D01*
X90340284Y-47096377D01*
X90477216Y-47017320D01*
X90589020Y-46905516D01*
X90668077Y-46768584D01*
X90709000Y-46615857D01*
X90709000Y-46554055D01*
X90728685Y-46487016D01*
X90745319Y-46466374D01*
X91949719Y-45261974D01*
X93171080Y-44040613D01*
X93223807Y-43949288D01*
X93251100Y-43847427D01*
X93251100Y-43741973D01*
X93251100Y-20359898D01*
X93270785Y-20292859D01*
X93275021Y-20286684D01*
X93280659Y-20278976D01*
X93331120Y-20228516D01*
X93381829Y-20140683D01*
X93385779Y-20135285D01*
X93408408Y-20117953D01*
X93429036Y-20098284D01*
X93435789Y-20096982D01*
X93441249Y-20092801D01*
X93469652Y-20090455D01*
X93497643Y-20085060D01*
X93504028Y-20087616D01*
G37*
%TD.AperFunction*%
%TA.AperFunction,Conductor*%
G36*
X60273441Y-46499685D02*
G01*
X60294083Y-46516319D01*
X60337784Y-46560020D01*
X60337786Y-46560021D01*
X60337790Y-46560024D01*
X60474709Y-46639073D01*
X60474716Y-46639077D01*
X60563025Y-46662739D01*
X60622684Y-46699103D01*
X60653213Y-46761950D01*
X60644918Y-46831325D01*
X60618611Y-46870194D01*
X58129522Y-49359284D01*
X58129518Y-49359290D01*
X58076792Y-49450612D01*
X58076793Y-49450613D01*
X58049500Y-49552473D01*
X58049500Y-50101445D01*
X58029815Y-50168484D01*
X58013181Y-50189126D01*
X57369126Y-50833181D01*
X57307803Y-50866666D01*
X57281445Y-50869500D01*
X56932339Y-50869500D01*
X56932323Y-50869499D01*
X56924727Y-50869499D01*
X56819273Y-50869499D01*
X56768552Y-50883090D01*
X56717412Y-50896793D01*
X56626084Y-50949522D01*
X56551518Y-51024089D01*
X55732803Y-51842802D01*
X55671480Y-51876287D01*
X55601788Y-51871303D01*
X55545855Y-51829431D01*
X55544803Y-51828006D01*
X55542153Y-51824359D01*
X55517553Y-51790499D01*
X55389501Y-51662447D01*
X55389499Y-51662445D01*
X55389494Y-51662441D01*
X55242997Y-51556006D01*
X55242996Y-51556005D01*
X55242994Y-51556004D01*
X55166906Y-51517235D01*
X55081639Y-51473788D01*
X55081636Y-51473787D01*
X54909410Y-51417829D01*
X54730551Y-51389500D01*
X54730546Y-51389500D01*
X54549454Y-51389500D01*
X54549449Y-51389500D01*
X54370589Y-51417829D01*
X54198363Y-51473787D01*
X54198360Y-51473788D01*
X54037002Y-51556006D01*
X53890505Y-51662441D01*
X53890500Y-51662445D01*
X53762445Y-51790500D01*
X53762441Y-51790505D01*
X53656006Y-51937002D01*
X53573788Y-52098360D01*
X53573787Y-52098363D01*
X53517829Y-52270589D01*
X53492473Y-52430678D01*
X53462544Y-52493813D01*
X53403232Y-52530744D01*
X53333369Y-52529746D01*
X53275137Y-52491136D01*
X53247527Y-52430678D01*
X53227870Y-52306573D01*
X53222171Y-52270591D01*
X53181241Y-52144618D01*
X53166212Y-52098363D01*
X53166211Y-52098360D01*
X53130507Y-52028289D01*
X53083996Y-51937006D01*
X53052400Y-51893517D01*
X52977558Y-51790505D01*
X52977554Y-51790500D01*
X52849499Y-51662445D01*
X52815698Y-51637887D01*
X52773033Y-51582556D01*
X52767054Y-51512943D01*
X52799660Y-51451148D01*
X52800822Y-51449969D01*
X53690480Y-50560313D01*
X53690596Y-50560112D01*
X53743207Y-50468987D01*
X53770500Y-50367127D01*
X53770500Y-49887655D01*
X53790185Y-49820616D01*
X53806819Y-49799974D01*
X57090474Y-46516319D01*
X57151797Y-46482834D01*
X57178155Y-46480000D01*
X60206402Y-46480000D01*
X60273441Y-46499685D01*
G37*
%TD.AperFunction*%
%TA.AperFunction,Conductor*%
G36*
X88195934Y-24205971D02*
G01*
X88251867Y-24247843D01*
X88276284Y-24313307D01*
X88276600Y-24322153D01*
X88276600Y-50885644D01*
X88256915Y-50952683D01*
X88240281Y-50973325D01*
X87779281Y-51434325D01*
X87717958Y-51467810D01*
X87653283Y-51464575D01*
X87509411Y-51417829D01*
X87509412Y-51417829D01*
X87330551Y-51389500D01*
X87330546Y-51389500D01*
X87149454Y-51389500D01*
X87149449Y-51389500D01*
X86970589Y-51417829D01*
X86798363Y-51473787D01*
X86798360Y-51473788D01*
X86637002Y-51556006D01*
X86490505Y-51662441D01*
X86490500Y-51662445D01*
X86362445Y-51790500D01*
X86362441Y-51790505D01*
X86256006Y-51937002D01*
X86173788Y-52098360D01*
X86173787Y-52098363D01*
X86117829Y-52270589D01*
X86092473Y-52430678D01*
X86062544Y-52493813D01*
X86003232Y-52530744D01*
X85933369Y-52529746D01*
X85875137Y-52491136D01*
X85847527Y-52430678D01*
X85827870Y-52306573D01*
X85822171Y-52270591D01*
X85781241Y-52144618D01*
X85766212Y-52098363D01*
X85766211Y-52098360D01*
X85730507Y-52028289D01*
X85683996Y-51937006D01*
X85652400Y-51893517D01*
X85577558Y-51790505D01*
X85577554Y-51790500D01*
X85449499Y-51662445D01*
X85449494Y-51662441D01*
X85302997Y-51556006D01*
X85302996Y-51556005D01*
X85302994Y-51556004D01*
X85226906Y-51517235D01*
X85141639Y-51473788D01*
X85141636Y-51473787D01*
X84969410Y-51417829D01*
X84809321Y-51392473D01*
X84746186Y-51362544D01*
X84709255Y-51303232D01*
X84710253Y-51233370D01*
X84748863Y-51175137D01*
X84809321Y-51147527D01*
X84879425Y-51136422D01*
X84969409Y-51122171D01*
X85141639Y-51066211D01*
X85302994Y-50983996D01*
X85449501Y-50877553D01*
X85577553Y-50749501D01*
X85683996Y-50602994D01*
X85766211Y-50441639D01*
X85822171Y-50269409D01*
X85840639Y-50152807D01*
X85850500Y-50090551D01*
X85850500Y-49909448D01*
X85833160Y-49799974D01*
X85822171Y-49730591D01*
X85766211Y-49558361D01*
X85766211Y-49558360D01*
X85729599Y-49486506D01*
X85683996Y-49397006D01*
X85656590Y-49359284D01*
X85577558Y-49250505D01*
X85577554Y-49250500D01*
X85449499Y-49122445D01*
X85449494Y-49122441D01*
X85302997Y-49016006D01*
X85302996Y-49016005D01*
X85302994Y-49016004D01*
X85168205Y-48947325D01*
X85117409Y-48899350D01*
X85100500Y-48836840D01*
X85100500Y-32619872D01*
X85094659Y-32598072D01*
X85073207Y-32518011D01*
X85020480Y-32426686D01*
X83859991Y-31266197D01*
X82662454Y-30068661D01*
X82658047Y-30064021D01*
X82649287Y-30054307D01*
X82632820Y-30025784D01*
X82538625Y-29931589D01*
X82536487Y-29929218D01*
X82522675Y-29900493D01*
X82507409Y-29872535D01*
X82507645Y-29869233D01*
X82506210Y-29866249D01*
X82510120Y-29834619D01*
X82512393Y-29802843D01*
X82514443Y-29799652D01*
X82514783Y-29796908D01*
X82521030Y-29789402D01*
X82540892Y-29758498D01*
X88064921Y-24234470D01*
X88126242Y-24200987D01*
X88195934Y-24205971D01*
G37*
%TD.AperFunction*%
%TA.AperFunction,Conductor*%
G36*
X104796834Y-39191073D02*
G01*
X104852767Y-39232945D01*
X104877184Y-39298409D01*
X104877500Y-39307255D01*
X104877500Y-40999648D01*
X104857815Y-41066687D01*
X104841182Y-41087328D01*
X95095525Y-50833180D01*
X95034202Y-50866666D01*
X95007843Y-50869500D01*
X94451573Y-50869500D01*
X94349713Y-50896793D01*
X94349710Y-50896794D01*
X94258385Y-50949521D01*
X94183818Y-51024089D01*
X93392731Y-51815175D01*
X93331408Y-51848660D01*
X93261716Y-51843676D01*
X93205783Y-51801804D01*
X93204731Y-51800378D01*
X93197556Y-51790502D01*
X93069499Y-51662445D01*
X93069494Y-51662441D01*
X92921615Y-51555001D01*
X92878949Y-51499671D01*
X92870500Y-51454683D01*
X92870500Y-51085316D01*
X92890185Y-51018277D01*
X92921615Y-50984997D01*
X92922989Y-50983998D01*
X92922994Y-50983996D01*
X93069501Y-50877553D01*
X93197553Y-50749501D01*
X93303996Y-50602994D01*
X93386211Y-50441639D01*
X93442171Y-50269409D01*
X93460639Y-50152807D01*
X93470500Y-50090551D01*
X93470500Y-49909448D01*
X93441904Y-49728906D01*
X93450858Y-49659613D01*
X93476693Y-49621830D01*
X95925863Y-47172661D01*
X95987186Y-47139176D01*
X96056878Y-47144160D01*
X96101225Y-47172661D01*
X96179684Y-47251120D01*
X96179686Y-47251121D01*
X96179690Y-47251124D01*
X96226382Y-47278081D01*
X96316616Y-47330177D01*
X96469343Y-47371100D01*
X96469345Y-47371100D01*
X96627455Y-47371100D01*
X96627457Y-47371100D01*
X96780184Y-47330177D01*
X96917116Y-47251120D01*
X97028920Y-47139316D01*
X97107977Y-47002384D01*
X97148900Y-46849657D01*
X97148900Y-46787855D01*
X97168585Y-46720816D01*
X97185219Y-46700174D01*
X104665819Y-39219574D01*
X104727142Y-39186089D01*
X104796834Y-39191073D01*
G37*
%TD.AperFunction*%
%TA.AperFunction,Conductor*%
G36*
X35835574Y-22079387D02*
G01*
X35865540Y-22079028D01*
X35870055Y-22081853D01*
X35875372Y-22082234D01*
X35899367Y-22100197D01*
X35924768Y-22116093D01*
X35927039Y-22120912D01*
X35931305Y-22124106D01*
X35941777Y-22152184D01*
X35954555Y-22179295D01*
X35954643Y-22186679D01*
X35955722Y-22189570D01*
X35955360Y-22201746D01*
X35955600Y-22201746D01*
X35955600Y-22209873D01*
X35955600Y-22666673D01*
X35955600Y-22772127D01*
X35961262Y-22793257D01*
X35982893Y-22873989D01*
X36008539Y-22918407D01*
X36035620Y-22965313D01*
X36433487Y-23363180D01*
X36524812Y-23415907D01*
X36626673Y-23443200D01*
X36732127Y-23443200D01*
X38256345Y-23443200D01*
X38323384Y-23462885D01*
X38369139Y-23515689D01*
X38379083Y-23584847D01*
X38350058Y-23648403D01*
X38344026Y-23654881D01*
X26379522Y-35619384D01*
X26379520Y-35619387D01*
X26326793Y-35710711D01*
X26306810Y-35785291D01*
X26299500Y-35812571D01*
X26299500Y-48836840D01*
X26279815Y-48903879D01*
X26231795Y-48947325D01*
X26097002Y-49016006D01*
X25950505Y-49122441D01*
X25950500Y-49122445D01*
X25822445Y-49250500D01*
X25822441Y-49250505D01*
X25716006Y-49397002D01*
X25633788Y-49558360D01*
X25633787Y-49558363D01*
X25577829Y-49730589D01*
X25552473Y-49890678D01*
X25522544Y-49953813D01*
X25463232Y-49990744D01*
X25393369Y-49989746D01*
X25335137Y-49951136D01*
X25307527Y-49890678D01*
X25293160Y-49799974D01*
X25282171Y-49730591D01*
X25226211Y-49558361D01*
X25226211Y-49558360D01*
X25189599Y-49486506D01*
X25143996Y-49397006D01*
X25116590Y-49359284D01*
X25037558Y-49250505D01*
X25037554Y-49250500D01*
X24909499Y-49122445D01*
X24909494Y-49122441D01*
X24762997Y-49016006D01*
X24762996Y-49016005D01*
X24762994Y-49016004D01*
X24699045Y-48983420D01*
X24601639Y-48933788D01*
X24601636Y-48933787D01*
X24429410Y-48877829D01*
X24250551Y-48849500D01*
X24250546Y-48849500D01*
X24069454Y-48849500D01*
X24069449Y-48849500D01*
X23890589Y-48877829D01*
X23718363Y-48933787D01*
X23718360Y-48933788D01*
X23557006Y-49016003D01*
X23487385Y-49066586D01*
X23421578Y-49090065D01*
X23353524Y-49074239D01*
X23304830Y-49024133D01*
X23290500Y-48966267D01*
X23290500Y-34615955D01*
X23310185Y-34548916D01*
X23326819Y-34528274D01*
X29523080Y-28332013D01*
X35744359Y-22110733D01*
X35770655Y-22096374D01*
X35795676Y-22079867D01*
X35801004Y-22079803D01*
X35805680Y-22077250D01*
X35835574Y-22079387D01*
G37*
%TD.AperFunction*%
%TA.AperFunction,Conductor*%
G36*
X35268933Y-30839773D02*
G01*
X35324866Y-30881645D01*
X35349283Y-30947109D01*
X35349599Y-30955955D01*
X35349599Y-49103183D01*
X35329914Y-49170222D01*
X35277110Y-49215977D01*
X35207952Y-49225921D01*
X35144396Y-49196896D01*
X35137918Y-49190864D01*
X35069499Y-49122445D01*
X35069494Y-49122441D01*
X34922997Y-49016006D01*
X34922996Y-49016005D01*
X34922994Y-49016004D01*
X34788205Y-48947325D01*
X34737409Y-48899350D01*
X34720500Y-48836840D01*
X34720500Y-31337054D01*
X34740185Y-31270015D01*
X34756819Y-31249373D01*
X35137918Y-30868274D01*
X35199241Y-30834789D01*
X35268933Y-30839773D01*
G37*
%TD.AperFunction*%
%TA.AperFunction,Conductor*%
G36*
X87810983Y-3431985D02*
G01*
X87856738Y-3484789D01*
X87866682Y-3553947D01*
X87837657Y-3617503D01*
X87831625Y-3623981D01*
X87657822Y-3797783D01*
X87657818Y-3797789D01*
X87605092Y-3889112D01*
X87599634Y-3909484D01*
X87599634Y-3909486D01*
X87577800Y-3990972D01*
X87577800Y-4459745D01*
X87558115Y-4526784D01*
X87541481Y-4547426D01*
X86793526Y-5295381D01*
X86732203Y-5328866D01*
X86705845Y-5331700D01*
X86219073Y-5331700D01*
X86117210Y-5358993D01*
X86025887Y-5411720D01*
X86025884Y-5411722D01*
X85327658Y-6109948D01*
X85266335Y-6143433D01*
X85196643Y-6138449D01*
X85140710Y-6096577D01*
X85126543Y-6072353D01*
X85102206Y-6017235D01*
X85022765Y-5937794D01*
X84919992Y-5892415D01*
X84894865Y-5889500D01*
X83105143Y-5889500D01*
X83105117Y-5889502D01*
X83080012Y-5892413D01*
X83080008Y-5892415D01*
X82977235Y-5937793D01*
X82897794Y-6017234D01*
X82852415Y-6120006D01*
X82852415Y-6120008D01*
X82849500Y-6145131D01*
X82849500Y-7934856D01*
X82849502Y-7934882D01*
X82852413Y-7959987D01*
X82852415Y-7959991D01*
X82897793Y-8062764D01*
X82897794Y-8062765D01*
X82977235Y-8142206D01*
X83080009Y-8187585D01*
X83105135Y-8190500D01*
X84894864Y-8190499D01*
X84894879Y-8190497D01*
X84894882Y-8190497D01*
X84919987Y-8187586D01*
X84919988Y-8187585D01*
X84919991Y-8187585D01*
X85022765Y-8142206D01*
X85102206Y-8062765D01*
X85147585Y-7959991D01*
X85150500Y-7934865D01*
X85150500Y-7536700D01*
X85170185Y-7469661D01*
X85222989Y-7423906D01*
X85223053Y-7423876D01*
X85232433Y-7419598D01*
X85256287Y-7413207D01*
X85293250Y-7391866D01*
X85298650Y-7389404D01*
X85327585Y-7385260D01*
X85355996Y-7378368D01*
X85361768Y-7380365D01*
X85367814Y-7379500D01*
X85394399Y-7391659D01*
X85422023Y-7401220D01*
X85425798Y-7406020D01*
X85431353Y-7408561D01*
X85447145Y-7433164D01*
X85465214Y-7456141D01*
X85468028Y-7463909D01*
X85473789Y-7481639D01*
X85473788Y-7481639D01*
X85500027Y-7533134D01*
X85548274Y-7627824D01*
X85556006Y-7642997D01*
X85662441Y-7789494D01*
X85662445Y-7789499D01*
X85790500Y-7917554D01*
X85790505Y-7917558D01*
X85899469Y-7996724D01*
X85937006Y-8023996D01*
X86038629Y-8075776D01*
X86098360Y-8106211D01*
X86098363Y-8106212D01*
X86153680Y-8124185D01*
X86270591Y-8162171D01*
X86348516Y-8174513D01*
X86449449Y-8190500D01*
X86449454Y-8190500D01*
X86630551Y-8190500D01*
X86717259Y-8176765D01*
X86809409Y-8162171D01*
X86981639Y-8106211D01*
X87142994Y-8023996D01*
X87289501Y-7917553D01*
X87417553Y-7789501D01*
X87523996Y-7642994D01*
X87606211Y-7481639D01*
X87662171Y-7309409D01*
X87683656Y-7173758D01*
X87687527Y-7149321D01*
X87717456Y-7086186D01*
X87776768Y-7049255D01*
X87846630Y-7050253D01*
X87904863Y-7088863D01*
X87932473Y-7149321D01*
X87957829Y-7309410D01*
X88013787Y-7481636D01*
X88013788Y-7481639D01*
X88040027Y-7533134D01*
X88088274Y-7627824D01*
X88096006Y-7642997D01*
X88202441Y-7789494D01*
X88202445Y-7789499D01*
X88330500Y-7917554D01*
X88330505Y-7917558D01*
X88439469Y-7996724D01*
X88477006Y-8023996D01*
X88638361Y-8106211D01*
X88693684Y-8124185D01*
X88751360Y-8163621D01*
X88754477Y-8168133D01*
X88754570Y-8168062D01*
X88759521Y-8174514D01*
X92555181Y-11970174D01*
X92588666Y-12031497D01*
X92591500Y-12057855D01*
X92591500Y-12119657D01*
X92597154Y-12140756D01*
X92632423Y-12272383D01*
X92632426Y-12272390D01*
X92711475Y-12409309D01*
X92711479Y-12409314D01*
X92711480Y-12409316D01*
X92823284Y-12521120D01*
X92823286Y-12521121D01*
X92823290Y-12521124D01*
X92947724Y-12592965D01*
X92960216Y-12600177D01*
X93112943Y-12641100D01*
X93112945Y-12641100D01*
X93271055Y-12641100D01*
X93271057Y-12641100D01*
X93423784Y-12600177D01*
X93560716Y-12521120D01*
X93672520Y-12409316D01*
X93751577Y-12272384D01*
X93792500Y-12119657D01*
X93792500Y-11961543D01*
X93751577Y-11808816D01*
X93708653Y-11734469D01*
X93672524Y-11671890D01*
X93672518Y-11671882D01*
X93560717Y-11560081D01*
X93560709Y-11560075D01*
X93423790Y-11481026D01*
X93423786Y-11481024D01*
X93423784Y-11481023D01*
X93271057Y-11440100D01*
X93271056Y-11440100D01*
X93209255Y-11440100D01*
X93142216Y-11420415D01*
X93121574Y-11403781D01*
X89819636Y-8101843D01*
X89815909Y-8095017D01*
X89809590Y-8090486D01*
X89799400Y-8064785D01*
X89786151Y-8040520D01*
X89786705Y-8032763D01*
X89783840Y-8025535D01*
X89789162Y-7998408D01*
X89791135Y-7970828D01*
X89796135Y-7962869D01*
X89797293Y-7956972D01*
X89809451Y-7941676D01*
X89817862Y-7928292D01*
X89825104Y-7920747D01*
X89829501Y-7917553D01*
X89957553Y-7789501D01*
X89977669Y-7761813D01*
X89983548Y-7755689D01*
X90006795Y-7742370D01*
X90028013Y-7726009D01*
X90036649Y-7725266D01*
X90044173Y-7720957D01*
X90070929Y-7722321D01*
X90097626Y-7720028D01*
X90105295Y-7724074D01*
X90113952Y-7724516D01*
X90135720Y-7740127D01*
X90159422Y-7752633D01*
X90160684Y-7753878D01*
X92691307Y-10284500D01*
X95178687Y-12771880D01*
X95270012Y-12824607D01*
X95371873Y-12851900D01*
X95477327Y-12851900D01*
X96127302Y-12851900D01*
X96194341Y-12871585D01*
X96214983Y-12888219D01*
X96258684Y-12931920D01*
X96258686Y-12931921D01*
X96258690Y-12931924D01*
X96372112Y-12997407D01*
X96395616Y-13010977D01*
X96548343Y-13051900D01*
X96548345Y-13051900D01*
X96706455Y-13051900D01*
X96706457Y-13051900D01*
X96859184Y-13010977D01*
X96996116Y-12931920D01*
X97103393Y-12824642D01*
X97164712Y-12791160D01*
X97234404Y-12796144D01*
X97278752Y-12824645D01*
X97755281Y-13301174D01*
X97788766Y-13362497D01*
X97791600Y-13388855D01*
X97791600Y-15805201D01*
X97771915Y-15872240D01*
X97755281Y-15892882D01*
X97711581Y-15936581D01*
X97711575Y-15936589D01*
X97632526Y-16073508D01*
X97632523Y-16073515D01*
X97591600Y-16226242D01*
X97591600Y-16384356D01*
X97619039Y-16486761D01*
X97629521Y-16525878D01*
X97627858Y-16595727D01*
X97588696Y-16653590D01*
X97541842Y-16677745D01*
X97491916Y-16691123D01*
X97491915Y-16691123D01*
X97491913Y-16691124D01*
X97491909Y-16691126D01*
X97354990Y-16770175D01*
X97354982Y-16770181D01*
X97243181Y-16881982D01*
X97243175Y-16881990D01*
X97164126Y-17018909D01*
X97164123Y-17018916D01*
X97123200Y-17171643D01*
X97123200Y-17329757D01*
X97156967Y-17455775D01*
X97164123Y-17482483D01*
X97164126Y-17482490D01*
X97243175Y-17619409D01*
X97243179Y-17619414D01*
X97243180Y-17619416D01*
X97354984Y-17731220D01*
X97354986Y-17731221D01*
X97354990Y-17731224D01*
X97463460Y-17793848D01*
X97491916Y-17810277D01*
X97542793Y-17823909D01*
X97602452Y-17860272D01*
X97632982Y-17923118D01*
X97634699Y-17943683D01*
X97634699Y-17988757D01*
X97670906Y-18123881D01*
X97675622Y-18141483D01*
X97675625Y-18141490D01*
X97754674Y-18278409D01*
X97754678Y-18278414D01*
X97754679Y-18278416D01*
X97866483Y-18390220D01*
X97866485Y-18390221D01*
X97866489Y-18390224D01*
X97947325Y-18436894D01*
X98003415Y-18469277D01*
X98156142Y-18510200D01*
X98156144Y-18510200D01*
X98314254Y-18510200D01*
X98314256Y-18510200D01*
X98466983Y-18469277D01*
X98603915Y-18390220D01*
X98715719Y-18278416D01*
X98794776Y-18141484D01*
X98835699Y-17988757D01*
X98835699Y-17926954D01*
X98855384Y-17859915D01*
X98872018Y-17839273D01*
X99172173Y-17539118D01*
X99475703Y-17235588D01*
X99475708Y-17235584D01*
X99485911Y-17225380D01*
X99485913Y-17225380D01*
X99560480Y-17150813D01*
X99613207Y-17059487D01*
X99640500Y-16957627D01*
X99640500Y-15591401D01*
X99660185Y-15524362D01*
X99712989Y-15478607D01*
X99782147Y-15468663D01*
X99845703Y-15497688D01*
X99852179Y-15503719D01*
X100481188Y-16132824D01*
X100514668Y-16194149D01*
X100517500Y-16220498D01*
X100517500Y-16282356D01*
X100558218Y-16434316D01*
X100558423Y-16435082D01*
X100558426Y-16435089D01*
X100637475Y-16572008D01*
X100637479Y-16572013D01*
X100637480Y-16572015D01*
X100749284Y-16683819D01*
X100749286Y-16683820D01*
X100749290Y-16683823D01*
X100856700Y-16745835D01*
X100886216Y-16762876D01*
X101038943Y-16803799D01*
X101038945Y-16803799D01*
X101197255Y-16803799D01*
X101197257Y-16803799D01*
X101223407Y-16796792D01*
X101293254Y-16798453D01*
X101351117Y-16837615D01*
X101378623Y-16901842D01*
X101379500Y-16916566D01*
X101379500Y-18045577D01*
X101365803Y-18096693D01*
X101367533Y-18097410D01*
X101364422Y-18104919D01*
X101346112Y-18173252D01*
X101323500Y-18257643D01*
X101323500Y-18415757D01*
X101355934Y-18536800D01*
X101364423Y-18568483D01*
X101364426Y-18568490D01*
X101443475Y-18705409D01*
X101443481Y-18705417D01*
X101524199Y-18786135D01*
X101557684Y-18847458D01*
X101552700Y-18917150D01*
X101524202Y-18961494D01*
X97835563Y-22650377D01*
X97774241Y-22683864D01*
X97704549Y-22678882D01*
X97660200Y-22650382D01*
X94469156Y-19459383D01*
X92416242Y-17406498D01*
X92382757Y-17345175D01*
X92387741Y-17275483D01*
X92429612Y-17219549D01*
X92495076Y-17195132D01*
X92563349Y-17209983D01*
X92565855Y-17211390D01*
X92606016Y-17234577D01*
X92758743Y-17275500D01*
X92758745Y-17275500D01*
X92916855Y-17275500D01*
X92916857Y-17275500D01*
X93069584Y-17234577D01*
X93206516Y-17155520D01*
X93250217Y-17111819D01*
X93311540Y-17078334D01*
X93337898Y-17075500D01*
X94613124Y-17075500D01*
X94613126Y-17075500D01*
X94714987Y-17048207D01*
X94806312Y-16995480D01*
X96535303Y-15266486D01*
X96535308Y-15266483D01*
X96545511Y-15256279D01*
X96545513Y-15256279D01*
X96620080Y-15181712D01*
X96672807Y-15090386D01*
X96678859Y-15067799D01*
X96700101Y-14988526D01*
X96700101Y-14883072D01*
X96700100Y-14883068D01*
X96700100Y-14363873D01*
X96672807Y-14262013D01*
X96620080Y-14170687D01*
X96545513Y-14096120D01*
X96538445Y-14089052D01*
X96211714Y-13762320D01*
X96211706Y-13762314D01*
X96187232Y-13748184D01*
X96187228Y-13748183D01*
X96120387Y-13709592D01*
X96018527Y-13682299D01*
X92437827Y-13682299D01*
X92332373Y-13682299D01*
X92230510Y-13709592D01*
X92139187Y-13762319D01*
X92139184Y-13762321D01*
X74219522Y-31681984D01*
X74219518Y-31681990D01*
X74166792Y-31773312D01*
X74166793Y-31773313D01*
X74139500Y-31875173D01*
X74139500Y-48836840D01*
X74135212Y-48851442D01*
X74135864Y-48866647D01*
X74125568Y-48884285D01*
X74119815Y-48903879D01*
X74107770Y-48914775D01*
X74100642Y-48926989D01*
X74071795Y-48947325D01*
X74009494Y-48979069D01*
X73940825Y-48991965D01*
X73876084Y-48965689D01*
X73835827Y-48908582D01*
X73829199Y-48868584D01*
X73829199Y-25158155D01*
X73848884Y-25091116D01*
X73865518Y-25070474D01*
X81240574Y-17695419D01*
X81301897Y-17661934D01*
X81328255Y-17659100D01*
X81390055Y-17659100D01*
X81390057Y-17659100D01*
X81542784Y-17618177D01*
X81679716Y-17539120D01*
X81791520Y-17427316D01*
X81870577Y-17290384D01*
X81911500Y-17137657D01*
X81911500Y-16979543D01*
X81870577Y-16826816D01*
X81837879Y-16770181D01*
X81791524Y-16689890D01*
X81791518Y-16689882D01*
X81679717Y-16578081D01*
X81679709Y-16578075D01*
X81542790Y-16499026D01*
X81542786Y-16499024D01*
X81542784Y-16499023D01*
X81390057Y-16458100D01*
X81231943Y-16458100D01*
X81079216Y-16499023D01*
X81079209Y-16499026D01*
X80942290Y-16578075D01*
X80942282Y-16578081D01*
X80830481Y-16689882D01*
X80830475Y-16689890D01*
X80751426Y-16826809D01*
X80751423Y-16826816D01*
X80710500Y-16979543D01*
X80710500Y-17041344D01*
X80690815Y-17108383D01*
X80674181Y-17129025D01*
X73108221Y-24694984D01*
X73108217Y-24694990D01*
X73055491Y-24786313D01*
X73055490Y-24786314D01*
X73043798Y-24829955D01*
X73043798Y-24829956D01*
X73028199Y-24888173D01*
X73028199Y-49101783D01*
X73008514Y-49168822D01*
X72955710Y-49214577D01*
X72886552Y-49224521D01*
X72822996Y-49195496D01*
X72816518Y-49189464D01*
X72749499Y-49122445D01*
X72749494Y-49122441D01*
X72602997Y-49016006D01*
X72602996Y-49016005D01*
X72602994Y-49016004D01*
X72468205Y-48947325D01*
X72417409Y-48899350D01*
X72400500Y-48836840D01*
X72400500Y-24749654D01*
X72420185Y-24682615D01*
X72436819Y-24661973D01*
X80867674Y-16231118D01*
X80928997Y-16197633D01*
X80955355Y-16194799D01*
X81017155Y-16194799D01*
X81017157Y-16194799D01*
X81169884Y-16153876D01*
X81306816Y-16074819D01*
X81418620Y-15963015D01*
X81459111Y-15892882D01*
X81497675Y-15826087D01*
X81497675Y-15826086D01*
X81497677Y-15826083D01*
X81538600Y-15673356D01*
X81538600Y-15515242D01*
X81497677Y-15362515D01*
X81497673Y-15362508D01*
X81418624Y-15225589D01*
X81418618Y-15225581D01*
X81306817Y-15113780D01*
X81306809Y-15113774D01*
X81169890Y-15034725D01*
X81169886Y-15034723D01*
X81169884Y-15034722D01*
X81017157Y-14993799D01*
X80859043Y-14993799D01*
X80706316Y-15034722D01*
X80706309Y-15034725D01*
X80569390Y-15113774D01*
X80569382Y-15113780D01*
X80457581Y-15225581D01*
X80457575Y-15225589D01*
X80378526Y-15362508D01*
X80378523Y-15362515D01*
X80337600Y-15515242D01*
X80337600Y-15577044D01*
X80317915Y-15644083D01*
X80301281Y-15664725D01*
X71679522Y-24286484D01*
X71679515Y-24286493D01*
X71675986Y-24292607D01*
X71625419Y-24340822D01*
X71556811Y-24354044D01*
X71491947Y-24328076D01*
X71451419Y-24271161D01*
X71444600Y-24230606D01*
X71444600Y-20707554D01*
X71464285Y-20640515D01*
X71480919Y-20619873D01*
X78167474Y-13933319D01*
X78228797Y-13899834D01*
X78255155Y-13897000D01*
X78316955Y-13897000D01*
X78316957Y-13897000D01*
X78469684Y-13856077D01*
X78606616Y-13777020D01*
X78718420Y-13665216D01*
X78797477Y-13528284D01*
X78838400Y-13375557D01*
X78838400Y-13217443D01*
X78797477Y-13064716D01*
X78766451Y-13010977D01*
X78718424Y-12927790D01*
X78718418Y-12927782D01*
X78606617Y-12815981D01*
X78606609Y-12815975D01*
X78469690Y-12736926D01*
X78469686Y-12736924D01*
X78469684Y-12736923D01*
X78316957Y-12696000D01*
X78158843Y-12696000D01*
X78006116Y-12736923D01*
X78006109Y-12736926D01*
X77869190Y-12815975D01*
X77869182Y-12815981D01*
X77757381Y-12927782D01*
X77757375Y-12927790D01*
X77678326Y-13064709D01*
X77678323Y-13064716D01*
X77637400Y-13217443D01*
X77637400Y-13279244D01*
X77617715Y-13346283D01*
X77601081Y-13366925D01*
X70723622Y-20244383D01*
X70723620Y-20244386D01*
X70670893Y-20335710D01*
X70669658Y-20340321D01*
X70643600Y-20437572D01*
X70643600Y-37078002D01*
X70623915Y-37145041D01*
X70571111Y-37190796D01*
X70501953Y-37200740D01*
X70438397Y-37171715D01*
X70431919Y-37165683D01*
X70328017Y-37061781D01*
X70328009Y-37061775D01*
X70191090Y-36982726D01*
X70191086Y-36982724D01*
X70191084Y-36982723D01*
X70038357Y-36941800D01*
X69880243Y-36941800D01*
X69727516Y-36982723D01*
X69727515Y-36982723D01*
X69636649Y-37035184D01*
X69568748Y-37051655D01*
X69502722Y-37028803D01*
X69486969Y-37015477D01*
X64479594Y-32008102D01*
X64446109Y-31946779D01*
X64451093Y-31877087D01*
X64492965Y-31821154D01*
X64505258Y-31813044D01*
X64563913Y-31779180D01*
X64961680Y-31381413D01*
X65014407Y-31290088D01*
X65041700Y-31188227D01*
X65041700Y-31082773D01*
X65041700Y-30625773D01*
X65030446Y-30583773D01*
X65014407Y-30523912D01*
X64961680Y-30432587D01*
X62069113Y-27540020D01*
X62023450Y-27513656D01*
X61977789Y-27487293D01*
X61926857Y-27473646D01*
X61875927Y-27460000D01*
X60148473Y-27460000D01*
X60046612Y-27487293D01*
X60022525Y-27501200D01*
X59998438Y-27515107D01*
X59985617Y-27522508D01*
X59955287Y-27540019D01*
X59955285Y-27540021D01*
X39079522Y-48415783D01*
X39079518Y-48415789D01*
X39026792Y-48507111D01*
X39026793Y-48507112D01*
X38999500Y-48608972D01*
X38999500Y-48836840D01*
X38995212Y-48851442D01*
X38995864Y-48866648D01*
X38985568Y-48884286D01*
X38979815Y-48903879D01*
X38967770Y-48914775D01*
X38960641Y-48926990D01*
X38931794Y-48947325D01*
X38869494Y-48979068D01*
X38800825Y-48991964D01*
X38736085Y-48965687D01*
X38695828Y-48908581D01*
X38689200Y-48868583D01*
X38689200Y-46744355D01*
X38708885Y-46677316D01*
X38725519Y-46656674D01*
X60460374Y-24921819D01*
X60521697Y-24888334D01*
X60548055Y-24885500D01*
X60609855Y-24885500D01*
X60609857Y-24885500D01*
X60762584Y-24844577D01*
X60899516Y-24765520D01*
X61011320Y-24653716D01*
X61090377Y-24516784D01*
X61131300Y-24364057D01*
X61131300Y-24205943D01*
X61090377Y-24053216D01*
X61072812Y-24022792D01*
X61011324Y-23916290D01*
X61011318Y-23916282D01*
X60899516Y-23804480D01*
X60899509Y-23804475D01*
X60762590Y-23725426D01*
X60762586Y-23725424D01*
X60762584Y-23725423D01*
X60609857Y-23684500D01*
X60451743Y-23684500D01*
X60299016Y-23725423D01*
X60299009Y-23725426D01*
X60162090Y-23804475D01*
X60162084Y-23804480D01*
X60050281Y-23916282D01*
X60050275Y-23916290D01*
X59971226Y-24053209D01*
X59971223Y-24053216D01*
X59930301Y-24205939D01*
X59930300Y-24205944D01*
X59930300Y-24267745D01*
X59910615Y-24334784D01*
X59893981Y-24355426D01*
X51726073Y-32523333D01*
X51664750Y-32556818D01*
X51595058Y-32551834D01*
X51539125Y-32509962D01*
X51514708Y-32444498D01*
X51529560Y-32376225D01*
X51530983Y-32373690D01*
X51568977Y-32307883D01*
X51609900Y-32155156D01*
X51609900Y-31997042D01*
X51568977Y-31844315D01*
X51551598Y-31814213D01*
X51489924Y-31707389D01*
X51489918Y-31707381D01*
X51446219Y-31663682D01*
X51412734Y-31602359D01*
X51409900Y-31576001D01*
X51409900Y-30652675D01*
X51409899Y-30652671D01*
X51408375Y-30646984D01*
X51383304Y-30553413D01*
X51382607Y-30550812D01*
X51329880Y-30459487D01*
X43040913Y-22170520D01*
X42995250Y-22144156D01*
X42949589Y-22117793D01*
X42883917Y-22100197D01*
X42847727Y-22090500D01*
X42847726Y-22090500D01*
X37407898Y-22090500D01*
X37378457Y-22081855D01*
X37348471Y-22075332D01*
X37343455Y-22071577D01*
X37340859Y-22070815D01*
X37320217Y-22054181D01*
X37313245Y-22047209D01*
X37279760Y-21985886D01*
X37284744Y-21916194D01*
X37313245Y-21871847D01*
X40553449Y-18631643D01*
X46234800Y-18631643D01*
X46234800Y-18789757D01*
X46274013Y-18936100D01*
X46275723Y-18942483D01*
X46275726Y-18942490D01*
X46354775Y-19079409D01*
X46354779Y-19079414D01*
X46354780Y-19079416D01*
X46466584Y-19191220D01*
X46466586Y-19191221D01*
X46466590Y-19191224D01*
X46599872Y-19268173D01*
X46603516Y-19270277D01*
X46756243Y-19311200D01*
X46756245Y-19311200D01*
X46914355Y-19311200D01*
X46914357Y-19311200D01*
X47067084Y-19270277D01*
X47067085Y-19270276D01*
X47074935Y-19268173D01*
X47075120Y-19268865D01*
X47113663Y-19261200D01*
X50189772Y-19261200D01*
X50189774Y-19261200D01*
X50189775Y-19261200D01*
X50329785Y-19223684D01*
X50361260Y-19205512D01*
X50455315Y-19151210D01*
X52653631Y-16952891D01*
X52686304Y-16931061D01*
X52685945Y-16930439D01*
X52692980Y-16926376D01*
X52692984Y-16926376D01*
X52829916Y-16847319D01*
X52941720Y-16735515D01*
X53020777Y-16598583D01*
X53061700Y-16445856D01*
X53061700Y-16287742D01*
X53020777Y-16135015D01*
X53019512Y-16132824D01*
X52941724Y-15998089D01*
X52941721Y-15998085D01*
X52941720Y-15998083D01*
X52829916Y-15886279D01*
X52829914Y-15886278D01*
X52829909Y-15886274D01*
X52692990Y-15807225D01*
X52692986Y-15807223D01*
X52692984Y-15807222D01*
X52540257Y-15766299D01*
X52382143Y-15766299D01*
X52229416Y-15807222D01*
X52229409Y-15807225D01*
X52092490Y-15886274D01*
X52092482Y-15886280D01*
X51980681Y-15998081D01*
X51980679Y-15998084D01*
X51956947Y-16039190D01*
X51901623Y-16135015D01*
X51901622Y-16135017D01*
X51897561Y-16142052D01*
X51896940Y-16141693D01*
X51875106Y-16174366D01*
X49925594Y-18123881D01*
X49864271Y-18157366D01*
X49837913Y-18160200D01*
X47113663Y-18160200D01*
X47075120Y-18152534D01*
X47074935Y-18153227D01*
X47067085Y-18151123D01*
X47067084Y-18151123D01*
X46914357Y-18110200D01*
X46756243Y-18110200D01*
X46603516Y-18151123D01*
X46603509Y-18151126D01*
X46466590Y-18230175D01*
X46466582Y-18230181D01*
X46354781Y-18341982D01*
X46354775Y-18341990D01*
X46275726Y-18478909D01*
X46275723Y-18478916D01*
X46234800Y-18631643D01*
X40553449Y-18631643D01*
X40649257Y-18535835D01*
X46494857Y-12690236D01*
X55736474Y-3448619D01*
X55797797Y-3415134D01*
X55824155Y-3412300D01*
X87743944Y-3412300D01*
X87810983Y-3431985D01*
G37*
%TD.AperFunction*%
%TA.AperFunction,Conductor*%
G36*
X62391383Y-31056685D02*
G01*
X62412025Y-31073319D01*
X69201486Y-37862780D01*
X69292811Y-37915507D01*
X69394672Y-37942800D01*
X69459202Y-37942800D01*
X69480818Y-37949147D01*
X69503281Y-37950899D01*
X69516981Y-37959765D01*
X69526241Y-37962485D01*
X69534149Y-37968012D01*
X69540890Y-37973126D01*
X69590584Y-38022820D01*
X69656725Y-38061006D01*
X69662928Y-38065712D01*
X69679247Y-38087807D01*
X69698196Y-38107680D01*
X69699703Y-38115503D01*
X69704439Y-38121914D01*
X69706221Y-38149319D01*
X69711420Y-38176287D01*
X69708457Y-38183686D01*
X69708975Y-38191636D01*
X69695660Y-38215652D01*
X69685452Y-38241151D01*
X69678961Y-38245773D01*
X69675097Y-38252743D01*
X69650908Y-38265749D01*
X69628538Y-38281680D01*
X69617982Y-38283455D01*
X69613560Y-38285833D01*
X69606920Y-38285315D01*
X69587981Y-38288500D01*
X58391339Y-38288500D01*
X58391323Y-38288499D01*
X58383727Y-38288499D01*
X58278273Y-38288499D01*
X58198232Y-38309946D01*
X58176778Y-38315695D01*
X58176777Y-38315694D01*
X58176415Y-38315791D01*
X58085084Y-38368522D01*
X58010518Y-38443089D01*
X47559280Y-48894325D01*
X47497957Y-48927810D01*
X47433281Y-48924575D01*
X47289410Y-48877829D01*
X47110551Y-48849500D01*
X47110546Y-48849500D01*
X46929454Y-48849500D01*
X46929449Y-48849500D01*
X46750589Y-48877829D01*
X46578363Y-48933787D01*
X46578360Y-48933788D01*
X46417006Y-49016003D01*
X46347385Y-49066586D01*
X46281578Y-49090065D01*
X46213524Y-49074239D01*
X46164830Y-49024133D01*
X46150500Y-48966267D01*
X46150500Y-45179255D01*
X46170185Y-45112216D01*
X46186819Y-45091574D01*
X59435174Y-31843219D01*
X59496497Y-31809734D01*
X59522855Y-31806900D01*
X59584655Y-31806900D01*
X59584657Y-31806900D01*
X59737384Y-31765977D01*
X59874316Y-31686920D01*
X59986120Y-31575116D01*
X60065177Y-31438184D01*
X60106100Y-31285457D01*
X60106100Y-31161000D01*
X60125785Y-31093961D01*
X60178589Y-31048206D01*
X60230100Y-31037000D01*
X62324344Y-31037000D01*
X62391383Y-31056685D01*
G37*
%TD.AperFunction*%
%TA.AperFunction,Conductor*%
G36*
X43653839Y-29013284D02*
G01*
X43699594Y-29066088D01*
X43710800Y-29117599D01*
X43710800Y-39040444D01*
X43691115Y-39107483D01*
X43674481Y-39128125D01*
X37693226Y-45109380D01*
X37631903Y-45142865D01*
X37626712Y-45143879D01*
X37616207Y-45145699D01*
X37543743Y-45145699D01*
X37411181Y-45181218D01*
X37405667Y-45182174D01*
X37376298Y-45178809D01*
X37346744Y-45178106D01*
X37341974Y-45174877D01*
X37336251Y-45174222D01*
X37313357Y-45155509D01*
X37288881Y-45138943D01*
X37286614Y-45133649D01*
X37282154Y-45130004D01*
X37273012Y-45101885D01*
X37261377Y-45074715D01*
X37260748Y-45064165D01*
X37260551Y-45063558D01*
X37260682Y-45063057D01*
X37260500Y-45059994D01*
X37260500Y-35283053D01*
X37280185Y-35216014D01*
X37296814Y-35195377D01*
X43462273Y-29029917D01*
X43523596Y-28996433D01*
X43549954Y-28993599D01*
X43586800Y-28993599D01*
X43653839Y-29013284D01*
G37*
%TD.AperFunction*%
%TA.AperFunction,Conductor*%
G36*
X148581784Y-36180785D02*
G01*
X148602426Y-36197419D01*
X150087933Y-37682926D01*
X151472727Y-39067719D01*
X151506212Y-39129042D01*
X151501228Y-39198734D01*
X151459356Y-39254667D01*
X151393892Y-39279084D01*
X151385046Y-39279400D01*
X134749587Y-39279400D01*
X134682548Y-39259715D01*
X134661906Y-39243081D01*
X131803161Y-36384336D01*
X131798821Y-36376388D01*
X131791572Y-36370961D01*
X131782339Y-36346204D01*
X131769676Y-36323013D01*
X131770321Y-36313980D01*
X131767158Y-36305496D01*
X131772775Y-36279678D01*
X131774660Y-36253321D01*
X131780479Y-36244266D01*
X131782012Y-36237223D01*
X131803162Y-36208973D01*
X131814721Y-36197415D01*
X131876045Y-36163933D01*
X131902398Y-36161100D01*
X148514745Y-36161100D01*
X148581784Y-36180785D01*
G37*
%TD.AperFunction*%
%TA.AperFunction,Conductor*%
G36*
X150847539Y-22582585D02*
G01*
X150893294Y-22635389D01*
X150904500Y-22686900D01*
X150904500Y-22793257D01*
X150942235Y-22934084D01*
X150945423Y-22945983D01*
X150945426Y-22945990D01*
X151024475Y-23082909D01*
X151024481Y-23082917D01*
X151068181Y-23126617D01*
X151101666Y-23187940D01*
X151104500Y-23214298D01*
X151104500Y-23661780D01*
X151104498Y-23661788D01*
X151104500Y-23710500D01*
X151104500Y-23767227D01*
X151104501Y-23767234D01*
X151104502Y-23767241D01*
X151114482Y-23804480D01*
X151131793Y-23869087D01*
X151131797Y-23869094D01*
X151131799Y-23869101D01*
X151132024Y-23869490D01*
X151155008Y-23909299D01*
X151184519Y-23960412D01*
X151184526Y-23960422D01*
X151210637Y-23986531D01*
X151210652Y-23986545D01*
X151264916Y-24040809D01*
X151264943Y-24040833D01*
X151535969Y-24311839D01*
X152463679Y-25239482D01*
X152497165Y-25300801D01*
X152500000Y-25327164D01*
X152500000Y-27962100D01*
X152480315Y-28029139D01*
X152427511Y-28074894D01*
X152376000Y-28086100D01*
X138995754Y-28086100D01*
X138928715Y-28066415D01*
X138908073Y-28049781D01*
X136896274Y-26037981D01*
X136862789Y-25976658D01*
X136867773Y-25906966D01*
X136909645Y-25851033D01*
X136975109Y-25826616D01*
X136983955Y-25826300D01*
X137343402Y-25826300D01*
X137410441Y-25845985D01*
X137431083Y-25862619D01*
X137474784Y-25906320D01*
X137474786Y-25906321D01*
X137474790Y-25906324D01*
X137559203Y-25955059D01*
X137611716Y-25985377D01*
X137764443Y-26026300D01*
X137764445Y-26026300D01*
X137923055Y-26026300D01*
X137923057Y-26026300D01*
X138075784Y-25985377D01*
X138212716Y-25906320D01*
X138324520Y-25794516D01*
X138403577Y-25657584D01*
X138444500Y-25504857D01*
X138444500Y-25346743D01*
X138403577Y-25194016D01*
X138360623Y-25119616D01*
X138324524Y-25057090D01*
X138324518Y-25057082D01*
X138212717Y-24945281D01*
X138212709Y-24945275D01*
X138075790Y-24866226D01*
X138075786Y-24866224D01*
X138075784Y-24866223D01*
X137923057Y-24825300D01*
X137922557Y-24825300D01*
X137764443Y-24825300D01*
X137611716Y-24866223D01*
X137611709Y-24866226D01*
X137474790Y-24945275D01*
X137474782Y-24945281D01*
X137431083Y-24988981D01*
X137404155Y-25003684D01*
X137378337Y-25020277D01*
X137372136Y-25021168D01*
X137369760Y-25022466D01*
X137343402Y-25025300D01*
X137287855Y-25025300D01*
X137220816Y-25005615D01*
X137175061Y-24952811D01*
X137165117Y-24883653D01*
X137194142Y-24820097D01*
X137200174Y-24813619D01*
X139414573Y-22599219D01*
X139475896Y-22565734D01*
X139502254Y-22562900D01*
X150780500Y-22562900D01*
X150847539Y-22582585D01*
G37*
%TD.AperFunction*%
%TA.AperFunction,Conductor*%
G36*
X121061788Y-3431985D02*
G01*
X121082429Y-3448617D01*
X125493923Y-7859975D01*
X125527409Y-7921298D01*
X125522425Y-7990990D01*
X125493925Y-8035339D01*
X125394478Y-8134786D01*
X125394475Y-8134790D01*
X125315426Y-8271709D01*
X125315423Y-8271716D01*
X125274500Y-8424443D01*
X125274500Y-8486238D01*
X125254815Y-8553277D01*
X125238180Y-8573920D01*
X120254680Y-13557335D01*
X120193357Y-13590819D01*
X120123665Y-13585834D01*
X120067732Y-13543963D01*
X120043316Y-13478498D01*
X120043000Y-13469653D01*
X120043000Y-12378385D01*
X120062685Y-12311346D01*
X120079315Y-12290708D01*
X120769429Y-11600593D01*
X120802103Y-11578764D01*
X120801744Y-11578142D01*
X120894880Y-11524370D01*
X120945716Y-11495020D01*
X121057520Y-11383216D01*
X121136577Y-11246284D01*
X121177500Y-11093557D01*
X121177500Y-11093543D01*
X121178541Y-11085641D01*
X121206804Y-11021743D01*
X121265127Y-10983269D01*
X121333570Y-10982045D01*
X121428943Y-11007600D01*
X121428946Y-11007600D01*
X121587255Y-11007600D01*
X121587257Y-11007600D01*
X121739984Y-10966677D01*
X121876916Y-10887620D01*
X121988720Y-10775816D01*
X122067777Y-10638884D01*
X122108700Y-10486157D01*
X122108700Y-10328043D01*
X122077497Y-10211595D01*
X122075595Y-10204493D01*
X122076190Y-10179498D01*
X122072632Y-10154753D01*
X122077007Y-10145172D01*
X122077258Y-10134643D01*
X122091270Y-10113939D01*
X122101657Y-10091197D01*
X122110518Y-10085502D01*
X122116421Y-10076781D01*
X122139401Y-10066939D01*
X122160435Y-10053423D01*
X122176290Y-10051143D01*
X122180649Y-10049277D01*
X122195370Y-10048400D01*
X122409902Y-10048400D01*
X122476941Y-10068085D01*
X122497583Y-10084719D01*
X122541284Y-10128420D01*
X122541286Y-10128421D01*
X122541290Y-10128424D01*
X122678209Y-10207473D01*
X122678216Y-10207477D01*
X122830943Y-10248400D01*
X122830945Y-10248400D01*
X122989155Y-10248400D01*
X122989157Y-10248400D01*
X123141884Y-10207477D01*
X123278816Y-10128420D01*
X123390620Y-10016616D01*
X123469677Y-9879684D01*
X123510600Y-9726957D01*
X123510600Y-9568843D01*
X123469677Y-9416116D01*
X123438729Y-9362512D01*
X123390624Y-9279190D01*
X123390618Y-9279182D01*
X123278817Y-9167381D01*
X123278809Y-9167375D01*
X123141890Y-9088326D01*
X123141886Y-9088324D01*
X123141884Y-9088323D01*
X122989157Y-9047400D01*
X122989057Y-9047400D01*
X122830943Y-9047400D01*
X122678216Y-9088323D01*
X122678209Y-9088326D01*
X122541290Y-9167375D01*
X122541282Y-9167381D01*
X122497583Y-9211081D01*
X122436260Y-9244566D01*
X122409902Y-9247400D01*
X120726335Y-9247400D01*
X120718728Y-9247399D01*
X120718725Y-9247399D01*
X120668156Y-9247399D01*
X120614552Y-9247399D01*
X120547513Y-9227714D01*
X120501758Y-9174909D01*
X120491971Y-9106834D01*
X120491815Y-9105752D01*
X120492131Y-9105061D01*
X120517979Y-9048461D01*
X120520840Y-9042196D01*
X120526856Y-9035734D01*
X122313403Y-7249187D01*
X122368988Y-7217096D01*
X122416084Y-7204477D01*
X122553016Y-7125420D01*
X122664820Y-7013616D01*
X122743877Y-6876684D01*
X122784800Y-6723957D01*
X122784800Y-6565843D01*
X122743877Y-6413116D01*
X122726079Y-6382289D01*
X122664824Y-6276190D01*
X122664818Y-6276182D01*
X122553017Y-6164381D01*
X122553009Y-6164375D01*
X122416090Y-6085326D01*
X122416086Y-6085324D01*
X122416084Y-6085323D01*
X122263357Y-6044400D01*
X122263057Y-6044400D01*
X122104943Y-6044400D01*
X121952216Y-6085323D01*
X121952209Y-6085326D01*
X121815290Y-6164375D01*
X121815282Y-6164381D01*
X121703481Y-6276182D01*
X121703475Y-6276190D01*
X121624426Y-6413109D01*
X121624423Y-6413116D01*
X121583500Y-6565843D01*
X121583500Y-6723958D01*
X121590763Y-6751064D01*
X121589100Y-6820914D01*
X121558669Y-6870837D01*
X109251281Y-19178226D01*
X109189958Y-19211711D01*
X109120266Y-19206727D01*
X109064333Y-19164855D01*
X109039916Y-19099391D01*
X109039600Y-19090545D01*
X109039600Y-14616998D01*
X109059285Y-14549959D01*
X109075919Y-14529317D01*
X109085716Y-14519520D01*
X109119620Y-14485616D01*
X109198677Y-14348684D01*
X109239600Y-14195957D01*
X109239600Y-14037843D01*
X109198677Y-13885116D01*
X109182135Y-13856464D01*
X109119624Y-13748190D01*
X109119618Y-13748182D01*
X109007817Y-13636381D01*
X109007809Y-13636375D01*
X108870890Y-13557326D01*
X108870886Y-13557324D01*
X108870884Y-13557323D01*
X108718157Y-13516400D01*
X108718057Y-13516400D01*
X108559943Y-13516400D01*
X108407216Y-13557323D01*
X108407209Y-13557326D01*
X108270290Y-13636375D01*
X108270282Y-13636381D01*
X108158481Y-13748182D01*
X108158475Y-13748190D01*
X108079426Y-13885109D01*
X108079423Y-13885116D01*
X108038500Y-14037843D01*
X108038500Y-14195957D01*
X108074306Y-14329585D01*
X108079423Y-14348683D01*
X108079426Y-14348690D01*
X108158475Y-14485609D01*
X108158481Y-14485617D01*
X108202181Y-14529317D01*
X108235666Y-14590640D01*
X108238500Y-14616998D01*
X108238500Y-19477539D01*
X108218815Y-19544578D01*
X108202180Y-19565222D01*
X105140380Y-22626931D01*
X105079056Y-22660415D01*
X105009365Y-22655429D01*
X104953432Y-22613557D01*
X104929016Y-22548092D01*
X104928700Y-22539248D01*
X104928700Y-20789355D01*
X104948385Y-20722316D01*
X104965019Y-20701674D01*
X105506107Y-20160586D01*
X106060680Y-19606013D01*
X106113407Y-19514688D01*
X106140700Y-19412827D01*
X106140700Y-19307373D01*
X106140700Y-16307498D01*
X106160385Y-16240459D01*
X106177019Y-16219817D01*
X106220720Y-16176116D01*
X106299777Y-16039184D01*
X106340700Y-15886457D01*
X106340700Y-15728343D01*
X106299777Y-15575616D01*
X106275392Y-15533380D01*
X106220724Y-15438690D01*
X106220718Y-15438682D01*
X106108917Y-15326881D01*
X106108909Y-15326875D01*
X105971990Y-15247826D01*
X105971986Y-15247824D01*
X105971984Y-15247823D01*
X105819257Y-15206900D01*
X105819057Y-15206900D01*
X105660943Y-15206900D01*
X105508216Y-15247823D01*
X105508209Y-15247826D01*
X105371290Y-15326875D01*
X105371282Y-15326881D01*
X105340181Y-15357983D01*
X105278858Y-15391468D01*
X105209166Y-15386484D01*
X105153233Y-15344612D01*
X105128816Y-15279148D01*
X105128500Y-15270302D01*
X105128500Y-8293355D01*
X105148185Y-8226316D01*
X105200989Y-8180561D01*
X105270147Y-8170617D01*
X105333703Y-8199642D01*
X105340181Y-8205674D01*
X110343181Y-13208674D01*
X110376666Y-13269997D01*
X110379500Y-13296355D01*
X110379500Y-13358157D01*
X110420206Y-13510072D01*
X110420423Y-13510883D01*
X110420426Y-13510890D01*
X110499475Y-13647809D01*
X110499479Y-13647814D01*
X110499480Y-13647816D01*
X110611284Y-13759620D01*
X110611286Y-13759621D01*
X110611290Y-13759624D01*
X110700104Y-13810900D01*
X110748216Y-13838677D01*
X110900943Y-13879600D01*
X110900945Y-13879600D01*
X111021399Y-13879600D01*
X111088438Y-13899285D01*
X111134193Y-13952089D01*
X111145399Y-14003600D01*
X111145399Y-15135206D01*
X111136746Y-15164673D01*
X111130204Y-15194682D01*
X111126472Y-15199662D01*
X111125714Y-15202245D01*
X111109041Y-15222927D01*
X110954708Y-15377121D01*
X110893370Y-15410578D01*
X110867066Y-15413400D01*
X110804943Y-15413400D01*
X110652216Y-15454323D01*
X110652209Y-15454326D01*
X110515290Y-15533375D01*
X110515282Y-15533381D01*
X110403481Y-15645182D01*
X110403475Y-15645190D01*
X110324426Y-15782109D01*
X110324423Y-15782116D01*
X110283500Y-15934843D01*
X110283500Y-16092957D01*
X110317675Y-16220498D01*
X110324423Y-16245683D01*
X110324426Y-16245690D01*
X110403475Y-16382609D01*
X110403479Y-16382614D01*
X110403480Y-16382616D01*
X110515284Y-16494420D01*
X110515286Y-16494421D01*
X110515290Y-16494424D01*
X110569771Y-16525878D01*
X110652216Y-16573477D01*
X110804943Y-16614400D01*
X110804945Y-16614400D01*
X110963555Y-16614400D01*
X110963557Y-16614400D01*
X111116284Y-16573477D01*
X111253216Y-16494420D01*
X111365020Y-16382616D01*
X111444077Y-16245684D01*
X111485000Y-16092957D01*
X111485000Y-16031154D01*
X111504685Y-15964115D01*
X111521319Y-15943473D01*
X111719030Y-15745762D01*
X111719070Y-15745722D01*
X111785974Y-15678878D01*
X111786300Y-15678593D01*
X111829936Y-15634956D01*
X111829979Y-15634913D01*
X111836492Y-15628406D01*
X111866368Y-15598558D01*
X111866370Y-15598555D01*
X111866475Y-15598418D01*
X111866475Y-15598417D01*
X111866480Y-15598413D01*
X111893292Y-15551972D01*
X111893293Y-15551970D01*
X111893296Y-15551972D01*
X111893315Y-15551930D01*
X111919136Y-15507257D01*
X111919137Y-15507251D01*
X111919140Y-15507247D01*
X111919204Y-15507093D01*
X111919204Y-15507091D01*
X111919207Y-15507087D01*
X111932976Y-15455695D01*
X111933006Y-15455645D01*
X111932991Y-15455641D01*
X111945679Y-15408377D01*
X111945678Y-15408377D01*
X111946476Y-15405409D01*
X111946476Y-15405316D01*
X111946500Y-15405227D01*
X111946500Y-15352682D01*
X111946524Y-15299955D01*
X111946523Y-15299952D01*
X111946527Y-15292120D01*
X111946500Y-15291693D01*
X111946500Y-11778626D01*
X111946501Y-11778623D01*
X111946500Y-11673169D01*
X111929731Y-11610587D01*
X111924241Y-11590099D01*
X111924241Y-11590098D01*
X111919208Y-11571316D01*
X111919205Y-11571309D01*
X111919205Y-11571308D01*
X111919202Y-11571303D01*
X111918799Y-11570412D01*
X111917218Y-11567866D01*
X111892106Y-11524373D01*
X111892104Y-11524370D01*
X111866481Y-11479988D01*
X111788801Y-11402308D01*
X111788787Y-11402295D01*
X110230159Y-9843700D01*
X107965678Y-7579268D01*
X107932193Y-7517946D01*
X107935427Y-7453271D01*
X107982171Y-7309409D01*
X107984789Y-7292881D01*
X108010500Y-7130551D01*
X108010500Y-6949448D01*
X107990141Y-6820914D01*
X107982171Y-6770591D01*
X107926211Y-6598361D01*
X107926211Y-6598360D01*
X107890854Y-6528970D01*
X107843996Y-6437006D01*
X107803023Y-6380611D01*
X107737558Y-6290505D01*
X107737554Y-6290500D01*
X107609499Y-6162445D01*
X107609494Y-6162441D01*
X107462997Y-6056006D01*
X107462996Y-6056005D01*
X107462994Y-6056004D01*
X107386906Y-6017235D01*
X107301639Y-5973788D01*
X107301636Y-5973787D01*
X107129410Y-5917829D01*
X106950551Y-5889500D01*
X106950546Y-5889500D01*
X106769454Y-5889500D01*
X106769449Y-5889500D01*
X106590589Y-5917829D01*
X106418363Y-5973787D01*
X106418360Y-5973788D01*
X106257002Y-6056006D01*
X106110505Y-6162441D01*
X106110500Y-6162445D01*
X105982443Y-6290502D01*
X105957866Y-6324330D01*
X105902536Y-6366995D01*
X105832922Y-6372973D01*
X105771128Y-6340366D01*
X105769846Y-6339103D01*
X105747182Y-6316428D01*
X105100208Y-5669135D01*
X105094504Y-5663428D01*
X105094480Y-5663387D01*
X105056672Y-5625579D01*
X105019991Y-5588880D01*
X105019990Y-5588879D01*
X105019989Y-5588878D01*
X105019915Y-5588822D01*
X105019913Y-5588820D01*
X104974561Y-5562636D01*
X104970895Y-5560518D01*
X104928676Y-5536129D01*
X104928594Y-5536094D01*
X104877829Y-5522491D01*
X104877827Y-5522491D01*
X104877579Y-5522425D01*
X104826825Y-5508813D01*
X104826775Y-5508812D01*
X104826727Y-5508800D01*
X104826327Y-5508800D01*
X104826306Y-5508800D01*
X104774098Y-5508800D01*
X104721371Y-5508787D01*
X104721322Y-5508800D01*
X91612455Y-5508800D01*
X91545416Y-5489115D01*
X91524774Y-5472481D01*
X90618518Y-4566225D01*
X90585033Y-4504902D01*
X90582199Y-4478544D01*
X90582199Y-4106328D01*
X90582200Y-4106315D01*
X90582200Y-3990873D01*
X90578546Y-3977235D01*
X90554906Y-3889012D01*
X90502822Y-3798800D01*
X90502179Y-3797686D01*
X90427612Y-3723119D01*
X90427609Y-3723117D01*
X90328472Y-3623980D01*
X90294988Y-3562658D01*
X90299972Y-3492966D01*
X90341844Y-3437033D01*
X90407308Y-3412616D01*
X90416154Y-3412300D01*
X120994749Y-3412300D01*
X121061788Y-3431985D01*
G37*
%TD.AperFunction*%
%TA.AperFunction,Conductor*%
G36*
X89386184Y-3818485D02*
G01*
X89406826Y-3835119D01*
X89744880Y-4173172D01*
X89778365Y-4234495D01*
X89781199Y-4260853D01*
X89781199Y-4643073D01*
X89781199Y-4748527D01*
X89786304Y-4767580D01*
X89808492Y-4850389D01*
X89834855Y-4896050D01*
X89861219Y-4941713D01*
X90408621Y-5489115D01*
X90890310Y-5970803D01*
X90923795Y-6032126D01*
X90918811Y-6101818D01*
X90876939Y-6157751D01*
X90875524Y-6158795D01*
X90870505Y-6162442D01*
X90870496Y-6162449D01*
X90742445Y-6290500D01*
X90742439Y-6290507D01*
X90705586Y-6341231D01*
X90650256Y-6383897D01*
X90580643Y-6389875D01*
X90518848Y-6357269D01*
X90506893Y-6343831D01*
X90502177Y-6337685D01*
X89782315Y-5617822D01*
X89782314Y-5617821D01*
X89782313Y-5617820D01*
X89732188Y-5588880D01*
X89690989Y-5565093D01*
X89640057Y-5551446D01*
X89589127Y-5537800D01*
X89589126Y-5537800D01*
X87983255Y-5537800D01*
X87916216Y-5518115D01*
X87870461Y-5465311D01*
X87860517Y-5396153D01*
X87889542Y-5332597D01*
X87895574Y-5326119D01*
X88068704Y-5152989D01*
X88298780Y-4922913D01*
X88351507Y-4831588D01*
X88378800Y-4729727D01*
X88378800Y-4624273D01*
X88378800Y-4260953D01*
X88398485Y-4193914D01*
X88415114Y-4173277D01*
X88753275Y-3835117D01*
X88814597Y-3801634D01*
X88840955Y-3798800D01*
X89319145Y-3798800D01*
X89386184Y-3818485D01*
G37*
%TD.AperFunction*%
%TD*%
M02*
