M48
; DRILL file {KiCad 9.0.3+dfsg-1} date 2026-07-29T18:38:00+0200
; FORMAT={-:-/ absolute / metric / decimal}
; #@! TF.CreationDate,2026-07-29T18:38:00+02:00
; #@! TF.GenerationSoftware,Kicad,Pcbnew,9.0.3+dfsg-1
; #@! TF.FileFunction,MixedPlating,1,2
FMAT,2
METRIC
; #@! TA.AperFunction,Plated,PTH,ViaDrill
T1C0.300
; #@! TA.AperFunction,Plated,PTH,ComponentDrill
T2C0.800
; #@! TA.AperFunction,Plated,PTH,ComponentDrill
T3C1.000
; #@! TA.AperFunction,Plated,PTH,ComponentDrill
T4C1.300
%
G90
G05
T1
X14.0Y-11.0
X14.0Y-11.0
X14.0Y-18.0
X14.0Y-18.0
X14.0Y-25.0
X14.0Y-25.0
X14.0Y-32.0
X14.0Y-32.0
X14.0Y-39.0
X14.0Y-39.0
X14.0Y-46.0
X14.0Y-46.0
X16.141Y-33.916
X16.141Y-33.916
X21.0Y-4.0
X21.0Y-4.0
X21.0Y-11.0
X21.0Y-11.0
X21.0Y-18.0
X21.0Y-18.0
X21.0Y-25.0
X21.0Y-25.0
X21.0Y-32.0
X21.0Y-32.0
X21.0Y-39.0
X21.0Y-39.0
X28.0Y-4.0
X28.0Y-4.0
X28.0Y-11.0
X28.0Y-11.0
X28.0Y-18.0
X28.0Y-18.0
X33.858Y-3.073
X33.858Y-3.073
X35.0Y-4.0
X35.0Y-4.0
X35.0Y-25.0
X35.0Y-25.0
X35.0Y-39.0
X35.0Y-39.0
X36.908Y-22.491
X36.908Y-22.491
X37.623Y-45.746
X37.623Y-45.746
X37.821Y-27.619
X37.821Y-27.619
X38.472Y-26.705
X38.472Y-26.705
X39.166Y-24.751
X39.166Y-24.751
X39.99Y-24.562
X39.99Y-24.562
X42.0Y-4.0
X42.0Y-4.0
X42.0Y-18.0
X42.0Y-18.0
X42.0Y-39.0
X42.0Y-39.0
X42.787Y-23.801
X42.787Y-23.801
X43.533Y-28.393
X43.533Y-28.393
X46.835Y-18.711
X46.835Y-18.711
X49.0Y-11.0
X49.0Y-11.0
X50.513Y-6.776
X50.513Y-6.776
X51.009Y-32.076
X51.009Y-32.076
X52.461Y-16.367
X52.461Y-16.367
X56.0Y-4.0
X56.0Y-4.0
X56.0Y-11.0
X56.0Y-11.0
X56.0Y-18.0
X56.0Y-18.0
X56.0Y-39.0
X56.0Y-39.0
X59.506Y-31.206
X59.506Y-31.206
X60.531Y-24.285
X60.531Y-24.285
X60.534Y-28.86
X60.534Y-28.86
X60.61Y-51.369
X60.61Y-51.369
X60.706Y-46.079
X60.706Y-46.079
X61.995Y-45.083
X61.995Y-45.083
X63.0Y-4.0
X63.0Y-4.0
X63.0Y-11.0
X63.0Y-11.0
X63.0Y-18.0
X63.0Y-18.0
X63.094Y-42.594
X63.094Y-42.594
X63.974Y-42.165
X63.974Y-42.165
X65.071Y-43.765
X65.071Y-43.765
X68.404Y-40.62
X68.404Y-40.62
X69.38Y-39.919
X69.38Y-39.919
X69.959Y-37.542
X69.959Y-37.542
X70.0Y-4.0
X70.0Y-4.0
X70.0Y-11.0
X70.0Y-11.0
X70.0Y-18.0
X70.0Y-18.0
X70.492Y-38.689
X70.492Y-38.689
X77.0Y-4.0
X77.0Y-4.0
X77.0Y-11.0
X77.0Y-11.0
X77.0Y-18.0
X77.0Y-18.0
X78.238Y-13.296
X78.238Y-13.296
X80.938Y-15.594
X80.938Y-15.594
X81.311Y-17.059
X81.311Y-17.059
X82.152Y-30.394
X82.152Y-30.394
X83.133Y-31.885
X83.133Y-31.885
X84.0Y-4.0
X84.0Y-4.0
X84.0Y-11.0
X84.0Y-11.0
X84.0Y-18.0
X84.0Y-18.0
X89.326Y-18.488
X89.326Y-18.488
X90.065Y-19.228
X90.065Y-19.228
X90.108Y-46.537
X90.108Y-46.537
X90.564Y-21.949
X90.564Y-21.949
X90.761Y-16.53
X90.761Y-16.53
X91.0Y-4.0
X91.0Y-4.0
X91.0Y-11.0
X91.0Y-11.0
X91.0Y-32.0
X91.0Y-32.0
X91.857Y-20.26
X91.857Y-20.26
X92.838Y-16.675
X92.838Y-16.675
X92.851Y-19.86
X92.851Y-19.86
X93.192Y-12.041
X93.192Y-12.041
X95.728Y-14.648
X95.728Y-14.648
X96.548Y-46.771
X96.548Y-46.771
X96.627Y-12.451
X96.627Y-12.451
X97.724Y-17.251
X97.724Y-17.251
X98.0Y-4.0
X98.0Y-4.0
X98.0Y-32.0
X98.0Y-32.0
X98.162Y-19.825
X98.162Y-19.825
X98.192Y-16.305
X98.192Y-16.305
X98.235Y-17.91
X98.235Y-17.91
X98.822Y-55.463
X98.822Y-55.463
X98.823Y-39.839
X98.823Y-39.839
X99.819Y-8.851
X99.819Y-8.851
X101.118Y-16.203
X101.118Y-16.203
X101.775Y-53.859
X101.775Y-53.859
X101.924Y-18.337
X101.924Y-18.337
X103.774Y-16.168
X103.774Y-16.168
X104.728Y-19.126
X104.728Y-19.126
X105.0Y-4.0
X105.0Y-4.0
X105.74Y-15.807
X105.74Y-15.807
X106.022Y-32.539
X106.022Y-32.539
X107.681Y-54.651
X107.681Y-54.651
X108.639Y-14.117
X108.639Y-14.117
X108.834Y-32.741
X108.834Y-32.741
X110.773Y-46.391
X110.773Y-46.391
X110.884Y-16.014
X110.884Y-16.014
X110.98Y-13.279
X110.98Y-13.279
X112.0Y-4.0
X112.0Y-4.0
X112.0Y-11.0
X112.0Y-11.0
X112.0Y-32.0
X112.0Y-32.0
X113.587Y-44.625
X113.587Y-44.625
X113.733Y-42.634
X113.733Y-42.634
X114.762Y-19.825
X114.762Y-19.825
X115.336Y-38.626
X115.336Y-38.626
X115.96Y-21.776
X115.96Y-21.776
X116.599Y-33.975
X116.599Y-33.975
X116.958Y-16.71
X116.958Y-16.71
X117.256Y-39.128
X117.256Y-39.128
X117.604Y-41.088
X117.604Y-41.088
X118.292Y-13.718
X118.292Y-13.718
X118.38Y-30.463
X118.38Y-30.463
X118.983Y-33.86
X118.983Y-33.86
X119.0Y-4.0
X119.0Y-4.0
X119.0Y-46.0
X119.0Y-46.0
X119.491Y-51.664
X119.492Y-21.568
X119.492Y-25.848
X119.492Y-51.664
X119.492Y-21.568
X119.492Y-25.848
X120.577Y-11.014
X120.577Y-11.014
X120.676Y-20.15
X120.676Y-20.15
X120.838Y-35.845
X120.838Y-35.845
X121.473Y-19.509
X121.473Y-19.509
X121.508Y-10.407
X121.508Y-10.407
X122.184Y-6.645
X122.184Y-6.645
X122.486Y-30.415
X122.486Y-30.415
X122.763Y-37.583
X122.764Y-37.583
X122.869Y-36.797
X122.869Y-36.797
X122.91Y-9.648
X122.91Y-9.648
X125.875Y-8.503
X125.875Y-13.21
X125.875Y-16.666
X125.875Y-18.711
X125.875Y-8.503
X125.875Y-13.21
X125.875Y-16.666
X125.875Y-18.711
X126.0Y-4.0
X126.0Y-4.0
X127.27Y-32.903
X127.27Y-32.903
X127.619Y-34.558
X127.62Y-34.558
X127.66Y-10.252
X127.66Y-10.252
X128.0Y-17.936
X128.0Y-17.936
X128.447Y-37.06
X128.447Y-37.06
X131.144Y-9.243
X131.162Y-25.619
X131.162Y-27.462
X131.162Y-25.619
X131.162Y-27.462
X131.164Y-35.001
X131.164Y-35.001
X131.198Y-12.062
X131.402Y-35.761
X131.402Y-35.761
X131.462Y-38.611
X131.462Y-38.611
X131.753Y-12.575
X133.0Y-4.0
X133.0Y-4.0
X133.0Y-46.0
X133.0Y-46.0
X133.726Y-9.523
X133.726Y-9.523
X133.904Y-29.037
X133.904Y-29.037
X134.257Y-18.386
X134.257Y-18.386
X134.693Y-7.516
X135.161Y-40.584
X135.161Y-40.584
X135.246Y-23.838
X135.246Y-23.838
X136.288Y-5.08
X136.323Y-24.67
X136.323Y-24.67
X137.571Y-23.096
X137.571Y-23.096
X137.844Y-25.426
X137.844Y-25.426
X140.0Y-4.0
X140.0Y-4.0
X140.0Y-25.0
X140.0Y-25.0
X140.0Y-39.0
X140.0Y-39.0
X140.0Y-46.0
X140.0Y-46.0
X140.163Y-20.957
X140.163Y-20.957
X147.0Y-11.0
X147.0Y-11.0
X147.0Y-18.0
X147.0Y-18.0
X147.0Y-25.0
X147.0Y-25.0
X147.0Y-39.0
X147.0Y-39.0
X147.0Y-46.0
X147.0Y-46.0
X150.822Y-29.851
X150.822Y-29.851
X151.505Y-22.714
X151.505Y-22.714
X151.527Y-32.651
X151.527Y-32.651
X151.974Y-39.83
X151.974Y-39.83
X151.977Y-13.544
X152.313Y-36.535
X152.313Y-36.535
X152.405Y-7.147
X152.856Y-32.386
X152.856Y-32.386
X153.164Y-24.103
X153.164Y-24.103
X153.475Y-37.12
X153.475Y-37.12
X153.709Y-28.839
X153.709Y-28.839
X154.064Y-11.03
T2
X21.0Y-21.0
X21.0Y-23.54
X28.62Y-21.0
X28.62Y-23.54
T3
X14.0Y-50.0
X14.0Y-52.54
X16.54Y-50.0
X16.54Y-52.54
X19.08Y-50.0
X19.08Y-52.54
X21.62Y-50.0
X21.62Y-52.54
X24.16Y-50.0
X24.16Y-52.54
X26.7Y-50.0
X26.7Y-52.54
X29.24Y-50.0
X29.24Y-52.54
X31.78Y-50.0
X31.78Y-52.54
X34.32Y-50.0
X34.32Y-52.54
X36.86Y-50.0
X36.86Y-52.54
X39.4Y-50.0
X39.4Y-52.54
X41.94Y-50.0
X41.94Y-52.54
X44.48Y-50.0
X44.48Y-52.54
X47.02Y-50.0
X47.02Y-52.54
X48.0Y-5.0
X49.56Y-50.0
X49.56Y-52.54
X50.54Y-5.0
X52.1Y-50.0
X52.1Y-52.54
X54.64Y-50.0
X54.64Y-52.54
X57.18Y-50.0
X57.18Y-52.54
X59.72Y-50.0
X59.72Y-52.54
X62.26Y-50.0
X62.26Y-52.54
X72.0Y-50.0
X72.0Y-52.54
X74.54Y-50.0
X74.54Y-52.54
X77.08Y-50.0
X77.08Y-52.54
X79.62Y-50.0
X79.62Y-52.54
X82.16Y-50.0
X82.16Y-52.54
X84.0Y-4.5
X84.0Y-7.04
X84.7Y-50.0
X84.7Y-52.54
X86.54Y-4.5
X86.54Y-7.04
X87.24Y-50.0
X87.24Y-52.54
X89.08Y-4.5
X89.08Y-7.04
X89.78Y-50.0
X89.78Y-52.54
X91.62Y-4.5
X91.62Y-7.04
X92.32Y-50.0
X92.32Y-52.54
X94.16Y-4.5
X94.16Y-7.04
X94.86Y-50.0
X94.86Y-52.54
X96.7Y-4.5
X96.7Y-7.04
X99.24Y-4.5
X99.24Y-7.04
X101.78Y-4.5
X101.78Y-7.04
X104.32Y-4.5
X104.32Y-7.04
X106.86Y-4.5
X106.86Y-7.04
T4
X30.5Y-10.0
X31.525Y-7.525
X31.525Y-12.475
X34.0Y-13.5
X36.475Y-7.525
X36.475Y-12.475
X37.5Y-10.0
T3
X9.0Y-2.1G85X11.0Y-2.1
G05
X9.0Y-8.1G85X11.0Y-8.1
G05
X14.7Y-6.1G85X14.7Y-4.1
G05
M30
