%TF.GenerationSoftware,KiCad,Pcbnew,9.0.3+dfsg-1*%
%TF.CreationDate,2026-07-29T14:58:14+02:00*%
%TF.ProjectId,phaseA,70686173-6541-42e6-9b69-6361645f7063,rev?*%
%TF.SameCoordinates,Original*%
%TF.FileFunction,Soldermask,Bot*%
%TF.FilePolarity,Negative*%
%FSLAX46Y46*%
G04 Gerber Fmt 4.6, Leading zero omitted, Abs format (unit mm)*
G04 Created by KiCad (PCBNEW 9.0.3+dfsg-1) date 2026-07-29 14:58:14*
%MOMM*%
%LPD*%
G01*
G04 APERTURE LIST*
G04 Aperture macros list*
%AMRoundRect*
0 Rectangle with rounded corners*
0 $1 Rounding radius*
0 $2 $3 $4 $5 $6 $7 $8 $9 X,Y pos of 4 corners*
0 Add a 4 corners polygon primitive as box body*
4,1,4,$2,$3,$4,$5,$6,$7,$8,$9,$2,$3,0*
0 Add four circle primitives for the rounded corners*
1,1,$1+$1,$2,$3*
1,1,$1+$1,$4,$5*
1,1,$1+$1,$6,$7*
1,1,$1+$1,$8,$9*
0 Add four rect primitives between the rounded corners*
20,1,$1+$1,$2,$3,$4,$5,0*
20,1,$1+$1,$4,$5,$6,$7,0*
20,1,$1+$1,$6,$7,$8,$9,0*
20,1,$1+$1,$8,$9,$2,$3,0*%
G04 Aperture macros list end*
%ADD10R,6.000000X1.600000*%
%ADD11R,1.700000X1.700000*%
%ADD12C,1.700000*%
%ADD13R,3.500000X3.500000*%
%ADD14RoundRect,0.750000X1.000000X-0.750000X1.000000X0.750000X-1.000000X0.750000X-1.000000X-0.750000X0*%
%ADD15RoundRect,0.875000X0.875000X-0.875000X0.875000X0.875000X-0.875000X0.875000X-0.875000X-0.875000X0*%
%ADD16C,2.400000*%
%ADD17RoundRect,0.250000X-0.550000X-0.550000X0.550000X-0.550000X0.550000X0.550000X-0.550000X0.550000X0*%
%ADD18C,1.600000*%
G04 APERTURE END LIST*
D10*
%TO.C,J_EXP*%
X156950000Y-4680000D03*
X156950000Y-7220000D03*
X156950000Y-9760000D03*
X156950000Y-12300000D03*
X156950000Y-14840000D03*
X156950000Y-17380000D03*
X156950000Y-19920000D03*
X156950000Y-22460000D03*
X156950000Y-25000000D03*
X156950000Y-27540000D03*
X156950000Y-30080000D03*
X156950000Y-32620000D03*
X156950000Y-35160000D03*
X156950000Y-37700000D03*
X156950000Y-40240000D03*
X156950000Y-42780000D03*
X156950000Y-45320000D03*
%TD*%
D11*
%TO.C,J_ULX_B*%
X72000000Y-46540000D03*
D12*
X72000000Y-44000000D03*
X74540000Y-46540000D03*
X74540000Y-44000000D03*
X77080000Y-46540000D03*
X77080000Y-44000000D03*
X79620000Y-46540000D03*
X79620000Y-44000000D03*
X82160000Y-46540000D03*
X82160000Y-44000000D03*
X84700000Y-46540000D03*
X84700000Y-44000000D03*
X87240000Y-46540000D03*
X87240000Y-44000000D03*
X89780000Y-46540000D03*
X89780000Y-44000000D03*
X92320000Y-46540000D03*
X92320000Y-44000000D03*
X94860000Y-46540000D03*
X94860000Y-44000000D03*
%TD*%
D11*
%TO.C,J_ULX_A*%
X14000000Y-46540000D03*
D12*
X14000000Y-44000000D03*
X16540000Y-46540000D03*
X16540000Y-44000000D03*
X19080000Y-46540000D03*
X19080000Y-44000000D03*
X21620000Y-46540000D03*
X21620000Y-44000000D03*
X24160000Y-46540000D03*
X24160000Y-44000000D03*
X26700000Y-46540000D03*
X26700000Y-44000000D03*
X29240000Y-46540000D03*
X29240000Y-44000000D03*
X31780000Y-46540000D03*
X31780000Y-44000000D03*
X34320000Y-46540000D03*
X34320000Y-44000000D03*
X36860000Y-46540000D03*
X36860000Y-44000000D03*
X39400000Y-46540000D03*
X39400000Y-44000000D03*
X41940000Y-46540000D03*
X41940000Y-44000000D03*
X44480000Y-46540000D03*
X44480000Y-44000000D03*
X47020000Y-46540000D03*
X47020000Y-44000000D03*
X49560000Y-46540000D03*
X49560000Y-44000000D03*
X52100000Y-46540000D03*
X52100000Y-44000000D03*
X54640000Y-46540000D03*
X54640000Y-44000000D03*
X57180000Y-46540000D03*
X57180000Y-44000000D03*
X59720000Y-46540000D03*
X59720000Y-44000000D03*
X62260000Y-46540000D03*
X62260000Y-44000000D03*
%TD*%
D11*
%TO.C,J_SND*%
X48000000Y-5000000D03*
D12*
X50540000Y-5000000D03*
%TD*%
D13*
%TO.C,J_PWR*%
X10000000Y-2100000D03*
D14*
X10000000Y-8100000D03*
D15*
X14700000Y-5100000D03*
%TD*%
D11*
%TO.C,J_PRN*%
X84000000Y-7040000D03*
D12*
X84000000Y-4500000D03*
X86540000Y-7040000D03*
X86540000Y-4500000D03*
X89080000Y-7040000D03*
X89080000Y-4500000D03*
X91620000Y-7040000D03*
X91620000Y-4500000D03*
X94160000Y-7040000D03*
X94160000Y-4500000D03*
X96700000Y-7040000D03*
X96700000Y-4500000D03*
X99240000Y-7040000D03*
X99240000Y-4500000D03*
X101780000Y-7040000D03*
X101780000Y-4500000D03*
X104320000Y-7040000D03*
X104320000Y-4500000D03*
X106860000Y-7040000D03*
X106860000Y-4500000D03*
%TD*%
D16*
%TO.C,J_CAS*%
X37500000Y-10000000D03*
X34000000Y-13500000D03*
X30500000Y-10000000D03*
X36474873Y-12474873D03*
X31525126Y-12474873D03*
X36474873Y-7525126D03*
X31525126Y-7525126D03*
%TD*%
D17*
%TO.C,K1*%
X21000000Y-21000000D03*
D18*
X21000000Y-23540000D03*
X28620000Y-23540000D03*
X28620000Y-21000000D03*
%TD*%
M02*
